<?xml version="1.0" encoding="UTF-8"?>
<!DOCTYPE svg PUBLIC "-//W3C//DTD SVG 1.1//EN" "http://www.w3.org/Graphics/SVG/1.1/DTD/svg11.dtd">
<svg xmlns="http://www.w3.org/2000/svg" version="1.1" width="591px" height="531px" style="shape-rendering:geometricPrecision; text-rendering:geometricPrecision; image-rendering:optimizeQuality; fill-rule:evenodd; clip-rule:evenodd" xmlns:xlink="http://www.w3.org/1999/xlink">
<g><path style="opacity:0.918" fill="#deeafc" d="M 355.5,-0.5 C 358.5,-0.5 361.5,-0.5 364.5,-0.5C 365.167,0.166667 365.833,0.833333 366.5,1.5C 344.883,13.8036 323.55,26.4703 302.5,39.5C 299.08,37.7779 295.414,37.1113 291.5,37.5C 312.833,24.8333 334.167,12.1667 355.5,-0.5 Z"/></g>
<g><path style="opacity:0.99" fill="#cddaed" d="M 366.5,1.5 C 415.763,29.4419 464.763,57.7752 513.5,86.5C 492.167,99.1667 470.833,111.833 449.5,124.5C 400.336,96.4193 351.336,68.0859 302.5,39.5C 323.55,26.4703 344.883,13.8036 366.5,1.5 Z"/></g>
<g><path style="opacity:0.989" fill="#fdfefe" d="M 291.5,37.5 C 295.414,37.1113 299.08,37.7779 302.5,39.5C 351.336,68.0859 400.336,96.4193 449.5,124.5C 454.208,128.207 458.208,132.54 461.5,137.5C 463.316,141.284 464.316,145.284 464.5,149.5C 464.5,163.5 464.5,177.5 464.5,191.5C 460.682,189.987 456.682,189.32 452.5,189.5C 451.5,189.5 450.5,189.5 449.5,189.5C 449.666,179.161 449.5,168.828 449,158.5C 447.22,151.054 443.386,144.887 437.5,140C 393.794,114.147 349.794,88.8141 305.5,64C 300.88,62.462 297.713,63.962 296,68.5C 295.333,101.5 295.333,134.5 296,167.5C 300.809,161.015 306.976,156.348 314.5,153.5C 321.117,152.411 327.783,152.244 334.5,153C 341.384,155.016 348.051,157.516 354.5,160.5C 375.011,174.679 391.344,192.679 403.5,214.5C 414.038,233.115 419.705,253.115 420.5,274.5C 420.047,275.458 419.381,276.292 418.5,277C 420.058,277.21 421.391,277.71 422.5,278.5C 420.926,278.937 419.759,279.937 419,281.5C 413.667,292.167 408.333,302.833 403,313.5C 401.763,317.06 401.263,320.727 401.5,324.5C 400.842,323.602 400.176,322.602 399.5,321.5C 389.398,326.212 379.065,326.712 368.5,323C 360.306,319.989 352.806,315.822 346,310.5C 339.01,314.67 332.177,319.003 325.5,323.5C 361.058,344.443 396.725,365.109 432.5,385.5C 432.5,388.167 432.5,390.833 432.5,393.5C 432.5,396.833 432.5,400.167 432.5,403.5C 424.301,398.568 415.968,393.901 407.5,389.5C 395.168,381.665 382.502,374.332 369.5,367.5C 365.37,364.597 361.037,361.93 356.5,359.5C 347.429,353.775 338.096,348.441 328.5,343.5C 323.033,339.929 317.367,336.596 311.5,333.5C 310.399,332.402 309.066,332.235 307.5,333C 305.767,334.189 304.1,335.356 302.5,336.5C 299.46,337.68 296.794,339.347 294.5,341.5C 230.163,378.666 166.163,416.332 102.5,454.5C 95.5068,459.823 88.5068,459.657 81.5,454C 57.0923,439.267 32.4257,424.934 7.5,411C 3.92315,408.926 1.25648,406.093 -0.5,402.5C -0.5,399.5 -0.5,396.5 -0.5,393.5C 0.166667,393.167 0.833333,392.833 1.5,392.5C 5.10547,392.799 8.43881,393.965 11.5,396C 37.0025,411.252 62.6692,426.252 88.5,441C 90.3333,442.167 91.8333,443.667 93,445.5C 96.8666,441.298 101.033,437.465 105.5,434C 166.5,398.167 227.5,362.333 288.5,326.5C 289.298,326.043 289.631,325.376 289.5,324.5C 290.167,324.5 290.833,324.5 291.5,324.5C 328.276,303.275 364.943,281.775 401.5,260C 400.103,258.69 399.103,257.19 398.5,255.5C 393.827,230.984 382.494,210.151 364.5,193C 356.338,185.843 347.004,180.843 336.5,178C 318.748,176.067 307.915,183.9 304,201.5C 303.501,205.486 303.334,209.486 303.5,213.5C 303.167,214.833 302.833,216.167 302.5,217.5C 300.203,219.165 298.87,221.498 298.5,224.5C 296.453,225.185 294.786,226.351 293.5,228C 293.735,228.873 294.069,229.707 294.5,230.5C 293.143,232.186 291.81,233.852 290.5,235.5C 288.632,234.737 286.965,233.737 285.5,232.5C 285.333,170.166 285.5,107.832 286,45.5C 286.13,41.5477 287.964,38.8811 291.5,37.5 Z"/></g>
<g><path style="opacity:0.871" fill="#56c4ea" d="M 162.5,43.5 C 165.976,42.3567 169.642,42.1901 173.5,43C 209.667,65.1667 245.833,87.3333 282,109.5C 282.667,140.5 282.667,171.5 282,202.5C 280.392,206.056 278.559,209.389 276.5,212.5C 276.833,178.493 276.5,144.493 275.5,110.5C 237.943,87.8919 200.276,65.5585 162.5,43.5 Z"/></g>
<g><path style="opacity:0.948" fill="#92e1f7" d="M 162.5,43.5 C 200.276,65.5585 237.943,87.8919 275.5,110.5C 276.5,144.493 276.833,178.493 276.5,212.5C 276.565,212.938 276.399,213.272 276,213.5C 261.555,204.696 247.055,196.029 232.5,187.5C 224.511,181.167 215.844,175.833 206.5,171.5C 195.833,165.167 185.167,158.833 174.5,152.5C 176.181,150.992 178.181,149.992 180.5,149.5C 210.531,168.169 240.864,186.502 271.5,204.5C 272.667,174.506 272.833,144.506 272,114.5C 237.5,93.2487 202.833,72.2487 168,51.5C 167.175,82.2384 167.342,112.905 168.5,143.5C 166.735,144.461 164.735,144.795 162.5,144.5C 162.5,110.833 162.5,77.1667 162.5,43.5 Z"/></g>
<g><path style="opacity:1" fill="#75cdf6" d="M 180.5,149.5 C 181.708,148.766 183.041,148.433 184.5,148.5C 212.304,164.57 239.97,180.903 267.5,197.5C 267.56,198.043 267.893,198.376 268.5,198.5C 269.829,170.336 269.829,142.336 268.5,114.5C 241.335,98.7519 214.335,82.7519 187.5,66.5C 183.074,63.4057 178.407,60.739 173.5,58.5C 173.44,57.9569 173.107,57.6236 172.5,57.5C 171.171,85.3304 171.171,112.997 172.5,140.5C 173.5,141.167 174.5,141.833 175.5,142.5C 173.393,143.468 171.059,143.802 168.5,143.5C 167.342,112.905 167.175,82.2384 168,51.5C 202.833,72.2487 237.5,93.2487 272,114.5C 272.833,144.506 272.667,174.506 271.5,204.5C 240.864,186.502 210.531,168.169 180.5,149.5 Z"/></g>
<g><path style="opacity:1" fill="#3689d4" d="M 173.5,58.5 C 172.502,85.6616 172.169,112.995 172.5,140.5C 171.171,112.997 171.171,85.3304 172.5,57.5C 173.107,57.6236 173.44,57.9569 173.5,58.5 Z"/></g>
<g><path style="opacity:1" fill="#175eb7" d="M 173.5,58.5 C 178.407,60.739 183.074,63.4057 187.5,66.5C 187.991,80.1306 191.158,93.1306 197,105.5C 211.265,136.425 232.098,161.925 259.5,182C 262.527,183.513 265.527,185.013 268.5,186.5C 268.815,190.371 268.482,194.038 267.5,197.5C 239.97,180.903 212.304,164.57 184.5,148.5C 188.652,147.448 192.985,146.614 197.5,146C 194.982,144.851 192.316,144.018 189.5,143.5C 188.479,142.998 188.312,142.332 189,141.5C 191.166,139.879 193.666,139.045 196.5,139C 195.833,138.667 195.167,138.333 194.5,138C 196.833,137.667 199.167,137.333 201.5,137C 201.167,136.667 200.833,136.333 200.5,136C 202.044,135.71 203.377,135.044 204.5,134C 198.461,133.427 192.461,133.761 186.5,135C 183.122,138.015 179.456,140.515 175.5,142.5C 174.5,141.833 173.5,141.167 172.5,140.5C 172.169,112.995 172.502,85.6616 173.5,58.5 Z"/></g>
<g><path style="opacity:1" fill="#dfeafc" d="M 452.5,189.5 C 450.553,190.15 448.887,191.317 447.5,193C 445.866,193.494 444.199,193.66 442.5,193.5C 439.614,197.586 436.948,201.919 434.5,206.5C 436.412,209.023 436.912,211.69 436,214.5C 437.529,217.259 439.695,219.259 442.5,220.5C 443.36,228.56 446.193,235.894 451,242.5C 452.11,244.037 453.61,244.703 455.5,244.5C 455.5,246.5 455.5,248.5 455.5,250.5C 454.222,250.782 453.222,251.449 452.5,252.5C 450.445,254.555 448.112,256.221 445.5,257.5C 443.576,236.728 437.243,217.394 426.5,199.5C 415.709,177.375 399.709,160.041 378.5,147.5C 366.776,139.49 353.776,136.656 339.5,139C 330.759,143.265 322.426,148.099 314.5,153.5C 306.976,156.348 300.809,161.015 296,167.5C 295.333,134.5 295.333,101.5 296,68.5C 297.713,63.962 300.88,62.462 305.5,64C 349.794,88.8141 393.794,114.147 437.5,140C 443.386,144.887 447.22,151.054 449,158.5C 449.5,168.828 449.666,179.161 449.5,189.5C 450.5,189.5 451.5,189.5 452.5,189.5 Z"/></g>
<g><path style="opacity:1" fill="#1c76cf" d="M 187.5,66.5 C 214.335,82.7519 241.335,98.7519 268.5,114.5C 268.5,138.5 268.5,162.5 268.5,186.5C 265.527,185.013 262.527,183.513 259.5,182C 232.098,161.925 211.265,136.425 197,105.5C 191.158,93.1306 187.991,80.1306 187.5,66.5 Z"/></g>
<g><path style="opacity:0.92" fill="#242731" d="M 108.5,92.5 C 104.393,92.9246 100.726,94.4246 97.5,97C 95.6351,99.8577 93.4685,102.358 91,104.5C 88.2162,102.72 85.7162,100.553 83.5,98C 79.4678,95.6917 77.9678,96.8583 79,101.5C 81.8103,103.456 83.3103,106.123 83.5,109.5C 82.391,109.557 81.391,109.89 80.5,110.5C 71.9416,108.247 67.9416,102.58 68.5,93.5C 68.6683,90.4805 69.0016,87.4805 69.5,84.5C 69.6578,82.6814 68.9911,81.3481 67.5,80.5C 66.4476,82.5417 65.7809,84.7084 65.5,87C 66.5989,96.1423 66.7655,105.309 66,114.5C 64.3339,119.166 62.1673,123.499 59.5,127.5C 58.8333,127.5 58.5,127.833 58.5,128.5C 57.8333,128.5 57.5,128.833 57.5,129.5C 56.8333,129.5 56.5,129.833 56.5,130.5C 55.8333,130.5 55.5,130.833 55.5,131.5C 54.8333,131.5 54.5,131.833 54.5,132.5C 53.8333,132.5 53.5,132.833 53.5,133.5C 52.0331,134.292 50.6998,134.292 49.5,133.5C 53.5459,127.742 56.2126,121.409 57.5,114.5C 54.7215,103.657 53.8882,92.657 55,81.5C 56.1302,77.3675 58.7969,75.0342 63,74.5C 66.497,75.0398 69.8304,76.0398 73,77.5C 74.8917,73.9421 77.7251,71.4421 81.5,70C 91.8495,68.3711 100.683,71.2044 108,78.5C 109.658,81.3087 110.825,84.3087 111.5,87.5C 111.243,89.6924 110.243,91.3591 108.5,92.5 Z"/></g>
<g><path style="opacity:0.993" fill="#e0e6eb" d="M 513.5,86.5 C 518.909,89.5744 522.909,93.9078 525.5,99.5C 503.801,111.678 482.467,124.344 461.5,137.5C 458.208,132.54 454.208,128.207 449.5,124.5C 470.833,111.833 492.167,99.1667 513.5,86.5 Z"/></g>
<g><path style="opacity:0.986" fill="#f8d0c0" d="M 108.5,92.5 C 107.886,96.1352 107.552,99.8019 107.5,103.5C 106.209,104.542 106.209,105.708 107.5,107C 105.667,107.5 104.5,108.667 104,110.5C 102.56,114.041 101.726,117.708 101.5,121.5C 101.167,121.5 100.833,121.5 100.5,121.5C 100.5,119.833 100.5,118.167 100.5,116.5C 98.1667,116.5 95.8333,116.5 93.5,116.5C 89.5015,115.163 86.1682,112.83 83.5,109.5C 83.3103,106.123 81.8103,103.456 79,101.5C 77.9678,96.8583 79.4678,95.6917 83.5,98C 85.7162,100.553 88.2162,102.72 91,104.5C 93.4685,102.358 95.6351,99.8577 97.5,97C 100.726,94.4246 104.393,92.9246 108.5,92.5 Z"/></g>
<g><path style="opacity:1" fill="#ccd7e4" d="M 525.5,99.5 C 528.43,103.974 529.763,108.974 529.5,114.5C 508.718,126.729 487.718,138.729 466.5,150.5C 465.817,150.137 465.15,149.804 464.5,149.5C 464.316,145.284 463.316,141.284 461.5,137.5C 482.467,124.344 503.801,111.678 525.5,99.5 Z"/></g>
<g><path style="opacity:0.841" fill="#1181df" d="M 107.5,103.5 C 111.536,104.02 114.703,106.02 117,109.5C 121.232,115.624 124.065,122.291 125.5,129.5C 123.929,131.635 122.596,133.968 121.5,136.5C 119.926,136.063 118.759,135.063 118,133.5C 117.879,126.754 117.212,120.087 116,113.5C 113.279,109.956 110.446,106.622 107.5,103.5 Z"/></g>
<g><path style="opacity:0.974" fill="#0d73bb" d="M 107.5,103.5 C 110.446,106.622 113.279,109.956 116,113.5C 117.212,120.087 117.879,126.754 118,133.5C 118.759,135.063 119.926,136.063 121.5,136.5C 121.155,142.179 119.822,147.512 117.5,152.5C 113.093,149.954 108.759,147.12 104.5,144C 97.8333,143.667 91.1667,143.333 84.5,143C 77.7828,140.808 71.4495,137.808 65.5,134C 59.4318,132.812 58.9318,133.978 64,137.5C 65.3989,140.363 66.3989,143.363 67,146.5C 67.3489,158.015 66.8489,169.348 65.5,180.5C 64.1667,180.167 62.8333,179.833 61.5,179.5C 56.5296,178.647 51.5296,177.98 46.5,177.5C 43.7994,177.341 41.7994,176.174 40.5,174C 42.7488,159.756 47.0821,146.256 53.5,133.5C 54.1667,133.5 54.5,133.167 54.5,132.5C 55.1667,132.5 55.5,132.167 55.5,131.5C 56.1667,131.5 56.5,131.167 56.5,130.5C 57.1667,130.5 57.5,130.167 57.5,129.5C 58.1667,129.5 58.5,129.167 58.5,128.5C 59.1667,128.5 59.5,128.167 59.5,127.5C 66.2398,122.087 73.2398,117.087 80.5,112.5C 79.9927,117.121 80.826,121.454 83,125.5C 88.3216,131.407 94.8216,135.074 102.5,136.5C 102.587,131.463 102.254,126.463 101.5,121.5C 101.726,117.708 102.56,114.041 104,110.5C 104.5,108.667 105.667,107.5 107.5,107C 106.209,105.708 106.209,104.542 107.5,103.5 Z"/></g>
<g><path style="opacity:0.987" fill="#ccd9ec" d="M 529.5,114.5 C 529.5,176.167 529.5,237.833 529.5,299.5C 528.502,323.661 528.169,347.994 528.5,372.5C 528.666,376.514 528.499,380.514 528,384.5C 519.188,390.487 510.021,395.82 500.5,400.5C 499.736,392.979 499.069,385.312 498.5,377.5C 498.5,376.5 498.5,375.5 498.5,374.5C 501.243,374.923 502.576,373.756 502.5,371C 501.875,358 498.375,345.833 492,334.5C 490.894,325.533 490.394,316.533 490.5,307.5C 495.164,311.332 500.497,312.832 506.5,312C 507.333,311.167 508.167,310.333 509,309.5C 510.338,294.074 508.838,279.074 504.5,264.5C 505.63,261.116 506.963,257.782 508.5,254.5C 505.683,249.038 502.017,244.205 497.5,240C 492.511,239.501 487.511,239.334 482.5,239.5C 482.027,238.094 481.027,237.427 479.5,237.5C 479.204,235.597 478.537,233.93 477.5,232.5C 487.139,218.464 485.473,205.63 472.5,194C 469.865,192.976 467.198,192.143 464.5,191.5C 464.5,177.5 464.5,163.5 464.5,149.5C 465.15,149.804 465.817,150.137 466.5,150.5C 487.718,138.729 508.718,126.729 529.5,114.5 Z"/></g>
<g><path style="opacity:1" fill="#3d96de" d="M 268.5,114.5 C 269.829,142.336 269.829,170.336 268.5,198.5C 267.893,198.376 267.56,198.043 267.5,197.5C 268.482,194.038 268.815,190.371 268.5,186.5C 268.5,162.5 268.5,138.5 268.5,114.5 Z"/></g>
<g><path style="opacity:1" fill="#ffb897" d="M 93.5,116.5 C 95.8333,116.5 98.1667,116.5 100.5,116.5C 100.5,118.167 100.5,119.833 100.5,121.5C 100.896,124.044 100.229,126.211 98.5,128C 93.025,129.402 88.3583,128.069 84.5,124C 87.6653,121.665 90.6653,119.165 93.5,116.5 Z"/></g>
<g><path style="opacity:1" fill="#f9c5ac" d="M 83.5,109.5 C 86.1682,112.83 89.5015,115.163 93.5,116.5C 90.6653,119.165 87.6653,121.665 84.5,124C 88.3583,128.069 93.025,129.402 98.5,128C 100.229,126.211 100.896,124.044 100.5,121.5C 100.833,121.5 101.167,121.5 101.5,121.5C 102.254,126.463 102.587,131.463 102.5,136.5C 94.8216,135.074 88.3216,131.407 83,125.5C 80.826,121.454 79.9927,117.121 80.5,112.5C 80.5,111.833 80.5,111.167 80.5,110.5C 81.391,109.89 82.391,109.557 83.5,109.5 Z"/></g>
<g><path style="opacity:0.946" fill="#fdc3a3" d="M 125.5,129.5 C 129.497,134.177 133.163,139.177 136.5,144.5C 145.162,145.588 153.829,145.588 162.5,144.5C 164.735,144.795 166.735,144.461 168.5,143.5C 171.059,143.802 173.393,143.468 175.5,142.5C 179.456,140.515 183.122,138.015 186.5,135C 192.461,133.761 198.461,133.427 204.5,134C 203.377,135.044 202.044,135.71 200.5,136C 200.833,136.333 201.167,136.667 201.5,137C 199.167,137.333 196.833,137.667 194.5,138C 195.167,138.333 195.833,138.667 196.5,139C 193.666,139.045 191.166,139.879 189,141.5C 188.312,142.332 188.479,142.998 189.5,143.5C 192.316,144.018 194.982,144.851 197.5,146C 192.985,146.614 188.652,147.448 184.5,148.5C 183.041,148.433 181.708,148.766 180.5,149.5C 178.181,149.992 176.181,150.992 174.5,152.5C 161.921,158.886 148.588,162.886 134.5,164.5C 131.327,163.79 128.327,162.623 125.5,161C 122.964,158.295 120.297,155.795 117.5,153.5C 117.5,153.167 117.5,152.833 117.5,152.5C 119.822,147.512 121.155,142.179 121.5,136.5C 122.596,133.968 123.929,131.635 125.5,129.5 Z"/></g>
<g><path style="opacity:0.989" fill="#0d81e0" d="M 117.5,152.5 C 117.5,152.833 117.5,153.167 117.5,153.5C 114.639,159.847 113.805,166.513 115,173.5C 119.442,192.935 125.275,211.935 132.5,230.5C 131.535,233.128 129.868,235.128 127.5,236.5C 120.097,239.934 112.43,242.6 104.5,244.5C 102.784,244.629 101.117,244.962 99.5,245.5C 96.4824,245.704 93.4824,246.037 90.5,246.5C 86.2702,243.48 84.1035,239.48 84,234.5C 87.1277,234.628 90.2943,234.628 93.5,234.5C 88.5003,230.34 83.3336,226.34 78,222.5C 75.3678,217.186 72.7011,211.853 70,206.5C 68.5699,203.647 67.7366,200.647 67.5,197.5C 67.7913,191.697 67.1246,186.031 65.5,180.5C 66.8489,169.348 67.3489,158.015 67,146.5C 66.3989,143.363 65.3989,140.363 64,137.5C 58.9318,133.978 59.4318,132.812 65.5,134C 71.4495,137.808 77.7828,140.808 84.5,143C 91.1667,143.333 97.8333,143.667 104.5,144C 108.759,147.12 113.093,149.954 117.5,152.5 Z"/></g>
<g><path style="opacity:1" fill="#cad6e3" d="M 378.5,147.5 C 370.792,152.354 362.792,156.688 354.5,160.5C 348.051,157.516 341.384,155.016 334.5,153C 327.783,152.244 321.117,152.411 314.5,153.5C 322.426,148.099 330.759,143.265 339.5,139C 353.776,136.656 366.776,139.49 378.5,147.5 Z"/></g>
<g><path style="opacity:1" fill="#e0e6ec" d="M 378.5,147.5 C 399.709,160.041 415.709,177.375 426.5,199.5C 419.894,204.144 412.894,208.311 405.5,212C 404.619,212.708 403.953,213.542 403.5,214.5C 391.344,192.679 375.011,174.679 354.5,160.5C 362.792,156.688 370.792,152.354 378.5,147.5 Z"/></g>
<g><path style="opacity:0.958" fill="#fcfdfe" d="M 206.5,171.5 C 215.844,175.833 224.511,181.167 232.5,187.5C 232.808,189.924 232.474,192.257 231.5,194.5C 229.105,193.477 228.105,194.477 228.5,197.5C 228.821,199.048 229.821,199.715 231.5,199.5C 238.263,201.045 243.929,204.379 248.5,209.5C 248.649,210.552 248.483,211.552 248,212.5C 246.69,209.527 244.69,207.193 242,205.5C 239.15,211.847 235.316,217.514 230.5,222.5C 230.167,222.5 229.833,222.5 229.5,222.5C 215.487,221.723 202.154,218.39 189.5,212.5C 193.881,204.128 200.881,199.461 210.5,198.5C 210.829,192.794 210.495,187.128 209.5,181.5C 208.833,181.167 208.167,180.833 207.5,180.5C 206.516,177.572 206.183,174.572 206.5,171.5 Z"/></g>
<g><path style="opacity:0.955" fill="#fcc2a2" d="M 46.5,177.5 C 51.5296,177.98 56.5296,178.647 61.5,179.5C 62.1255,186.043 64.1255,192.043 67.5,197.5C 67.7366,200.647 68.5699,203.647 70,206.5C 72.7011,211.853 75.3678,217.186 78,222.5C 83.3336,226.34 88.5003,230.34 93.5,234.5C 90.2943,234.628 87.1277,234.628 84,234.5C 84.1035,239.48 86.2702,243.48 90.5,246.5C 90.2089,247.649 89.3756,248.316 88,248.5C 86.4672,248.227 84.9672,247.894 83.5,247.5C 76.2992,242.502 72.1325,235.502 71,226.5C 67.9641,223.296 64.7974,220.296 61.5,217.5C 56.2522,210.013 51.7522,202.013 48,193.5C 46.661,188.264 46.161,182.93 46.5,177.5 Z"/></g>
<g><path style="opacity:1" fill="#afc7db" d="M 398.5,255.5 C 398.157,257.225 397.157,257.725 395.5,257C 374.269,245.885 352.936,235.052 331.5,224.5C 329.113,217.61 324.446,212.777 317.5,210C 311.691,207.236 307.025,208.403 303.5,213.5C 303.334,209.486 303.501,205.486 304,201.5C 307.915,183.9 318.748,176.067 336.5,178C 347.004,180.843 356.338,185.843 364.5,193C 382.494,210.151 393.827,230.984 398.5,255.5 Z"/></g>
<g><path style="opacity:1" fill="#050a15" d="M 452.5,189.5 C 456.682,189.32 460.682,189.987 464.5,191.5C 467.198,192.143 469.865,192.976 472.5,194C 485.473,205.63 487.139,218.464 477.5,232.5C 475.792,234.216 474.458,236.216 473.5,238.5C 471.515,236.35 469.348,234.35 467,232.5C 463.25,231.292 459.416,230.458 455.5,230C 454.196,226.515 452.529,223.181 450.5,220C 450.167,219.833 449.833,219.667 449.5,219.5C 448.571,220.689 448.238,222.022 448.5,223.5C 446.053,223.385 444.053,222.385 442.5,220.5C 439.695,219.259 437.529,217.259 436,214.5C 436.912,211.69 436.412,209.023 434.5,206.5C 436.948,201.919 439.614,197.586 442.5,193.5C 444.199,193.66 445.866,193.494 447.5,193C 448.887,191.317 450.553,190.15 452.5,189.5 Z"/></g>
<g><path style="opacity:0.106" fill="#113f72" d="M 228.5,197.5 C 229.71,197.932 230.71,198.599 231.5,199.5C 229.821,199.715 228.821,199.048 228.5,197.5 Z"/></g>
<g><path style="opacity:1" fill="#cbd7e4" d="M 426.5,199.5 C 437.243,217.394 443.576,236.728 445.5,257.5C 444.013,258.804 442.346,259.97 440.5,261C 437.139,261.054 434.139,262.054 431.5,264C 427.305,267.03 423.639,270.53 420.5,274.5C 419.705,253.115 414.038,233.115 403.5,214.5C 403.953,213.542 404.619,212.708 405.5,212C 412.894,208.311 419.894,204.144 426.5,199.5 Z"/></g>
<g><path style="opacity:1" fill="#cce6fc" d="M 248.5,209.5 C 249.167,209.5 249.5,209.833 249.5,210.5C 252.62,216.098 251.954,221.098 247.5,225.5C 247.751,223.83 248.418,222.33 249.5,221C 243.257,221.89 236.924,222.39 230.5,222.5C 235.316,217.514 239.15,211.847 242,205.5C 244.69,207.193 246.69,209.527 248,212.5C 248.483,211.552 248.649,210.552 248.5,209.5 Z"/></g>
<g><path style="opacity:1" fill="#340a0d" d="M 331.5,224.5 C 330.178,230.644 327.178,235.811 322.5,240C 317.046,241.895 311.712,244.061 306.5,246.5C 306.846,242.333 309.18,240.5 313.5,241C 314.91,240.632 315.91,239.799 316.5,238.5C 313.541,237.487 310.541,237.487 307.5,238.5C 305.933,238.523 304.6,238.023 303.5,237C 306.438,235.192 309.438,233.692 312.5,232.5C 314.07,227.61 314.57,222.61 314,217.5C 310.169,214.888 306.336,214.888 302.5,217.5C 302.833,216.167 303.167,214.833 303.5,213.5C 307.025,208.403 311.691,207.236 317.5,210C 324.446,212.777 329.113,217.61 331.5,224.5 Z"/></g>
<g><path style="opacity:0.974" fill="#04386c" d="M 249.5,210.5 C 255.178,213.336 260.511,216.669 265.5,220.5C 252.663,227.081 240.33,234.415 228.5,242.5C 227.279,243.028 226.113,243.695 225,244.5C 224.501,249.489 224.334,254.489 224.5,259.5C 224.167,259.5 223.833,259.5 223.5,259.5C 223.666,254.489 223.499,249.489 223,244.5C 221.89,242.963 220.39,242.297 218.5,242.5C 217.428,248.073 214.095,251.573 208.5,253C 199.624,254.037 190.958,253.537 182.5,251.5C 182.333,240.828 182.5,230.161 183,219.5C 184.78,218.361 186.614,217.361 188.5,216.5C 192.389,224.722 198.723,230.055 207.5,232.5C 218.079,236.529 228.745,236.362 239.5,232C 242.936,230.726 245.603,228.559 247.5,225.5C 251.954,221.098 252.62,216.098 249.5,210.5 Z"/></g>
<g><path style="opacity:0.997" fill="#cae6fd" d="M 189.5,212.5 C 202.154,218.39 215.487,221.723 229.5,222.5C 223.475,228.509 216.141,231.843 207.5,232.5C 198.723,230.055 192.389,224.722 188.5,216.5C 188.833,215.167 189.167,213.833 189.5,212.5 Z"/></g>
<g><path style="opacity:1" fill="#fbc0a1" d="M 306.5,246.5 C 306.5,246.833 306.5,247.167 306.5,247.5C 297.669,250.805 288.669,251.305 279.5,249C 278.833,248.333 278.167,247.667 277.5,247C 281.217,243.615 285.217,240.615 289.5,238C 290.252,237.329 290.586,236.496 290.5,235.5C 291.81,233.852 293.143,232.186 294.5,230.5C 294.069,229.707 293.735,228.873 293.5,228C 294.786,226.351 296.453,225.185 298.5,224.5C 298.87,221.498 300.203,219.165 302.5,217.5C 306.336,214.888 310.169,214.888 314,217.5C 314.57,222.61 314.07,227.61 312.5,232.5C 309.438,233.692 306.438,235.192 303.5,237C 304.6,238.023 305.933,238.523 307.5,238.5C 310.541,237.487 313.541,237.487 316.5,238.5C 315.91,239.799 314.91,240.632 313.5,241C 309.18,240.5 306.846,242.333 306.5,246.5 Z"/></g>
<g><path style="opacity:0.956" fill="#1181e0" d="M 61.5,217.5 C 64.7974,220.296 67.9641,223.296 71,226.5C 72.1325,235.502 76.2992,242.502 83.5,247.5C 80.5,247.5 77.5,247.5 74.5,247.5C 70.03,246.514 65.3633,246.181 60.5,246.5C 59.4168,246.461 58.4168,246.127 57.5,245.5C 56.7696,243.659 56.1029,241.825 55.5,240C 56.7953,232.319 58.7953,224.819 61.5,217.5 Z"/></g>
<g><path style="opacity:0.99" fill="#054798" d="M 265.5,220.5 C 265.5,224.167 265.5,227.833 265.5,231.5C 259.188,242.659 249.855,249.992 237.5,253.5C 232.676,251.341 229.676,247.675 228.5,242.5C 240.33,234.415 252.663,227.081 265.5,220.5 Z"/></g>
<g><path style="opacity:1" fill="#fbc2a2" d="M 477.5,232.5 C 478.537,233.93 479.204,235.597 479.5,237.5C 478.841,244.991 474.841,249.491 467.5,251C 463.311,251.812 459.311,251.645 455.5,250.5C 455.5,248.5 455.5,246.5 455.5,244.5C 453.61,244.703 452.11,244.037 451,242.5C 446.193,235.894 443.36,228.56 442.5,220.5C 444.053,222.385 446.053,223.385 448.5,223.5C 448.238,222.022 448.571,220.689 449.5,219.5C 449.833,219.667 450.167,219.833 450.5,220C 452.529,223.181 454.196,226.515 455.5,230C 459.416,230.458 463.25,231.292 467,232.5C 469.348,234.35 471.515,236.35 473.5,238.5C 474.458,236.216 475.792,234.216 477.5,232.5 Z"/></g>
<g><path style="opacity:1" fill="#9fcdf8" d="M 247.5,225.5 C 245.603,228.559 242.936,230.726 239.5,232C 228.745,236.362 218.079,236.529 207.5,232.5C 216.141,231.843 223.475,228.509 229.5,222.5C 229.833,222.5 230.167,222.5 230.5,222.5C 236.924,222.39 243.257,221.89 249.5,221C 248.418,222.33 247.751,223.83 247.5,225.5 Z"/></g>
<g><path style="opacity:1" fill="#e0e6eb" d="M 331.5,224.5 C 352.936,235.052 374.269,245.885 395.5,257C 397.157,257.725 398.157,257.225 398.5,255.5C 399.103,257.19 400.103,258.69 401.5,260C 364.943,281.775 328.276,303.275 291.5,324.5C 301.402,310.736 309.902,296.07 317,280.5C 318.156,276.877 319.156,273.211 320,269.5C 320.79,266.366 320.457,263.366 319,260.5C 315.33,255.664 311.164,251.331 306.5,247.5C 306.5,247.167 306.5,246.833 306.5,246.5C 311.712,244.061 317.046,241.895 322.5,240C 327.178,235.811 330.178,230.644 331.5,224.5 Z"/></g>
<g><path style="opacity:0.997" fill="#020202" d="M 285.5,232.5 C 286.965,233.737 288.632,234.737 290.5,235.5C 290.586,236.496 290.252,237.329 289.5,238C 285.217,240.615 281.217,243.615 277.5,247C 278.167,247.667 278.833,248.333 279.5,249C 288.669,251.305 297.669,250.805 306.5,247.5C 311.164,251.331 315.33,255.664 319,260.5C 320.457,263.366 320.79,266.366 320,269.5C 319.156,273.211 318.156,276.877 317,280.5C 309.902,296.07 301.402,310.736 291.5,324.5C 290.833,324.5 290.167,324.5 289.5,324.5C 281.014,325.682 272.681,325.682 264.5,324.5C 266.113,321.146 265.78,318.146 263.5,315.5C 269.774,313.505 276.107,311.338 282.5,309C 287.702,301.086 292.202,292.92 296,284.5C 285.134,297.565 271.968,307.231 256.5,313.5C 255.5,313.5 254.5,313.5 253.5,313.5C 246.73,307.904 240.064,302.071 233.5,296C 229.007,293.921 224.674,291.588 220.5,289C 218.527,288.505 216.527,288.338 214.5,288.5C 216.616,285.211 218.949,282.044 221.5,279C 211.125,282.958 200.458,286.458 189.5,289.5C 190.649,287.851 191.982,286.351 193.5,285C 192.027,281.351 189.361,279.518 185.5,279.5C 188.997,276.917 192.664,274.584 196.5,272.5C 205.924,268.954 214.924,264.621 223.5,259.5C 223.833,259.5 224.167,259.5 224.5,259.5C 229.018,257.739 233.351,255.739 237.5,253.5C 249.855,249.992 259.188,242.659 265.5,231.5C 272.263,228.774 278.93,229.107 285.5,232.5 Z"/></g>
<g><path style="opacity:0.972" fill="#0058da" d="M 127.5,236.5 C 126.845,255.525 125.678,274.525 124,293.5C 122.732,297.136 121.566,300.803 120.5,304.5C 122.092,310.793 123.425,317.127 124.5,323.5C 120.493,327.174 115.827,329.841 110.5,331.5C 109.395,313.055 107.228,294.722 104,276.5C 103.291,265.811 103.458,255.144 104.5,244.5C 112.43,242.6 120.097,239.934 127.5,236.5 Z"/></g>
<g><path style="opacity:1" fill="#183671" d="M 479.5,237.5 C 481.027,237.427 482.027,238.094 482.5,239.5C 482.065,246.107 478.732,250.607 472.5,253C 466.724,255.394 460.724,256.061 454.5,255C 453.244,254.583 452.577,253.75 452.5,252.5C 453.222,251.449 454.222,250.782 455.5,250.5C 459.311,251.645 463.311,251.812 467.5,251C 474.841,249.491 478.841,244.991 479.5,237.5 Z"/></g>
<g><path style="opacity:1" fill="#0688da" d="M 482.5,239.5 C 487.511,239.334 492.511,239.501 497.5,240C 502.017,244.205 505.683,249.038 508.5,254.5C 506.963,257.782 505.63,261.116 504.5,264.5C 502.498,267.334 499.998,269.667 497,271.5C 494.893,283.533 492.726,295.533 490.5,307.5C 490.394,316.533 490.894,325.533 492,334.5C 498.375,345.833 501.875,358 502.5,371C 502.576,373.756 501.243,374.923 498.5,374.5C 498.5,375.5 498.5,376.5 498.5,377.5C 497.778,377.082 497.278,376.416 497,375.5C 489.546,378.07 482.046,380.07 474.5,381.5C 464.161,381.666 453.828,381.5 443.5,381C 440.443,380.744 437.443,380.244 434.5,379.5C 433.571,380.689 433.238,382.022 433.5,383.5C 433.813,387.042 433.479,390.375 432.5,393.5C 432.5,390.833 432.5,388.167 432.5,385.5C 432.5,383.167 432.5,380.833 432.5,378.5C 429.455,378.492 426.455,378.159 423.5,377.5C 424.678,369.451 426.178,361.451 428,353.5C 428.5,342.505 428.667,331.505 428.5,320.5C 432.313,314.891 436.147,309.224 440,303.5C 440.676,295.481 437.176,289.981 429.5,287C 427.601,283.763 425.268,280.93 422.5,278.5C 421.391,277.71 420.058,277.21 418.5,277C 419.381,276.292 420.047,275.458 420.5,274.5C 423.639,270.53 427.305,267.03 431.5,264C 434.139,262.054 437.139,261.054 440.5,261C 442.346,259.97 444.013,258.804 445.5,257.5C 448.112,256.221 450.445,254.555 452.5,252.5C 452.577,253.75 453.244,254.583 454.5,255C 460.724,256.061 466.724,255.394 472.5,253C 478.732,250.607 482.065,246.107 482.5,239.5 Z"/></g>
<g><path style="opacity:1" fill="#01224e" d="M 223.5,259.5 C 214.924,264.621 205.924,268.954 196.5,272.5C 191.979,269.647 187.479,266.647 183,263.5C 182.501,259.514 182.334,255.514 182.5,251.5C 190.958,253.537 199.624,254.037 208.5,253C 214.095,251.573 217.428,248.073 218.5,242.5C 220.39,242.297 221.89,242.963 223,244.5C 223.499,249.489 223.666,254.489 223.5,259.5 Z"/></g>
<g><path style="opacity:1" fill="#001643" d="M 228.5,242.5 C 229.676,247.675 232.676,251.341 237.5,253.5C 233.351,255.739 229.018,257.739 224.5,259.5C 224.334,254.489 224.501,249.489 225,244.5C 226.113,243.695 227.279,243.028 228.5,242.5 Z"/></g>
<g><path style="opacity:0.983" fill="#0157d9" d="M 99.5,245.5 C 97.9768,255.449 96.9768,265.449 96.5,275.5C 94.8218,286.553 92.4885,297.553 89.5,308.5C 90.3489,319.541 91.3489,330.541 92.5,341.5C 85.9965,346.255 78.9965,350.255 71.5,353.5C 70.3434,345.344 70.1768,337.01 71,328.5C 72.8776,321.613 74.0442,314.613 74.5,307.5C 73.2784,294.842 72.2784,282.175 71.5,269.5C 71.6667,264.833 71.8333,260.167 72,255.5C 72.2794,252.543 73.1127,249.877 74.5,247.5C 77.5,247.5 80.5,247.5 83.5,247.5C 84.9672,247.894 86.4672,248.227 88,248.5C 89.3756,248.316 90.2089,247.649 90.5,246.5C 93.4824,246.037 96.4824,245.704 99.5,245.5 Z"/></g>
<g><path style="opacity:1" fill="#052e70" d="M 104.5,244.5 C 103.458,255.144 103.291,265.811 104,276.5C 107.228,294.722 109.395,313.055 110.5,331.5C 106.167,334.669 101.5,337.336 96.5,339.5C 96.5113,324.787 98.1779,310.287 101.5,296C 99.9359,289.141 98.2692,282.308 96.5,275.5C 96.9768,265.449 97.9768,255.449 99.5,245.5C 101.117,244.962 102.784,244.629 104.5,244.5 Z"/></g>
<g><path style="opacity:0.949" fill="#062d6b" d="M 60.5,246.5 C 65.3633,246.181 70.03,246.514 74.5,247.5C 73.1127,249.877 72.2794,252.543 72,255.5C 71.8333,260.167 71.6667,264.833 71.5,269.5C 72.2784,282.175 73.2784,294.842 74.5,307.5C 74.0442,314.613 72.8776,321.613 71,328.5C 70.1768,337.01 70.3434,345.344 71.5,353.5C 71.5,353.833 71.5,354.167 71.5,354.5C 66.6001,354.967 61.9334,354.301 57.5,352.5C 57.3335,341.828 57.5002,331.161 58,320.5C 61.5439,313.584 64.3772,306.418 66.5,299C 63.5541,281.6 61.5541,264.1 60.5,246.5 Z"/></g>
<g><path style="opacity:0.042" fill="#f6d4a2" d="M 127.5,253.5 C 128.848,254.527 129.348,255.86 129,257.5C 127.812,256.437 127.312,255.103 127.5,253.5 Z"/></g>
<g><path style="opacity:1" fill="#fcc3a4" d="M 504.5,264.5 C 508.838,279.074 510.338,294.074 509,309.5C 508.167,310.333 507.333,311.167 506.5,312C 500.497,312.832 495.164,311.332 490.5,307.5C 492.726,295.533 494.893,283.533 497,271.5C 499.998,269.667 502.498,267.334 504.5,264.5 Z"/></g>
<g><path style="opacity:1" fill="#b3c9dc" d="M 391.5,272.5 C 393.951,274.21 393.951,276.21 391.5,278.5C 295.833,334 200.167,389.5 104.5,445C 103.207,445.49 101.873,445.657 100.5,445.5C 100.383,443.516 101.05,441.85 102.5,440.5C 199.06,384.726 295.393,328.726 391.5,272.5 Z"/></g>
<g><path style="opacity:1" fill="#fec4a3" d="M 422.5,278.5 C 425.268,280.93 427.601,283.763 429.5,287C 437.176,289.981 440.676,295.481 440,303.5C 436.147,309.224 432.313,314.891 428.5,320.5C 425.036,323.462 421.703,326.629 418.5,330C 410.986,333.911 405.319,332.078 401.5,324.5C 401.263,320.727 401.763,317.06 403,313.5C 408.333,302.833 413.667,292.167 419,281.5C 419.759,279.937 420.926,278.937 422.5,278.5 Z"/></g>
<g><path style="opacity:0.892" fill="#fcc4a5" d="M 185.5,279.5 C 189.361,279.518 192.027,281.351 193.5,285C 191.982,286.351 190.649,287.851 189.5,289.5C 188.512,290.795 187.512,292.128 186.5,293.5C 181.259,295.477 175.926,297.143 170.5,298.5C 170.5,298.167 170.5,297.833 170.5,297.5C 168.179,297.771 166.179,297.104 164.5,295.5C 163.232,296.428 161.899,296.595 160.5,296C 161.642,291.517 164.308,288.184 168.5,286C 174.134,283.678 179.801,281.511 185.5,279.5 Z M 170.5,297.5 C 172.331,295.251 174.664,294.085 177.5,294C 175.423,295.705 173.09,296.872 170.5,297.5 Z"/></g>
<g><path style="opacity:1" fill="#cfd7dd" d="M 214.5,288.5 C 204.808,288.257 195.475,289.924 186.5,293.5C 187.512,292.128 188.512,290.795 189.5,289.5C 200.458,286.458 211.125,282.958 221.5,279C 218.949,282.044 216.616,285.211 214.5,288.5 Z"/></g>
<g><path style="opacity:1" fill="#b2c9dc" d="M 397.5,279.5 C 395.93,294.065 387.596,302.065 372.5,303.5C 368.84,303.759 365.507,302.925 362.5,301C 374.565,294.31 386.232,287.143 397.5,279.5 Z"/></g>
<g><path style="opacity:0.998" fill="#1081e0" d="M 214.5,288.5 C 216.527,288.338 218.527,288.505 220.5,289C 224.674,291.588 229.007,293.921 233.5,296C 240.064,302.071 246.73,307.904 253.5,313.5C 251.396,313.201 249.396,313.534 247.5,314.5C 248.729,315.281 250.062,315.781 251.5,316C 245.121,316.818 240.455,319.484 237.5,324C 243.408,324.189 243.742,325.189 238.5,327C 239.448,327.483 240.448,327.649 241.5,327.5C 237.574,330.807 233.24,333.64 228.5,336C 223.934,337.309 219.267,337.809 214.5,337.5C 204.145,333.807 194.479,328.807 185.5,322.5C 182.339,323.913 179.339,325.58 176.5,327.5C 165.242,343.755 153.242,359.421 140.5,374.5C 139.833,374.833 139.167,375.167 138.5,375.5C 135.507,376.135 132.507,376.301 129.5,376C 126.921,374.924 125.254,373.091 124.5,370.5C 123.588,369.262 123.421,367.928 124,366.5C 128.121,358.422 132.621,350.589 137.5,343C 137.167,342.833 136.833,342.667 136.5,342.5C 125.697,349.471 115.03,356.637 104.5,364C 100.401,366.09 96.0672,367.256 91.5,367.5C 91.7678,365.901 91.4345,364.568 90.5,363.5C 89.6062,360.043 87.9395,357.043 85.5,354.5C 102.807,344.372 119.474,333.206 135.5,321C 141.997,317.586 148.33,313.919 154.5,310C 155.337,308.989 155.67,307.822 155.5,306.5C 156.361,304.614 157.361,302.78 158.5,301C 162.377,299.631 166.377,298.798 170.5,298.5C 175.926,297.143 181.259,295.477 186.5,293.5C 195.475,289.924 204.808,288.257 214.5,288.5 Z"/></g>
<g><path style="opacity:1" fill="#adc3d0" d="M 263.5,315.5 C 260.848,315.59 258.515,314.924 256.5,313.5C 271.968,307.231 285.134,297.565 296,284.5C 292.202,292.92 287.702,301.086 282.5,309C 276.107,311.338 269.774,313.505 263.5,315.5 Z"/></g>
<g><path style="opacity:0.972" fill="#3dabfe" d="M 529.5,299.5 C 537.167,304.167 544.833,308.833 552.5,313.5C 552.5,328.5 552.5,343.5 552.5,358.5C 544.782,363.53 536.782,368.197 528.5,372.5C 528.169,347.994 528.502,323.661 529.5,299.5 Z"/></g>
<g><path style="opacity:0.929" fill="#d9e2ea" d="M 155.5,306.5 C 155.67,307.822 155.337,308.989 154.5,310C 148.33,313.919 141.997,317.586 135.5,321C 119.474,333.206 102.807,344.372 85.5,354.5C 80.8333,354.5 76.1667,354.5 71.5,354.5C 71.5,354.167 71.5,353.833 71.5,353.5C 78.9965,350.255 85.9965,346.255 92.5,341.5C 93.8333,340.833 95.1667,340.167 96.5,339.5C 101.5,337.336 106.167,334.669 110.5,331.5C 115.827,329.841 120.493,327.174 124.5,323.5C 134.994,318.087 145.327,312.421 155.5,306.5 Z"/></g>
<g><path style="opacity:1" fill="#dfebfc" d="M 401.5,324.5 C 405.319,332.078 410.986,333.911 418.5,330C 421.703,326.629 425.036,323.462 428.5,320.5C 428.667,331.505 428.5,342.505 428,353.5C 426.178,361.451 424.678,369.451 423.5,377.5C 426.455,378.159 429.455,378.492 432.5,378.5C 432.5,380.833 432.5,383.167 432.5,385.5C 396.725,365.109 361.058,344.443 325.5,323.5C 332.177,319.003 339.01,314.67 346,310.5C 352.806,315.822 360.306,319.989 368.5,323C 379.065,326.712 389.398,326.212 399.5,321.5C 400.176,322.602 400.842,323.602 401.5,324.5 Z"/></g>
<g><path style="opacity:1" fill="#fac2a3" d="M 253.5,313.5 C 254.5,313.5 255.5,313.5 256.5,313.5C 258.515,314.924 260.848,315.59 263.5,315.5C 265.78,318.146 266.113,321.146 264.5,324.5C 257.45,327.397 250.117,328.897 242.5,329C 247.416,326.659 247.083,326.159 241.5,327.5C 240.448,327.649 239.448,327.483 238.5,327C 243.742,325.189 243.408,324.189 237.5,324C 240.455,319.484 245.121,316.818 251.5,316C 250.062,315.781 248.729,315.281 247.5,314.5C 249.396,313.534 251.396,313.201 253.5,313.5 Z"/></g>
<g><path style="opacity:0.951" fill="#33a7ff" d="M 552.5,313.5 C 565.184,320.528 577.85,327.528 590.5,334.5C 590.5,335.5 590.5,336.5 590.5,337.5C 577.85,344.472 565.184,351.472 552.5,358.5C 552.5,343.5 552.5,328.5 552.5,313.5 Z"/></g>
<g><path style="opacity:1" fill="#b2cddd" d="M 214.5,337.5 C 207.364,339.93 200.03,342.097 192.5,344C 174.618,353.433 157.285,363.6 140.5,374.5C 153.242,359.421 165.242,343.755 176.5,327.5C 179.339,325.58 182.339,323.913 185.5,322.5C 194.479,328.807 204.145,333.807 214.5,337.5 Z"/></g>
<g><path style="opacity:0.996" fill="#e1e6eb" d="M 264.5,324.5 C 272.681,325.682 281.014,325.682 289.5,324.5C 289.631,325.376 289.298,326.043 288.5,326.5C 227.5,362.333 166.5,398.167 105.5,434C 101.033,437.465 96.8666,441.298 93,445.5C 91.8333,443.667 90.3333,442.167 88.5,441C 62.6692,426.252 37.0025,411.252 11.5,396C 8.43881,393.965 5.10547,392.799 1.5,392.5C 18.7983,382.849 36.1316,373.182 53.5,363.5C 61.8177,366.992 69.8177,370.992 77.5,375.5C 74.8686,380.306 74.8686,385.139 77.5,390C 79.2746,391.439 81.2746,392.439 83.5,393C 89.8617,393.653 96.195,393.487 102.5,392.5C 100.492,394.268 98.3256,395.934 96,397.5C 95.5172,398.448 95.3505,399.448 95.5,400.5C 100.844,400.666 106.177,400.499 111.5,400C 119.986,396.919 128.319,393.586 136.5,390C 137.192,385.169 137.859,380.336 138.5,375.5C 139.167,375.167 139.833,374.833 140.5,374.5C 157.285,363.6 174.618,353.433 192.5,344C 200.03,342.097 207.364,339.93 214.5,337.5C 219.267,337.809 223.934,337.309 228.5,336C 233.24,333.64 237.574,330.807 241.5,327.5C 247.083,326.159 247.416,326.659 242.5,329C 250.117,328.897 257.45,327.397 264.5,324.5 Z"/></g>
<g><path style="opacity:0.995" fill="#97d2fe" d="M 311.5,333.5 C 309.504,388.49 308.837,443.823 309.5,499.5C 303.366,503.404 297.032,507.071 290.5,510.5C 290.831,481.662 290.498,452.995 289.5,424.5C 290.331,418.521 290.997,412.521 291.5,406.5C 291.5,405.5 291.5,404.5 291.5,403.5C 295.801,381.319 299.468,358.986 302.5,336.5C 304.1,335.356 305.767,334.189 307.5,333C 309.066,332.235 310.399,332.402 311.5,333.5 Z"/></g>
<g><path style="opacity:0.995" fill="#92cfff" d="M 311.5,333.5 C 317.367,336.596 323.033,339.929 328.5,343.5C 327.501,391.997 327.168,440.664 327.5,489.5C 321.5,492.833 315.5,496.167 309.5,499.5C 308.837,443.823 309.504,388.49 311.5,333.5 Z"/></g>
<g><path style="opacity:1" fill="#0d81e0" d="M 302.5,336.5 C 299.468,358.986 295.801,381.319 291.5,403.5C 263.968,419.432 236.302,435.098 208.5,450.5C 204.858,436.597 201.524,422.597 198.5,408.5C 229.689,390.828 261.022,373.328 292.5,356C 295.507,353.834 297.507,351.001 298.5,347.5C 298.148,344.783 296.815,342.783 294.5,341.5C 296.794,339.347 299.46,337.68 302.5,336.5 Z"/></g>
<g><path style="opacity:0.995" fill="#adc6db" d="M 294.5,341.5 C 296.815,342.783 298.148,344.783 298.5,347.5C 297.507,351.001 295.507,353.834 292.5,356C 261.022,373.328 229.689,390.828 198.5,408.5C 187.697,414.402 177.031,420.569 166.5,427C 180.44,435.782 194.44,443.615 208.5,450.5C 236.302,435.098 263.968,419.432 291.5,403.5C 291.5,404.5 291.5,405.5 291.5,406.5C 263.803,422.01 236.469,438.01 209.5,454.5C 193.94,446.383 178.607,437.716 163.5,428.5C 155.774,432.356 148.44,436.689 141.5,441.5C 134.348,444.327 127.681,447.994 121.5,452.5C 115.301,454.183 108.968,454.849 102.5,454.5C 166.163,416.332 230.163,378.666 294.5,341.5 Z"/></g>
<g><path style="opacity:1" fill="#b2cddc" d="M 124.5,370.5 C 122.983,370.511 121.816,371.177 121,372.5C 118,376.833 115,381.167 112,385.5C 109.248,388.453 106.082,390.786 102.5,392.5C 96.195,393.487 89.8617,393.653 83.5,393C 81.2746,392.439 79.2746,391.439 77.5,390C 74.8686,385.139 74.8686,380.306 77.5,375.5C 78.8734,375.657 80.2068,375.49 81.5,375C 83.8706,372.294 86.5372,369.961 89.5,368C 90.3802,366.644 90.7135,365.144 90.5,363.5C 91.4345,364.568 91.7678,365.901 91.5,367.5C 96.0672,367.256 100.401,366.09 104.5,364C 115.03,356.637 125.697,349.471 136.5,342.5C 136.833,342.667 137.167,342.833 137.5,343C 132.621,350.589 128.121,358.422 124,366.5C 123.421,367.928 123.588,369.262 124.5,370.5 Z"/></g>
<g><path style="opacity:0.974" fill="#fec4a3" d="M 57.5,352.5 C 61.9334,354.301 66.6001,354.967 71.5,354.5C 76.1667,354.5 80.8333,354.5 85.5,354.5C 87.9395,357.043 89.6062,360.043 90.5,363.5C 90.7135,365.144 90.3802,366.644 89.5,368C 86.5372,369.961 83.8706,372.294 81.5,375C 80.2068,375.49 78.8734,375.657 77.5,375.5C 69.8177,370.992 61.8177,366.992 53.5,363.5C 50.502,360.333 47.6686,357 45,353.5C 44.51,352.207 44.3433,350.873 44.5,349.5C 49.0902,349.476 53.4235,350.476 57.5,352.5 Z"/></g>
<g><path style="opacity:0.994" fill="#88cbff" d="M 328.5,343.5 C 338.096,348.441 347.429,353.775 356.5,359.5C 355.502,396.996 355.168,434.663 355.5,472.5C 346.203,478.152 336.869,483.819 327.5,489.5C 327.168,440.664 327.501,391.997 328.5,343.5 Z"/></g>
<g><path style="opacity:0.993" fill="#81c8ff" d="M 356.5,359.5 C 361.037,361.93 365.37,364.597 369.5,367.5C 368.502,399.996 368.168,432.662 368.5,465.5C 364.299,468.1 359.966,470.434 355.5,472.5C 355.168,434.663 355.502,396.996 356.5,359.5 Z"/></g>
<g><path style="opacity:0.045" fill="#f6d4a2" d="M 38.5,363.5 C 39.525,363.897 39.6917,364.563 39,365.5C 38.5357,364.906 38.369,364.239 38.5,363.5 Z"/></g>
<g><path style="opacity:1" fill="#fdc4a4" d="M 124.5,370.5 C 125.254,373.091 126.921,374.924 129.5,376C 132.507,376.301 135.507,376.135 138.5,375.5C 137.859,380.336 137.192,385.169 136.5,390C 128.319,393.586 119.986,396.919 111.5,400C 106.177,400.499 100.844,400.666 95.5,400.5C 95.3505,399.448 95.5172,398.448 96,397.5C 98.3256,395.934 100.492,394.268 102.5,392.5C 106.082,390.786 109.248,388.453 112,385.5C 115,381.167 118,376.833 121,372.5C 121.816,371.177 122.983,370.511 124.5,370.5 Z"/></g>
<g><path style="opacity:0.991" fill="#79c5ff" d="M 369.5,367.5 C 382.502,374.332 395.168,381.665 407.5,389.5C 406.503,407.326 406.17,425.326 406.5,443.5C 393.833,450.833 381.167,458.167 368.5,465.5C 368.168,432.662 368.502,399.996 369.5,367.5 Z"/></g>
<g><path style="opacity:0.986" fill="#0459da" d="M 498.5,377.5 C 499.069,385.312 499.736,392.979 500.5,400.5C 500.5,403.167 500.5,405.833 500.5,408.5C 494.643,406.187 492.976,402.021 495.5,396C 494.024,390.862 490.69,389.195 485.5,391C 482.798,392.012 480.465,393.512 478.5,395.5C 476.414,391.412 475.081,387.078 474.5,382.5C 474.5,382.167 474.5,381.833 474.5,381.5C 482.046,380.07 489.546,378.07 497,375.5C 497.278,376.416 497.778,377.082 498.5,377.5 Z"/></g>
<g><path style="opacity:0.991" fill="#1c75cf" d="M 474.5,381.5 C 474.5,381.833 474.5,382.167 474.5,382.5C 473.207,383.842 472.374,385.509 472,387.5C 471.757,393.055 470.591,398.389 468.5,403.5C 466.441,406.611 464.608,409.944 463,413.5C 462.297,416.482 462.797,419.149 464.5,421.5C 463.7,423.607 463.033,425.774 462.5,428C 467.791,436.709 470.791,446.209 471.5,456.5C 471.767,472.557 470.934,488.557 469,504.5C 467.591,505.781 466.091,506.781 464.5,507.5C 453.803,510.831 443.47,509.998 433.5,505C 431.365,504.124 430.031,502.624 429.5,500.5C 433.731,502.233 437.231,501.233 440,497.5C 445.814,489.066 449.481,479.733 451,469.5C 451.998,450.438 451.332,431.438 449,412.5C 446.573,401.273 441.406,391.606 433.5,383.5C 433.238,382.022 433.571,380.689 434.5,379.5C 437.443,380.244 440.443,380.744 443.5,381C 453.828,381.5 464.161,381.666 474.5,381.5 Z"/></g>
<g><path style="opacity:1" fill="#014bb3" d="M 474.5,382.5 C 475.081,387.078 476.414,391.412 478.5,395.5C 478.5,395.833 478.5,396.167 478.5,396.5C 477.442,397.6 476.608,398.934 476,400.5C 475.471,405.854 475.638,411.187 476.5,416.5C 473.095,412.705 470.429,408.372 468.5,403.5C 470.591,398.389 471.757,393.055 472,387.5C 472.374,385.509 473.207,383.842 474.5,382.5 Z"/></g>
<g><path style="opacity:0.989" fill="#0358da" d="M 433.5,383.5 C 441.406,391.606 446.573,401.273 449,412.5C 451.332,431.438 451.998,450.438 451,469.5C 449.481,479.733 445.814,489.066 440,497.5C 437.231,501.233 433.731,502.233 429.5,500.5C 429.068,499.29 428.401,498.29 427.5,497.5C 426.603,492.86 426.436,488.194 427,483.5C 429.359,475.931 431.192,468.264 432.5,460.5C 431.529,455.131 431.529,449.797 432.5,444.5C 430.536,440.246 428.869,435.912 427.5,431.5C 430.143,422.365 431.81,413.031 432.5,403.5C 432.5,400.167 432.5,396.833 432.5,393.5C 433.479,390.375 433.813,387.042 433.5,383.5 Z"/></g>
<g><path style="opacity:0.983" fill="#6cbffe" d="M 407.5,389.5 C 415.968,393.901 424.301,398.568 432.5,403.5C 431.81,413.031 430.143,422.365 427.5,431.5C 420.5,435.5 413.5,439.5 406.5,443.5C 406.17,425.326 406.503,407.326 407.5,389.5 Z"/></g>
<g><path style="opacity:0.975" fill="#1b75cf" d="M 500.5,408.5 C 509.021,418.519 514.187,430.186 516,443.5C 517.162,449.798 517.995,456.131 518.5,462.5C 518.5,462.833 518.5,463.167 518.5,463.5C 513.491,464.342 508.824,463.175 504.5,460C 487.845,445.261 481.011,426.761 484,404.5C 482.391,401.593 480.558,398.927 478.5,396.5C 478.5,396.167 478.5,395.833 478.5,395.5C 480.465,393.512 482.798,392.012 485.5,391C 490.69,389.195 494.024,390.862 495.5,396C 492.976,402.021 494.643,406.187 500.5,408.5 Z"/></g>
<g><path style="opacity:1" fill="#1162a9" d="M 478.5,396.5 C 480.558,398.927 482.391,401.593 484,404.5C 481.011,426.761 487.845,445.261 504.5,460C 508.824,463.175 513.491,464.342 518.5,463.5C 519.161,468.316 518.161,472.649 515.5,476.5C 513.37,478.127 511.37,479.96 509.5,482C 506.607,483.149 503.607,483.649 500.5,483.5C 496.507,483.5 492.841,482.5 489.5,480.5C 487.674,478.853 486.34,476.853 485.5,474.5C 485.644,470.625 485.31,466.792 484.5,463C 484.316,461.624 483.649,460.791 482.5,460.5C 483.234,459.292 483.567,457.959 483.5,456.5C 480.956,443.904 478.622,431.237 476.5,418.5C 476.5,417.833 476.5,417.167 476.5,416.5C 475.638,411.187 475.471,405.854 476,400.5C 476.608,398.934 477.442,397.6 478.5,396.5 Z"/></g>
<g><path style="opacity:0.925" fill="#c0d3e8" d="M 468.5,403.5 C 470.429,408.372 473.095,412.705 476.5,416.5C 476.5,417.167 476.5,417.833 476.5,418.5C 475.542,418.047 474.708,417.381 474,416.5C 470.859,418.32 467.692,419.986 464.5,421.5C 462.797,419.149 462.297,416.482 463,413.5C 464.608,409.944 466.441,406.611 468.5,403.5 Z"/></g>
<g><path style="opacity:1" fill="#0d81e1" d="M 291.5,406.5 C 290.997,412.521 290.331,418.521 289.5,424.5C 288.417,430.815 287.25,437.148 286,443.5C 276.354,449.067 266.854,454.734 257.5,460.5C 244.5,467.833 231.5,475.167 218.5,482.5C 217.5,482.5 216.5,482.5 215.5,482.5C 213.5,473.165 211.5,463.832 209.5,454.5C 236.469,438.01 263.803,422.01 291.5,406.5 Z"/></g>
<g><path style="opacity:1" fill="#0f7ece" d="M 198.5,408.5 C 201.524,422.597 204.858,436.597 208.5,450.5C 194.44,443.615 180.44,435.782 166.5,427C 177.031,420.569 187.697,414.402 198.5,408.5 Z"/></g>
<g><path style="opacity:1" fill="#0e7ece" d="M 209.5,454.5 C 211.5,463.832 213.5,473.165 215.5,482.5C 216.5,482.5 217.5,482.5 218.5,482.5C 217.828,483.267 216.995,483.934 216,484.5C 213.722,483.281 211.555,481.948 209.5,480.5C 199.167,474.5 188.833,468.5 178.5,462.5C 166.302,455.235 153.968,448.235 141.5,441.5C 148.44,436.689 155.774,432.356 163.5,428.5C 178.607,437.716 193.94,446.383 209.5,454.5 Z"/></g>
<g><path style="opacity:0.967" fill="#d0eafe" d="M 141.5,441.5 C 153.968,448.235 166.302,455.235 178.5,462.5C 178.5,470.167 178.5,477.833 178.5,485.5C 159.236,474.891 140.236,463.891 121.5,452.5C 127.681,447.994 134.348,444.327 141.5,441.5 Z"/></g>
<g><path style="opacity:0.989" fill="#a3d7fe" d="M 289.5,424.5 C 290.498,452.995 290.831,481.662 290.5,510.5C 280.366,516.737 270.033,522.737 259.5,528.5C 260.156,505.475 259.49,482.809 257.5,460.5C 266.854,454.734 276.354,449.067 286,443.5C 287.25,437.148 288.417,430.815 289.5,424.5 Z"/></g>
<g><path style="opacity:0.294" fill="#bcc6e3" d="M 471.5,456.5 C 475.5,456.5 479.5,456.5 483.5,456.5C 483.567,457.959 483.234,459.292 482.5,460.5C 479.407,465.918 480.407,470.584 485.5,474.5C 486.34,476.853 487.674,478.853 489.5,480.5C 494.961,493.711 502.628,495.044 512.5,484.5C 514.585,482.316 515.585,479.649 515.5,476.5C 518.161,472.649 519.161,468.316 518.5,463.5C 518.5,463.167 518.5,462.833 518.5,462.5C 530.282,465.786 540.449,471.786 549,480.5C 556.543,493.17 554.376,504.003 542.5,513C 526.416,522.75 509.083,528.583 490.5,530.5C 477.833,530.5 465.167,530.5 452.5,530.5C 432.868,528.677 414.868,522.177 398.5,511C 386.5,499.333 386.5,487.667 398.5,476C 408.701,468.4 420.034,463.234 432.5,460.5C 431.192,468.264 429.359,475.931 427,483.5C 426.436,488.194 426.603,492.86 427.5,497.5C 421.54,498.075 415.874,499.408 410.5,501.5C 409.031,504.102 409.698,506.269 412.5,508C 423.764,515.218 435.764,517.718 448.5,515.5C 453.463,519.546 458.297,519.213 463,514.5C 464.009,512.975 464.509,511.308 464.5,509.5C 464.5,508.833 464.5,508.167 464.5,507.5C 466.091,506.781 467.591,505.781 469,504.5C 470.934,488.557 471.767,472.557 471.5,456.5 Z"/></g>
<g><path style="opacity:1" fill="#0c121e" d="M 482.5,460.5 C 483.649,460.791 484.316,461.624 484.5,463C 485.31,466.792 485.644,470.625 485.5,474.5C 480.407,470.584 479.407,465.918 482.5,460.5 Z"/></g>
<g><path style="opacity:0.984" fill="#b0dcfe" d="M 257.5,460.5 C 259.49,482.809 260.156,505.475 259.5,528.5C 258.833,529.167 258.167,529.833 257.5,530.5C 256.5,530.5 255.5,530.5 254.5,530.5C 239.666,521.248 224.666,512.248 209.5,503.5C 209.5,495.833 209.5,488.167 209.5,480.5C 211.555,481.948 213.722,483.281 216,484.5C 216.995,483.934 217.828,483.267 218.5,482.5C 231.5,475.167 244.5,467.833 257.5,460.5 Z"/></g>
<g><path style="opacity:0.967" fill="#bfe3fe" d="M 178.5,462.5 C 188.833,468.5 199.167,474.5 209.5,480.5C 209.5,488.167 209.5,495.833 209.5,503.5C 198.995,497.749 188.662,491.749 178.5,485.5C 178.5,477.833 178.5,470.167 178.5,462.5 Z"/></g>
<g><path style="opacity:1" fill="#0e1522" d="M 515.5,476.5 C 515.585,479.649 514.585,482.316 512.5,484.5C 510.152,484.67 507.818,485.003 505.5,485.5C 503.443,485.564 501.777,484.898 500.5,483.5C 503.607,483.649 506.607,483.149 509.5,482C 511.37,479.96 513.37,478.127 515.5,476.5 Z"/></g>
<g><path style="opacity:1" fill="#2f3232" d="M 489.5,480.5 C 492.841,482.5 496.507,483.5 500.5,483.5C 501.777,484.898 503.443,485.564 505.5,485.5C 507.818,485.003 510.152,484.67 512.5,484.5C 502.628,495.044 494.961,493.711 489.5,480.5 Z"/></g>
<g><path style="opacity:1" fill="#040a16" d="M 427.5,497.5 C 428.401,498.29 429.068,499.29 429.5,500.5C 430.031,502.624 431.365,504.124 433.5,505C 443.47,509.998 453.803,510.831 464.5,507.5C 464.5,508.167 464.5,508.833 464.5,509.5C 460.68,514.99 455.347,516.99 448.5,515.5C 448.506,512.452 447.506,511.952 445.5,514C 433.563,516.24 422.897,513.574 413.5,506C 411.859,504.871 410.859,503.371 410.5,501.5C 415.874,499.408 421.54,498.075 427.5,497.5 Z"/></g>
<g><path style="opacity:1" fill="#36383a" d="M 410.5,501.5 C 410.859,503.371 411.859,504.871 413.5,506C 422.897,513.574 433.563,516.24 445.5,514C 447.506,511.952 448.506,512.452 448.5,515.5C 435.764,517.718 423.764,515.218 412.5,508C 409.698,506.269 409.031,504.102 410.5,501.5 Z"/></g>
<g><path style="opacity:0.999" fill="#333637" d="M 464.5,509.5 C 464.509,511.308 464.009,512.975 463,514.5C 458.297,519.213 453.463,519.546 448.5,515.5C 455.347,516.99 460.68,514.99 464.5,509.5 Z"/></g>
</svg>
