<?xml version="1.0" encoding="UTF-8"?>
<!DOCTYPE svg PUBLIC "-//W3C//DTD SVG 1.1//EN" "http://www.w3.org/Graphics/SVG/1.1/DTD/svg11.dtd">
<svg xmlns="http://www.w3.org/2000/svg" version="1.1" width="948px" height="816px" style="shape-rendering:geometricPrecision; text-rendering:geometricPrecision; image-rendering:optimizeQuality; fill-rule:evenodd; clip-rule:evenodd" xmlns:xlink="http://www.w3.org/1999/xlink">
<g><path style="opacity:0.997" fill="#f0f9fe" d="M 588.5,-0.5 C 609.167,-0.5 629.833,-0.5 650.5,-0.5C 772.09,10.274 858.59,70.9406 910,181.5C 931.617,228.637 944.117,277.97 947.5,329.5C 947.5,349.5 947.5,369.5 947.5,389.5C 944.859,438.39 932.359,484.723 910,528.5C 869.618,595.967 809.785,630.967 730.5,633.5C 699.775,631.326 669.108,628.493 638.5,625C 573.367,620.293 512.367,633.96 455.5,666C 408.496,693.327 365.162,725.661 325.5,763C 291.386,791.391 252.386,808.891 208.5,815.5C 195.833,815.5 183.167,815.5 170.5,815.5C 100.465,803.228 46.6318,766.895 9,706.5C 5.32575,699.608 2.15908,692.608 -0.5,685.5C -0.5,461.833 -0.5,238.167 -0.5,14.5C 22.7533,92.2281 74.7533,137.061 155.5,149C 192.603,153.413 229.603,152.413 266.5,146C 299.302,142.509 330.302,133.176 359.5,118C 373.064,109.104 386.064,99.4373 398.5,89C 420.518,66.2999 444.851,46.6333 471.5,30C 508.423,11.5201 547.423,1.35348 588.5,-0.5 Z"/></g>
</svg>
