<?xml version="1.0" encoding="UTF-8"?>
<!DOCTYPE svg PUBLIC "-//W3C//DTD SVG 1.1//EN" "http://www.w3.org/Graphics/SVG/1.1/DTD/svg11.dtd">
<svg xmlns="http://www.w3.org/2000/svg" version="1.1" width="1920px" height="807px" style="shape-rendering:geometricPrecision; text-rendering:geometricPrecision; image-rendering:optimizeQuality; fill-rule:evenodd; clip-rule:evenodd" xmlns:xlink="http://www.w3.org/1999/xlink">
<g><path style="opacity:0.993" fill="#f0f9fe" d="M -0.5,-0.5 C 92.5,-0.5 185.5,-0.5 278.5,-0.5C 279.689,13.7221 276.856,27.0555 270,39.5C 263.318,47.594 254.818,52.7606 244.5,55C 229.833,58.3333 215.167,61.6667 200.5,65C 164.021,75.8209 135.187,96.9875 114,128.5C 96.4443,155.944 81.7777,184.944 70,215.5C 60.3522,230.838 46.5189,236.671 28.5,233C 18.0889,230.459 8.4222,226.292 -0.5,220.5C -0.5,146.833 -0.5,73.1667 -0.5,-0.5 Z"/></g>
<g><path style="opacity:0.998" fill="#f0f9fe" d="M 752.5,-0.5 C 1141.5,-0.5 1530.5,-0.5 1919.5,-0.5C 1919.5,198.5 1919.5,397.5 1919.5,596.5C 1866.9,584.786 1818.23,593.953 1773.5,624C 1756.63,635.864 1740.63,648.864 1725.5,663C 1700.86,688.639 1675.86,713.972 1650.5,739C 1637.74,750.427 1624.41,761.093 1610.5,771C 1574.77,789.412 1537.1,801.245 1497.5,806.5C 1484.83,806.5 1472.17,806.5 1459.5,806.5C 1411.7,800.013 1373.87,777.013 1346,737.5C 1324.68,705.24 1309.35,670.24 1300,632.5C 1294.45,604.283 1286.11,576.95 1275,550.5C 1259.21,518.69 1238.04,490.856 1211.5,467C 1176.13,436.143 1137.8,409.477 1096.5,387C 1045.98,360.241 994.315,335.908 941.5,314C 849.604,266.063 791.104,191.563 766,90.5C 758.84,60.5492 754.34,30.2158 752.5,-0.5 Z"/></g>
<g><path style="opacity:0.792" fill="#f0f9fe" d="M 696.5,98.5 C 698.167,98.5 699.833,98.5 701.5,98.5C 701.5,100.5 701.5,102.5 701.5,104.5C 703.167,104.5 704.833,104.5 706.5,104.5C 706.5,106.167 706.5,107.833 706.5,109.5C 704.833,109.5 703.167,109.5 701.5,109.5C 701.5,111.5 701.5,113.5 701.5,115.5C 699.5,115.5 697.5,115.5 695.5,115.5C 695.5,113.5 695.5,111.5 695.5,109.5C 693.833,109.5 692.167,109.5 690.5,109.5C 690.5,107.833 690.5,106.167 690.5,104.5C 692.167,104.5 693.833,104.5 695.5,104.5C 695.325,102.379 695.659,100.379 696.5,98.5 Z"/></g>
<g><path style="opacity:0.919" fill="#f0f9fe" d="M 733.5,126.5 C 747.321,124.82 753.154,130.82 751,144.5C 746.983,151.138 741.15,153.304 733.5,151C 726.862,146.983 724.696,141.15 727,133.5C 728.694,130.642 730.861,128.309 733.5,126.5 Z"/></g>
<g><path style="opacity:0.792" fill="#f0f9fe" d="M 1221.5,642.5 C 1223.17,642.5 1224.83,642.5 1226.5,642.5C 1226.5,644.5 1226.5,646.5 1226.5,648.5C 1228.17,648.5 1229.83,648.5 1231.5,648.5C 1231.5,650.167 1231.5,651.833 1231.5,653.5C 1229.83,653.5 1228.17,653.5 1226.5,653.5C 1226.5,655.5 1226.5,657.5 1226.5,659.5C 1224.5,659.5 1222.5,659.5 1220.5,659.5C 1220.5,657.5 1220.5,655.5 1220.5,653.5C 1218.83,653.5 1217.17,653.5 1215.5,653.5C 1215.5,651.833 1215.5,650.167 1215.5,648.5C 1217.17,648.5 1218.83,648.5 1220.5,648.5C 1220.33,646.379 1220.66,644.379 1221.5,642.5 Z"/></g>
<g><path style="opacity:0.919" fill="#f0f9fe" d="M 1279.5,651.5 C 1293.32,649.82 1299.15,655.82 1297,669.5C 1292.98,676.138 1287.15,678.304 1279.5,676C 1272.86,671.983 1270.7,666.15 1273,658.5C 1274.69,655.642 1276.86,653.309 1279.5,651.5 Z"/></g>
</svg>
