<?xml version="1.0" encoding="UTF-8"?>
<!DOCTYPE svg PUBLIC "-//W3C//DTD SVG 1.1//EN" "http://www.w3.org/Graphics/SVG/1.1/DTD/svg11.dtd">
<svg xmlns="http://www.w3.org/2000/svg" version="1.1" width="1920px" height="538px" style="shape-rendering:geometricPrecision; text-rendering:geometricPrecision; image-rendering:optimizeQuality; fill-rule:evenodd; clip-rule:evenodd" xmlns:xlink="http://www.w3.org/1999/xlink">
<g><path style="opacity:0.051" fill="#f0f9fe" d="M 1.5,-0.5 C 83.5,-0.5 165.5,-0.5 247.5,-0.5C 230.452,13.2162 213.118,26.5496 195.5,39.5C 194.833,39.5 194.167,39.5 193.5,39.5C 128.833,39.5 64.1667,39.5 -0.5,39.5C -0.5,26.8333 -0.5,14.1667 -0.5,1.5C 0.5,1.16667 1.16667,0.5 1.5,-0.5 Z"/></g>
<g><path style="opacity:0.05" fill="#f0f9fe" d="M 1919.5,35.5 C 1919.5,36.8333 1919.5,38.1667 1919.5,39.5C 1919.17,39.5 1918.83,39.5 1918.5,39.5C 1884.83,39.5 1851.17,39.5 1817.5,39.5C 1818.94,38.5714 1820.27,37.4048 1821.5,36C 1854.16,35.5 1886.83,35.3334 1919.5,35.5 Z"/></g>
<g><path style="opacity:1" fill="#0e77fa" d="M -0.5,39.5 C 64.1667,39.5 128.833,39.5 193.5,39.5C 129.139,87.8539 64.4723,135.854 -0.5,183.5C -0.5,135.5 -0.5,87.5 -0.5,39.5 Z"/></g>
<g><path style="opacity:1" fill="#0371fa" d="M 193.5,39.5 C 194.167,39.5 194.833,39.5 195.5,39.5C 286.5,39.5 377.5,39.5 468.5,39.5C 312.381,153.066 156.048,266.399 -0.5,379.5C -0.5,314.167 -0.5,248.833 -0.5,183.5C 64.4723,135.854 129.139,87.8539 193.5,39.5 Z"/></g>
<g><path style="opacity:1" fill="#0f78fa" d="M 468.5,39.5 C 513.833,39.5 559.167,39.5 604.5,39.5C 420.833,172.833 237.167,306.167 53.5,439.5C 35.5,439.5 17.5,439.5 -0.5,439.5C -0.5,419.5 -0.5,399.5 -0.5,379.5C 156.048,266.399 312.381,153.066 468.5,39.5 Z"/></g>
<g><path style="opacity:1" fill="#1a7efa" d="M 604.5,39.5 C 638.5,39.5 672.5,39.5 706.5,39.5C 527.833,172.833 349.167,306.167 170.5,439.5C 131.5,439.5 92.5,439.5 53.5,439.5C 237.167,306.167 420.833,172.833 604.5,39.5 Z"/></g>
<g><path style="opacity:1" fill="#0f77fa" d="M 706.5,39.5 C 751.833,39.5 797.167,39.5 842.5,39.5C 663.833,172.833 485.167,306.167 306.5,439.5C 261.167,439.5 215.833,439.5 170.5,439.5C 349.167,306.167 527.833,172.833 706.5,39.5 Z"/></g>
<g><path style="opacity:1" fill="#0371f9" d="M 842.5,39.5 C 1121.83,39.5 1401.17,39.5 1680.5,39.5C 1592.74,104.222 1504.4,168.222 1415.5,231.5C 1413.72,231.107 1412.05,230.441 1410.5,229.5C 1409.74,227.738 1408.4,226.738 1406.5,226.5C 1405.42,224.413 1403.75,223.08 1401.5,222.5C 1399.25,219.705 1396.58,217.372 1393.5,215.5C 1393.31,213.804 1392.48,212.471 1391,211.5C 1391.55,199.659 1388.05,189.326 1380.5,180.5C 1379.92,178.251 1378.59,176.585 1376.5,175.5C 1376.17,174.5 1375.5,173.833 1374.5,173.5C 1372.19,169.188 1368.85,165.855 1364.5,163.5C 1362.45,160.45 1359.78,158.117 1356.5,156.5C 1355.11,154.11 1353.11,152.443 1350.5,151.5C 1349.42,149.413 1347.75,148.08 1345.5,147.5C 1344.42,145.413 1342.75,144.08 1340.5,143.5C 1339.42,141.413 1337.75,140.08 1335.5,139.5C 1334.42,137.413 1332.75,136.08 1330.5,135.5C 1329.42,133.413 1327.75,132.08 1325.5,131.5C 1323.86,128.507 1321.53,127.507 1318.5,128.5C 1292.35,106.904 1263.69,89.0702 1232.5,75C 1218.8,69.1757 1204.8,68.1757 1190.5,72C 1187.4,72.9354 1185.07,74.7687 1183.5,77.5C 1181.98,77.5106 1180.82,78.1772 1180,79.5C 1174.49,87.522 1170.32,96.1887 1167.5,105.5C 1163.44,107.233 1160.77,110.233 1159.5,114.5C 1158.66,114.842 1158.33,115.508 1158.5,116.5C 1158.8,118.604 1158.47,120.604 1157.5,122.5C 1151.79,126.901 1149.79,132.568 1151.5,139.5C 1146.76,146.987 1143.09,154.987 1140.5,163.5C 1140.31,180.306 1147.64,192.64 1162.5,200.5C 1173.24,207.869 1184.9,213.702 1197.5,218C 1220.36,226.049 1243.7,232.215 1267.5,236.5C 1268.06,237.79 1269.06,238.623 1270.5,239C 1293.1,242.754 1315.76,245.92 1338.5,248.5C 1343.98,249.652 1349.65,249.818 1355.5,249C 1357.72,248.434 1359.72,247.6 1361.5,246.5C 1368.11,245.228 1373.44,241.894 1377.5,236.5C 1380.5,236.5 1383.5,236.5 1386.5,236.5C 1391.93,237.525 1397.27,238.858 1402.5,240.5C 1391.41,249.223 1380.08,257.723 1368.5,266C 1364.64,266.177 1360.98,266.677 1357.5,267.5C 1345.1,268.373 1334.43,273.039 1325.5,281.5C 1315.33,290.017 1308.33,300.684 1304.5,313.5C 1301.91,314.128 1299.58,315.295 1297.5,317C 1285.62,325.765 1273.62,334.265 1261.5,342.5C 1261.17,342.5 1260.83,342.5 1260.5,342.5C 1255.86,337.52 1251.19,332.52 1246.5,327.5C 1252.26,318.645 1254.43,308.979 1253,298.5C 1250.45,289.701 1245.28,283.035 1237.5,278.5C 1221.29,269.247 1206.46,271.247 1193,284.5C 1180.27,302.59 1182.11,319.09 1198.5,334C 1205.38,338.904 1213.05,341.071 1221.5,340.5C 1224.55,340.889 1227.22,340.223 1229.5,338.5C 1232.79,338.353 1235.79,337.353 1238.5,335.5C 1242.53,340.194 1246.86,344.527 1251.5,348.5C 1251.14,350.371 1250.14,351.871 1248.5,353C 1208.41,381.365 1168.75,410.199 1129.5,439.5C 855.167,439.5 580.833,439.5 306.5,439.5C 485.167,306.167 663.833,172.833 842.5,39.5 Z"/></g>
<g><path style="opacity:1" fill="#0f78f9" d="M 1680.5,39.5 C 1726.17,39.5 1771.83,39.5 1817.5,39.5C 1698.31,125.689 1579.15,212.023 1460,298.5C 1459.82,295.635 1459.32,292.969 1458.5,290.5C 1457.2,276.581 1451.87,264.581 1442.5,254.5C 1439.83,249.833 1436.17,246.167 1431.5,243.5C 1430.74,241.738 1429.4,240.738 1427.5,240.5C 1427.03,239.094 1426.03,238.427 1424.5,238.5C 1424.03,237.094 1423.03,236.427 1421.5,236.5C 1421.03,235.094 1420.03,234.427 1418.5,234.5C 1417.69,233.272 1416.69,232.272 1415.5,231.5C 1504.4,168.222 1592.74,104.222 1680.5,39.5 Z"/></g>
<g><path style="opacity:1" fill="#1b7ff9" d="M 1817.5,39.5 C 1851.17,39.5 1884.83,39.5 1918.5,39.5C 1741.5,171.5 1564.5,303.5 1387.5,435.5C 1387.17,435.5 1386.83,435.5 1386.5,435.5C 1348.17,435.667 1309.83,435.5 1271.5,435C 1291.35,420.637 1311.02,406.137 1330.5,391.5C 1339.17,392.833 1347.83,392.833 1356.5,391.5C 1359.83,391.785 1362.83,391.118 1365.5,389.5C 1369.99,388.66 1374.32,387.66 1378.5,386.5C 1382.5,385.833 1386.5,385.167 1390.5,384.5C 1395.46,384.184 1399.8,382.517 1403.5,379.5C 1404.87,379.657 1406.21,379.49 1407.5,379C 1431.29,365.212 1447.79,345.379 1457,319.5C 1458.29,309.879 1458.79,300.212 1458.5,290.5C 1459.32,292.969 1459.82,295.635 1460,298.5C 1579.15,212.023 1698.31,125.689 1817.5,39.5 Z"/></g>
<g><path style="opacity:1" fill="#0f78fa" d="M 1918.5,39.5 C 1918.83,39.5 1919.17,39.5 1919.5,39.5C 1919.5,73.5 1919.5,107.5 1919.5,141.5C 1787.51,238.837 1655.84,336.67 1524.5,435C 1478.83,435.5 1433.17,435.667 1387.5,435.5C 1564.5,303.5 1741.5,171.5 1918.5,39.5 Z"/></g>
<g><path style="opacity:1" fill="#858a91" d="M 1274.5,103.5 C 1260.12,94.6423 1245.12,86.8089 1229.5,80C 1218.65,75.8105 1207.65,74.6438 1196.5,76.5C 1192.32,76.5919 1188.98,78.2586 1186.5,81.5C 1186.17,81.5 1185.83,81.5 1185.5,81.5C 1185.5,80.5 1185.5,79.5 1185.5,78.5C 1197.77,72.8362 1210.43,72.0028 1223.5,76C 1242.06,82.6086 1259.06,91.7752 1274.5,103.5 Z"/></g>
<g><path style="opacity:1" fill="#0371f9" d="M 1274.5,103.5 C 1276.15,105.326 1278.15,106.66 1280.5,107.5C 1283.27,110.605 1286.61,112.938 1290.5,114.5C 1298.21,120.878 1306.21,126.878 1314.5,132.5C 1314.5,132.833 1314.5,133.167 1314.5,133.5C 1314.28,134.675 1314.61,135.675 1315.5,136.5C 1335.03,151.192 1353.53,167.192 1371,184.5C 1378.52,194.805 1380.52,206.139 1377,218.5C 1372.59,229.121 1364.76,235.621 1353.5,238C 1347.83,238.667 1342.17,238.667 1336.5,238C 1315.12,235.159 1293.78,231.992 1272.5,228.5C 1271.27,228.52 1270.27,228.853 1269.5,229.5C 1238.08,224.895 1207.75,216.395 1178.5,204C 1166.86,198.69 1157.36,190.856 1150,180.5C 1148.86,178.257 1148.03,175.924 1147.5,173.5C 1147.27,162.744 1150.27,153.077 1156.5,144.5C 1158.29,143.83 1159.96,143.163 1161.5,142.5C 1162.26,140.738 1163.6,139.738 1165.5,139.5C 1167.41,139.426 1168.58,138.426 1169,136.5C 1170.2,133.274 1170.7,129.941 1170.5,126.5C 1176.15,121.784 1177.98,115.784 1176,108.5C 1175.5,108 1175,107.5 1174.5,107C 1177.07,100.543 1179.57,94.0434 1182,87.5C 1183.05,85.3825 1184.55,83.7158 1186.5,82.5C 1189.74,80.3123 1193.08,78.3123 1196.5,76.5C 1207.65,74.6438 1218.65,75.8105 1229.5,80C 1245.12,86.8089 1260.12,94.6423 1274.5,103.5 Z"/></g>
<g><path style="opacity:1" fill="#dfe0e0" d="M 1314.5,132.5 C 1306.21,126.878 1298.21,120.878 1290.5,114.5C 1287.73,111.395 1284.39,109.062 1280.5,107.5C 1278.15,106.66 1276.15,105.326 1274.5,103.5C 1259.06,91.7752 1242.06,82.6086 1223.5,76C 1210.43,72.0028 1197.77,72.8362 1185.5,78.5C 1183.16,80.0038 1181.33,82.0038 1180,84.5C 1177.65,89.1978 1175.32,93.8644 1173,98.5C 1172.68,96.4473 1173.01,94.4473 1174,92.5C 1176.68,87.1338 1179.84,82.1338 1183.5,77.5C 1194.48,71.412 1206.14,69.912 1218.5,73C 1233.68,77.4216 1248.01,83.755 1261.5,92C 1280.95,103.142 1298.95,116.142 1315.5,131C 1315.43,131.765 1315.1,132.265 1314.5,132.5 Z"/></g>
<g><path style="opacity:1" fill="#4988e3" d="M 1196.5,76.5 C 1193.08,78.3123 1189.74,80.3123 1186.5,82.5C 1186.5,82.1667 1186.5,81.8333 1186.5,81.5C 1188.98,78.2586 1192.32,76.5919 1196.5,76.5 Z"/></g>
<g><path style="opacity:1" fill="#bdc0c4" d="M 1183.5,77.5 C 1179.84,82.1338 1176.68,87.1338 1174,92.5C 1173.01,94.4473 1172.68,96.4473 1173,98.5C 1175.32,93.8644 1177.65,89.1978 1180,84.5C 1181.33,82.0038 1183.16,80.0038 1185.5,78.5C 1185.5,79.5 1185.5,80.5 1185.5,81.5C 1183.55,82.7158 1182.05,84.3825 1181,86.5C 1177.52,93.1409 1174.36,99.8076 1171.5,106.5C 1170.17,106.167 1168.83,105.833 1167.5,105.5C 1170.32,96.1887 1174.49,87.522 1180,79.5C 1180.82,78.1772 1181.98,77.5106 1183.5,77.5 Z"/></g>
<g><path style="opacity:1" fill="#6781a4" d="M 1185.5,81.5 C 1185.83,81.5 1186.17,81.5 1186.5,81.5C 1186.5,81.8333 1186.5,82.1667 1186.5,82.5C 1184.55,83.7158 1183.05,85.3825 1182,87.5C 1179.57,94.0434 1177.07,100.543 1174.5,107C 1175,107.5 1175.5,108 1176,108.5C 1177.98,115.784 1176.15,121.784 1170.5,126.5C 1169.71,131.092 1168.05,135.425 1165.5,139.5C 1163.6,139.738 1162.26,140.738 1161.5,142.5C 1160.5,142.5 1159.5,142.5 1158.5,142.5C 1163.96,138.914 1166.79,133.914 1167,127.5C 1166.5,127 1166,126.5 1165.5,126C 1172.86,122.48 1175.69,116.646 1174,108.5C 1173.01,107.934 1172.17,107.267 1171.5,106.5C 1174.36,99.8076 1177.52,93.1409 1181,86.5C 1182.05,84.3825 1183.55,82.7158 1185.5,81.5 Z"/></g>
<g><path style="opacity:1" fill="#868d98" d="M 1280.5,107.5 C 1284.39,109.062 1287.73,111.395 1290.5,114.5C 1286.61,112.938 1283.27,110.605 1280.5,107.5 Z"/></g>
<g><path style="opacity:1" fill="#444445" d="M 1158.5,116.5 C 1158.33,115.508 1158.66,114.842 1159.5,114.5C 1159.43,114.938 1159.6,115.272 1160,115.5C 1161.04,113.415 1162.54,111.748 1164.5,110.5C 1165.73,113.733 1164.89,116.4 1162,118.5C 1160.7,118.022 1159.53,117.355 1158.5,116.5 Z"/></g>
<g><path style="opacity:1" fill="#84888f" d="M 1318.5,128.5 C 1317.22,129.386 1317.22,130.386 1318.5,131.5C 1335.33,144.913 1351.33,159.246 1366.5,174.5C 1366.5,175.167 1366.17,175.5 1365.5,175.5C 1349.66,159.989 1332.66,145.989 1314.5,133.5C 1314.5,133.167 1314.5,132.833 1314.5,132.5C 1315.1,132.265 1315.43,131.765 1315.5,131C 1298.95,116.142 1280.95,103.142 1261.5,92C 1248.01,83.755 1233.68,77.4216 1218.5,73C 1206.14,69.912 1194.48,71.412 1183.5,77.5C 1185.07,74.7687 1187.4,72.9354 1190.5,72C 1204.8,68.1757 1218.8,69.1757 1232.5,75C 1263.69,89.0702 1292.35,106.904 1318.5,128.5 Z"/></g>
<g><path style="opacity:1" fill="#1a1b1c" d="M 1167.5,105.5 C 1168.83,105.833 1170.17,106.167 1171.5,106.5C 1172.17,107.267 1173.01,107.934 1174,108.5C 1175.69,116.646 1172.86,122.48 1165.5,126C 1166,126.5 1166.5,127 1167,127.5C 1166.79,133.914 1163.96,138.914 1158.5,142.5C 1157.5,142.5 1156.5,142.5 1155.5,142.5C 1154.2,141.512 1152.87,140.512 1151.5,139.5C 1149.79,132.568 1151.79,126.901 1157.5,122.5C 1158.47,120.604 1158.8,118.604 1158.5,116.5C 1159.53,117.355 1160.7,118.022 1162,118.5C 1164.89,116.4 1165.73,113.733 1164.5,110.5C 1162.54,111.748 1161.04,113.415 1160,115.5C 1159.6,115.272 1159.43,114.938 1159.5,114.5C 1160.77,110.233 1163.44,107.233 1167.5,105.5 Z"/></g>
<g><path style="opacity:1" fill="#292a2c" d="M 1325.5,131.5 C 1326.58,133.587 1328.25,134.92 1330.5,135.5C 1331.58,137.587 1333.25,138.92 1335.5,139.5C 1336.58,141.587 1338.25,142.92 1340.5,143.5C 1341.58,145.587 1343.25,146.92 1345.5,147.5C 1346.58,149.587 1348.25,150.92 1350.5,151.5C 1351.87,153.86 1353.87,155.527 1356.5,156.5C 1358.52,159.52 1361.19,161.854 1364.5,163.5C 1367.45,167.119 1370.79,170.452 1374.5,173.5C 1375.5,173.833 1376.17,174.5 1376.5,175.5C 1377.08,177.749 1378.41,179.415 1380.5,180.5C 1383.14,185.235 1385.31,190.235 1387,195.5C 1388.09,200.78 1388.59,206.113 1388.5,211.5C 1386.19,218.209 1383.36,224.875 1380,231.5C 1379.17,233 1378,234.167 1376.5,235C 1380.03,235.179 1383.36,235.679 1386.5,236.5C 1383.5,236.5 1380.5,236.5 1377.5,236.5C 1372.43,240.237 1367.09,243.57 1361.5,246.5C 1353.95,248.202 1346.29,248.868 1338.5,248.5C 1315.76,245.92 1293.1,242.754 1270.5,239C 1269.06,238.623 1268.06,237.79 1267.5,236.5C 1267.5,235.833 1267.5,235.167 1267.5,234.5C 1290.76,239.037 1314.26,242.037 1338,243.5C 1343.89,243.532 1349.72,243.032 1355.5,242C 1359.78,241.195 1363.44,239.362 1366.5,236.5C 1377.17,229.333 1382.5,219.167 1382.5,206C 1381.74,193.103 1376.41,182.603 1366.5,174.5C 1351.33,159.246 1335.33,144.913 1318.5,131.5C 1317.22,130.386 1317.22,129.386 1318.5,128.5C 1321.53,127.507 1323.86,128.507 1325.5,131.5 Z"/></g>
<g><path style="opacity:1" fill="#617998" d="M 1325.5,131.5 C 1327.75,132.08 1329.42,133.413 1330.5,135.5C 1328.25,134.92 1326.58,133.587 1325.5,131.5 Z"/></g>
<g><path style="opacity:1" fill="#4388e9" d="M 1170.5,126.5 C 1170.7,129.941 1170.2,133.274 1169,136.5C 1168.58,138.426 1167.41,139.426 1165.5,139.5C 1168.05,135.425 1169.71,131.092 1170.5,126.5 Z"/></g>
<g><path style="opacity:1" fill="#617896" d="M 1330.5,135.5 C 1332.75,136.08 1334.42,137.413 1335.5,139.5C 1333.25,138.92 1331.58,137.587 1330.5,135.5 Z"/></g>
<g><path style="opacity:1" fill="#617895" d="M 1335.5,139.5 C 1337.75,140.08 1339.42,141.413 1340.5,143.5C 1338.25,142.92 1336.58,141.587 1335.5,139.5 Z"/></g>
<g><path style="opacity:1" fill="#0371fa" d="M 1919.5,141.5 C 1919.5,207.833 1919.5,274.167 1919.5,340.5C 1873.77,373.023 1828.44,406.023 1783.5,439.5C 1782.5,439.5 1781.5,439.5 1780.5,439.5C 1647.83,439.5 1515.17,439.5 1382.5,439.5C 1383.53,437.806 1384.86,436.473 1386.5,435.5C 1386.83,435.5 1387.17,435.5 1387.5,435.5C 1433.17,435.667 1478.83,435.5 1524.5,435C 1655.84,336.67 1787.51,238.837 1919.5,141.5 Z"/></g>
<g><path style="opacity:1" fill="#617795" d="M 1340.5,143.5 C 1342.75,144.08 1344.42,145.413 1345.5,147.5C 1343.25,146.92 1341.58,145.587 1340.5,143.5 Z"/></g>
<g><path style="opacity:1" fill="#627a9a" d="M 1345.5,147.5 C 1347.75,148.08 1349.42,149.413 1350.5,151.5C 1348.25,150.92 1346.58,149.587 1345.5,147.5 Z"/></g>
<g><path style="opacity:1" fill="#5f8bca" d="M 1155.5,142.5 C 1156.5,142.5 1157.5,142.5 1158.5,142.5C 1159.5,142.5 1160.5,142.5 1161.5,142.5C 1159.96,143.163 1158.29,143.83 1156.5,144.5C 1150.27,153.077 1147.27,162.744 1147.5,173.5C 1146.84,171.866 1146.51,170.033 1146.5,168C 1146.65,164.06 1147.32,160.227 1148.5,156.5C 1150.31,151.55 1152.64,146.883 1155.5,142.5 Z"/></g>
<g><path style="opacity:1" fill="#5d718b" d="M 1350.5,151.5 C 1353.11,152.443 1355.11,154.11 1356.5,156.5C 1353.87,155.527 1351.87,153.86 1350.5,151.5 Z"/></g>
<g><path style="opacity:1" fill="#5e728d" d="M 1356.5,156.5 C 1359.78,158.117 1362.45,160.45 1364.5,163.5C 1361.19,161.854 1358.52,159.52 1356.5,156.5 Z"/></g>
<g><path style="opacity:1" fill="#5e799e" d="M 1364.5,163.5 C 1368.85,165.855 1372.19,169.188 1374.5,173.5C 1370.79,170.452 1367.45,167.119 1364.5,163.5 Z"/></g>
<g><path style="opacity:1" fill="#5c718b" d="M 1376.5,175.5 C 1378.59,176.585 1379.92,178.251 1380.5,180.5C 1378.41,179.415 1377.08,177.749 1376.5,175.5 Z"/></g>
<g><path style="opacity:1" fill="#8d9094" d="M 1140.5,163.5 C 1140.82,172.283 1143.65,180.283 1149,187.5C 1153.4,192.064 1157.9,196.398 1162.5,200.5C 1147.64,192.64 1140.31,180.306 1140.5,163.5 Z"/></g>
<g><path style="opacity:1" fill="#dfdfe0" d="M 1151.5,139.5 C 1152.87,140.512 1154.2,141.512 1155.5,142.5C 1152.64,146.883 1150.31,151.55 1148.5,156.5C 1141.4,167.266 1142.23,177.599 1151,187.5C 1160.07,197.286 1170.9,204.453 1183.5,209C 1210.66,219.624 1238.66,227.124 1267.5,231.5C 1267.5,232.5 1267.5,233.5 1267.5,234.5C 1230.68,228.551 1195.68,217.217 1162.5,200.5C 1157.9,196.398 1153.4,192.064 1149,187.5C 1143.65,180.283 1140.82,172.283 1140.5,163.5C 1143.09,154.987 1146.76,146.987 1151.5,139.5 Z"/></g>
<g><path style="opacity:1" fill="#6481aa" d="M 1380.5,180.5 C 1388.05,189.326 1391.55,199.659 1391,211.5C 1392.48,212.471 1393.31,213.804 1393.5,215.5C 1391.83,214.167 1390.17,212.833 1388.5,211.5C 1388.59,206.113 1388.09,200.78 1387,195.5C 1385.31,190.235 1383.14,185.235 1380.5,180.5 Z"/></g>
<g><path style="opacity:1" fill="#717273" d="M 1366.5,174.5 C 1376.41,182.603 1381.74,193.103 1382.5,206C 1382.5,219.167 1377.17,229.333 1366.5,236.5C 1385.43,215.862 1385.1,195.529 1365.5,175.5C 1366.17,175.5 1366.5,175.167 1366.5,174.5 Z"/></g>
<g><path style="opacity:1" fill="#85898f" d="M 1162.5,200.5 C 1195.68,217.217 1230.68,228.551 1267.5,234.5C 1267.5,235.167 1267.5,235.833 1267.5,236.5C 1243.7,232.215 1220.36,226.049 1197.5,218C 1184.9,213.702 1173.24,207.869 1162.5,200.5 Z"/></g>
<g><path style="opacity:1" fill="#5b6f89" d="M 1393.5,215.5 C 1396.58,217.372 1399.25,219.705 1401.5,222.5C 1399.4,221.588 1397.4,220.421 1395.5,219C 1394.18,218.184 1393.51,217.017 1393.5,215.5 Z"/></g>
<g><path style="opacity:1" fill="#5f7798" d="M 1401.5,222.5 C 1403.75,223.08 1405.42,224.413 1406.5,226.5C 1404.25,225.92 1402.58,224.587 1401.5,222.5 Z"/></g>
<g><path style="opacity:1" fill="#858990" d="M 1148.5,156.5 C 1147.32,160.227 1146.65,164.06 1146.5,168C 1146.51,170.033 1146.84,171.866 1147.5,173.5C 1148.03,175.924 1148.86,178.257 1150,180.5C 1157.36,190.856 1166.86,198.69 1178.5,204C 1207.75,216.395 1238.08,224.895 1269.5,229.5C 1269.39,230.117 1269.06,230.617 1268.5,231C 1296.81,237.711 1325.47,241.045 1354.5,241C 1358.62,239.771 1362.62,238.271 1366.5,236.5C 1363.44,239.362 1359.78,241.195 1355.5,242C 1349.72,243.032 1343.89,243.532 1338,243.5C 1314.26,242.037 1290.76,239.037 1267.5,234.5C 1267.5,233.5 1267.5,232.5 1267.5,231.5C 1238.66,227.124 1210.66,219.624 1183.5,209C 1170.9,204.453 1160.07,197.286 1151,187.5C 1142.23,177.599 1141.4,167.266 1148.5,156.5 Z"/></g>
<g><path style="opacity:1" fill="#617fa8" d="M 1406.5,226.5 C 1408.4,226.738 1409.74,227.738 1410.5,229.5C 1408.6,229.262 1407.26,228.262 1406.5,226.5 Z"/></g>
<g><path style="opacity:1" fill="#313439" d="M 1314.5,133.5 C 1332.66,145.989 1349.66,159.989 1365.5,175.5C 1385.1,195.529 1385.43,215.862 1366.5,236.5C 1362.62,238.271 1358.62,239.771 1354.5,241C 1325.47,241.045 1296.81,237.711 1268.5,231C 1269.06,230.617 1269.39,230.117 1269.5,229.5C 1270.27,228.853 1271.27,228.52 1272.5,228.5C 1293.78,231.992 1315.12,235.159 1336.5,238C 1342.17,238.667 1347.83,238.667 1353.5,238C 1364.76,235.621 1372.59,229.121 1377,218.5C 1380.52,206.139 1378.52,194.805 1371,184.5C 1353.53,167.192 1335.03,151.192 1315.5,136.5C 1314.61,135.675 1314.28,134.675 1314.5,133.5 Z"/></g>
<g><path style="opacity:1" fill="#0b0c0e" d="M 1388.5,211.5 C 1390.17,212.833 1391.83,214.167 1393.5,215.5C 1393.51,217.017 1394.18,218.184 1395.5,219C 1397.4,220.421 1399.4,221.588 1401.5,222.5C 1402.58,224.587 1404.25,225.92 1406.5,226.5C 1407.26,228.262 1408.6,229.262 1410.5,229.5C 1412.42,232.138 1415.08,233.805 1418.5,234.5C 1418.97,235.906 1419.97,236.573 1421.5,236.5C 1421.97,237.906 1422.97,238.573 1424.5,238.5C 1424.97,239.906 1425.97,240.573 1427.5,240.5C 1428.26,242.262 1429.6,243.262 1431.5,243.5C 1434.83,247.5 1438.5,251.167 1442.5,254.5C 1460.19,280.66 1462.02,307.993 1448,336.5C 1437.34,355.228 1422.51,369.562 1403.5,379.5C 1398.99,380.931 1394.66,382.598 1390.5,384.5C 1386.5,385.167 1382.5,385.833 1378.5,386.5C 1373.69,385.965 1369.35,386.965 1365.5,389.5C 1362.27,389.676 1359.27,390.343 1356.5,391.5C 1347.83,392.833 1339.17,392.833 1330.5,391.5C 1299.92,384.713 1273.58,370.38 1251.5,348.5C 1246.86,344.527 1242.53,340.194 1238.5,335.5C 1238.5,334.833 1238.17,334.5 1237.5,334.5C 1236.5,332.833 1235.17,331.5 1233.5,330.5C 1233.33,329.508 1233.66,328.842 1234.5,328.5C 1251.22,345.395 1269.56,360.228 1289.5,373C 1293.4,375.119 1297.4,376.952 1301.5,378.5C 1310.81,383.489 1320.81,386.489 1331.5,387.5C 1353.18,390.941 1372.18,385.275 1388.5,370.5C 1395.25,365.086 1400.92,358.753 1405.5,351.5C 1418.55,325.643 1414.22,303.143 1392.5,284C 1387.37,280.101 1381.7,277.268 1375.5,275.5C 1367.69,272.431 1359.69,271.431 1351.5,272.5C 1347.38,272.697 1343.38,273.53 1339.5,275C 1334.66,276.921 1329.99,279.088 1325.5,281.5C 1334.43,273.039 1345.1,268.373 1357.5,267.5C 1368.76,266.235 1379.1,268.568 1388.5,274.5C 1388.97,275.906 1389.97,276.573 1391.5,276.5C 1394.49,278.003 1397.16,280.003 1399.5,282.5C 1402.17,285.833 1405.17,288.833 1408.5,291.5C 1421.29,311.697 1421.79,332.364 1410,353.5C 1406.09,360.242 1401.26,366.242 1395.5,371.5C 1379.04,381.545 1380.04,383.045 1398.5,376C 1407.21,372.654 1414.88,367.821 1421.5,361.5C 1443.58,342.656 1453.58,318.656 1451.5,289.5C 1451.77,287.901 1451.43,286.568 1450.5,285.5C 1444.6,261.756 1430.44,244.756 1408,234.5C 1407.28,235.044 1406.78,235.711 1406.5,236.5C 1406.17,236.5 1405.83,236.5 1405.5,236.5C 1405.5,237.833 1405.5,239.167 1405.5,240.5C 1404.5,240.5 1403.5,240.5 1402.5,240.5C 1397.27,238.858 1391.93,237.525 1386.5,236.5C 1383.36,235.679 1380.03,235.179 1376.5,235C 1378,234.167 1379.17,233 1380,231.5C 1383.36,224.875 1386.19,218.209 1388.5,211.5 Z"/></g>
<g><path style="opacity:1" fill="#2a2b2c" d="M 1405.5,236.5 C 1398.38,235.185 1391.38,233.351 1384.5,231C 1383.72,229.23 1383.89,227.397 1385,225.5C 1387.86,224.911 1390.69,225.411 1393.5,227C 1396.5,229.503 1399.84,231.503 1403.5,233C 1404.82,233.816 1405.49,234.983 1405.5,236.5 Z"/></g>
<g><path style="opacity:1" fill="#5a6c85" d="M 1410.5,229.5 C 1412.05,230.441 1413.72,231.107 1415.5,231.5C 1416.69,232.272 1417.69,233.272 1418.5,234.5C 1415.08,233.805 1412.42,232.138 1410.5,229.5 Z"/></g>
<g><path style="opacity:1" fill="#545556" d="M 1450.5,285.5 C 1450.65,286.552 1450.48,287.552 1450,288.5C 1446.43,271.268 1437.59,257.435 1423.5,247C 1417.77,243.475 1412.1,239.975 1406.5,236.5C 1406.78,235.711 1407.28,235.044 1408,234.5C 1430.44,244.756 1444.6,261.756 1450.5,285.5 Z"/></g>
<g><path style="opacity:1" fill="#607389" d="M 1418.5,234.5 C 1420.03,234.427 1421.03,235.094 1421.5,236.5C 1419.97,236.573 1418.97,235.906 1418.5,234.5 Z"/></g>
<g><path style="opacity:1" fill="#5d85bc" d="M 1377.5,236.5 C 1373.44,241.894 1368.11,245.228 1361.5,246.5C 1367.09,243.57 1372.43,240.237 1377.5,236.5 Z"/></g>
<g><path style="opacity:1" fill="#2b2c2f" d="M 1405.5,236.5 C 1405.83,236.5 1406.17,236.5 1406.5,236.5C 1412.1,239.975 1417.77,243.475 1423.5,247C 1437.59,257.435 1446.43,271.268 1450,288.5C 1450.48,287.552 1450.65,286.552 1450.5,285.5C 1451.43,286.568 1451.77,287.901 1451.5,289.5C 1451.37,317.719 1441.04,341.553 1420.5,361C 1420.73,361.399 1421.06,361.565 1421.5,361.5C 1414.88,367.821 1407.21,372.654 1398.5,376C 1380.04,383.045 1379.04,381.545 1395.5,371.5C 1397.15,371.34 1398.49,370.674 1399.5,369.5C 1419.54,359.956 1434.04,344.956 1443,324.5C 1444.9,319.306 1446.07,313.973 1446.5,308.5C 1449.72,275.596 1436.05,252.929 1405.5,240.5C 1405.5,239.167 1405.5,237.833 1405.5,236.5 Z"/></g>
<g><path style="opacity:1" fill="#5e7085" d="M 1421.5,236.5 C 1423.03,236.427 1424.03,237.094 1424.5,238.5C 1422.97,238.573 1421.97,237.906 1421.5,236.5 Z"/></g>
<g><path style="opacity:1" fill="#60748d" d="M 1424.5,238.5 C 1426.03,238.427 1427.03,239.094 1427.5,240.5C 1425.97,240.573 1424.97,239.906 1424.5,238.5 Z"/></g>
<g><path style="opacity:1" fill="#1077f8" d="M 1402.5,240.5 C 1403.5,240.5 1404.5,240.5 1405.5,240.5C 1436.05,252.929 1449.72,275.596 1446.5,308.5C 1437.94,314.367 1429.44,320.367 1421,326.5C 1420.82,322.312 1420.32,318.312 1419.5,314.5C 1418.22,305.602 1414.55,297.936 1408.5,291.5C 1406.5,287.5 1403.5,284.5 1399.5,282.5C 1397.16,280.003 1394.49,278.003 1391.5,276.5C 1391.03,275.094 1390.03,274.427 1388.5,274.5C 1379.1,268.568 1368.76,266.235 1357.5,267.5C 1360.98,266.677 1364.64,266.177 1368.5,266C 1380.08,257.723 1391.41,249.223 1402.5,240.5 Z"/></g>
<g><path style="opacity:1" fill="#60799a" d="M 1427.5,240.5 C 1429.4,240.738 1430.74,241.738 1431.5,243.5C 1429.6,243.262 1428.26,242.262 1427.5,240.5 Z"/></g>
<g><path style="opacity:1" fill="#6280aa" d="M 1431.5,243.5 C 1436.17,246.167 1439.83,249.833 1442.5,254.5C 1438.5,251.167 1434.83,247.5 1431.5,243.5 Z"/></g>
<g><path style="opacity:1" fill="#5582be" d="M 1361.5,246.5 C 1359.72,247.6 1357.72,248.434 1355.5,249C 1349.65,249.818 1343.98,249.652 1338.5,248.5C 1346.29,248.868 1353.95,248.202 1361.5,246.5 Z"/></g>
<g><path style="opacity:1" fill="#626263" d="M 1351.5,272.5 C 1352.55,272.351 1353.55,272.517 1354.5,273C 1344.66,274.427 1335.99,278.26 1328.5,284.5C 1311.84,298.641 1304.67,316.641 1307,338.5C 1309.12,346.058 1312.28,353.058 1316.5,359.5C 1310.05,353.271 1306.22,345.604 1305,336.5C 1304.83,329.654 1304.33,322.987 1303.5,316.5C 1303.56,315.391 1303.89,314.391 1304.5,313.5C 1308.33,300.684 1315.33,290.017 1325.5,281.5C 1329.99,279.088 1334.66,276.921 1339.5,275C 1343.38,273.53 1347.38,272.697 1351.5,272.5 Z"/></g>
<g><path style="opacity:1" fill="#5c7495" d="M 1388.5,274.5 C 1390.03,274.427 1391.03,275.094 1391.5,276.5C 1389.97,276.573 1388.97,275.906 1388.5,274.5 Z"/></g>
<g><path style="opacity:1" fill="#1078f9" d="M 1405.5,338.5 C 1388.55,350.12 1371.88,362.12 1355.5,374.5C 1349.8,373.41 1344.46,371.41 1339.5,368.5C 1339.03,367.094 1338.03,366.427 1336.5,366.5C 1334.49,364.503 1332.15,362.836 1329.5,361.5C 1327.83,359.167 1325.83,357.167 1323.5,355.5C 1311.02,335.829 1311.52,316.496 1325,297.5C 1330.1,291.895 1335.6,286.895 1341.5,282.5C 1358.18,274.861 1374.18,276.361 1389.5,287C 1407.24,300.376 1412.57,317.543 1405.5,338.5 Z"/></g>
<g><path style="opacity:1" fill="#17191c" d="M 1237.5,278.5 C 1253.43,292.596 1255.76,308.596 1244.5,326.5C 1242.5,326.5 1241.5,325.5 1241.5,323.5C 1246.73,314.833 1247.73,305.833 1244.5,296.5C 1240.23,285.571 1232.23,279.571 1220.5,278.5C 1218.71,277.691 1216.71,277.191 1214.5,277C 1216.83,276.667 1219.17,276.333 1221.5,276C 1214.28,274.595 1207.62,275.929 1201.5,280C 1200.3,280.654 1200.3,281.154 1201.5,281.5C 1202.42,280.873 1203.42,280.539 1204.5,280.5C 1197.82,284.485 1192.99,290.152 1190,297.5C 1188.39,302.61 1188.22,307.61 1189.5,312.5C 1191.15,322.807 1196.81,329.807 1206.5,333.5C 1205.55,335.758 1206.55,336.925 1209.5,337C 1217.2,338.334 1224.53,337.334 1231.5,334C 1232.25,333.329 1232.59,332.496 1232.5,331.5C 1233.17,331.5 1233.5,331.167 1233.5,330.5C 1235.17,331.5 1236.5,332.833 1237.5,334.5C 1234.52,335.326 1231.85,336.659 1229.5,338.5C 1226.57,338.565 1223.91,339.232 1221.5,340.5C 1213.05,341.071 1205.38,338.904 1198.5,334C 1182.11,319.09 1180.27,302.59 1193,284.5C 1206.46,271.247 1221.29,269.247 1237.5,278.5 Z"/></g>
<g><path style="opacity:1" fill="#e5e5e5" d="M 1220.5,278.5 C 1232.23,279.571 1240.23,285.571 1244.5,296.5C 1244.76,298.989 1243.76,300.656 1241.5,301.5C 1240.19,298.536 1238.19,296.203 1235.5,294.5C 1228.69,285.507 1219.69,282.341 1208.5,285C 1197.72,290.048 1192.72,298.548 1193.5,310.5C 1192.4,311.6 1191.06,312.267 1189.5,312.5C 1188.22,307.61 1188.39,302.61 1190,297.5C 1192.99,290.152 1197.82,284.485 1204.5,280.5C 1209.66,278.817 1215,278.15 1220.5,278.5 Z"/></g>
<g><path style="opacity:1" fill="#575757" d="M 1220.5,278.5 C 1215,278.15 1209.66,278.817 1204.5,280.5C 1203.42,280.539 1202.42,280.873 1201.5,281.5C 1200.3,281.154 1200.3,280.654 1201.5,280C 1207.62,275.929 1214.28,274.595 1221.5,276C 1219.17,276.333 1216.83,276.667 1214.5,277C 1216.71,277.191 1218.71,277.691 1220.5,278.5 Z"/></g>
<g><path style="opacity:1" fill="#627fa5" d="M 1399.5,282.5 C 1403.5,284.5 1406.5,287.5 1408.5,291.5C 1405.17,288.833 1402.17,285.833 1399.5,282.5 Z"/></g>
<g><path style="opacity:1" fill="#1b1b1b" d="M 1235.5,294.5 C 1241.37,308.21 1238.03,319.044 1225.5,327C 1220.58,328.25 1215.58,328.75 1210.5,328.5C 1201.33,325.667 1195.66,319.667 1193.5,310.5C 1192.72,298.548 1197.72,290.048 1208.5,285C 1219.69,282.341 1228.69,285.507 1235.5,294.5 Z"/></g>
<g><path style="opacity:1" fill="#6e6e6e" d="M 1209.5,286.5 C 1213.51,286.334 1217.51,286.501 1221.5,287C 1224,287.412 1226,288.578 1227.5,290.5C 1227.17,290.833 1226.83,291.167 1226.5,291.5C 1220.94,288.494 1215.1,287.827 1209,289.5C 1208.5,289.167 1208,288.833 1207.5,288.5C 1208.24,287.818 1208.91,287.151 1209.5,286.5 Z"/></g>
<g><path style="opacity:1" fill="#e3e3e3" d="M 1219.5,290.5 C 1218.08,291.451 1216.41,291.784 1214.5,291.5C 1214.79,296.291 1214.79,300.958 1214.5,305.5C 1214.17,305.5 1213.83,305.5 1213.5,305.5C 1209.87,303.695 1206.37,301.695 1203,299.5C 1201.89,300.712 1201.39,300.379 1201.5,298.5C 1205.75,292.045 1211.75,289.378 1219.5,290.5 Z"/></g>
<g><path style="opacity:1" fill="#a8a8a7" d="M 1219.5,290.5 C 1232.47,295.903 1235.64,304.903 1229,317.5C 1228.29,318.381 1227.46,319.047 1226.5,319.5C 1224.6,314.595 1221.26,310.929 1216.5,308.5C 1217.91,306.402 1217.25,305.402 1214.5,305.5C 1214.79,300.958 1214.79,296.291 1214.5,291.5C 1216.41,291.784 1218.08,291.451 1219.5,290.5 Z"/></g>
<g><path style="opacity:1" fill="#668abb" d="M 1442.5,254.5 C 1451.87,264.581 1457.2,276.581 1458.5,290.5C 1458.79,300.212 1458.29,309.879 1457,319.5C 1447.79,345.379 1431.29,365.212 1407.5,379C 1406.21,379.49 1404.87,379.657 1403.5,379.5C 1422.51,369.562 1437.34,355.228 1448,336.5C 1462.02,307.993 1460.19,280.66 1442.5,254.5 Z"/></g>
<g><path style="opacity:1" fill="#6786ae" d="M 1408.5,291.5 C 1414.55,297.936 1418.22,305.602 1419.5,314.5C 1420.84,327.808 1418.67,340.475 1413,352.5C 1408.67,358.33 1404.17,363.996 1399.5,369.5C 1398.49,370.674 1397.15,371.34 1395.5,371.5C 1401.26,366.242 1406.09,360.242 1410,353.5C 1421.79,332.364 1421.29,311.697 1408.5,291.5 Z"/></g>
<g><path style="opacity:1" fill="#bebebe" d="M 1201.5,298.5 C 1201.39,300.379 1201.89,300.712 1203,299.5C 1206.37,301.695 1209.87,303.695 1213.5,305.5C 1213.74,306.791 1213.4,307.791 1212.5,308.5C 1208.98,306.532 1204.98,305.532 1200.5,305.5C 1200.79,307.735 1200.46,309.735 1199.5,311.5C 1197.94,306.777 1198.6,302.444 1201.5,298.5 Z"/></g>
<g><path style="opacity:1" fill="#bcbebf" d="M 1244.5,296.5 C 1247.73,305.833 1246.73,314.833 1241.5,323.5C 1241.17,323.5 1240.83,323.5 1240.5,323.5C 1239.86,322.518 1239.19,321.518 1238.5,320.5C 1241.09,314.45 1242.09,308.117 1241.5,301.5C 1243.76,300.656 1244.76,298.989 1244.5,296.5 Z"/></g>
<g><path style="opacity:1" fill="#9f9f9f" d="M 1212.5,308.5 C 1209.86,309.806 1207.02,310.806 1204,311.5C 1203.59,311.043 1203.09,310.709 1202.5,310.5C 1201.83,311.949 1201.16,313.282 1200.5,314.5C 1199.89,313.609 1199.56,312.609 1199.5,311.5C 1200.46,309.735 1200.79,307.735 1200.5,305.5C 1204.98,305.532 1208.98,306.532 1212.5,308.5 Z"/></g>
<g><path style="opacity:1" fill="#207ff6" d="M 1446.5,308.5 C 1446.07,313.973 1444.9,319.306 1443,324.5C 1434.04,344.956 1419.54,359.956 1399.5,369.5C 1404.17,363.996 1408.67,358.33 1413,352.5C 1418.67,340.475 1420.84,327.808 1419.5,314.5C 1420.32,318.312 1420.82,322.312 1421,326.5C 1429.44,320.367 1437.94,314.367 1446.5,308.5 Z"/></g>
<g><path style="opacity:1" fill="#828282" d="M 1213.5,305.5 C 1213.83,305.5 1214.17,305.5 1214.5,305.5C 1217.25,305.402 1217.91,306.402 1216.5,308.5C 1214.41,313.191 1213.08,318.191 1212.5,323.5C 1207.36,322.032 1203.36,319.032 1200.5,314.5C 1201.16,313.282 1201.83,311.949 1202.5,310.5C 1203.09,310.709 1203.59,311.043 1204,311.5C 1207.02,310.806 1209.86,309.806 1212.5,308.5C 1213.4,307.791 1213.74,306.791 1213.5,305.5 Z"/></g>
<g><path style="opacity:1" fill="#969798" d="M 1235.5,294.5 C 1238.19,296.203 1240.19,298.536 1241.5,301.5C 1242.09,308.117 1241.09,314.45 1238.5,320.5C 1239.19,321.518 1239.86,322.518 1240.5,323.5C 1238.6,323.738 1237.26,324.738 1236.5,326.5C 1235.5,326.833 1234.83,327.5 1234.5,328.5C 1233.66,328.842 1233.33,329.508 1233.5,330.5C 1233.5,331.167 1233.17,331.5 1232.5,331.5C 1232.58,329.748 1231.75,328.748 1230,328.5C 1223.4,330.807 1216.9,330.807 1210.5,328.5C 1215.58,328.75 1220.58,328.25 1225.5,327C 1238.03,319.044 1241.37,308.21 1235.5,294.5 Z"/></g>
<g><path style="opacity:1" fill="#e4e4e4" d="M 1216.5,308.5 C 1221.26,310.929 1224.6,314.595 1226.5,319.5C 1222.53,322.926 1217.86,324.26 1212.5,323.5C 1213.08,318.191 1214.41,313.191 1216.5,308.5 Z"/></g>
<g><path style="opacity:1" fill="#1077f8" d="M 1304.5,313.5 C 1303.89,314.391 1303.56,315.391 1303.5,316.5C 1300.06,335.857 1305.4,352.19 1319.5,365.5C 1326.34,373.092 1334.68,378.426 1344.5,381.5C 1325.2,381.018 1307.2,375.518 1290.5,365C 1282.96,360.07 1275.63,354.903 1268.5,349.5C 1267.09,347.086 1265.09,345.419 1262.5,344.5C 1262.17,343.833 1261.83,343.167 1261.5,342.5C 1273.62,334.265 1285.62,325.765 1297.5,317C 1299.58,315.295 1301.91,314.128 1304.5,313.5 Z"/></g>
<g><path style="opacity:1" fill="#303134" d="M 1351.5,272.5 C 1359.69,271.431 1367.69,272.431 1375.5,275.5C 1378.97,278.278 1383.3,280.778 1388.5,283C 1411.33,300.841 1416.67,323.007 1404.5,349.5C 1399.96,356.509 1394.46,362.842 1388,368.5C 1387.31,369.437 1387.47,370.103 1388.5,370.5C 1372.18,385.275 1353.18,390.941 1331.5,387.5C 1333.53,387.662 1335.53,387.495 1337.5,387C 1325.21,385.445 1313.54,381.945 1302.5,376.5C 1291.55,371.387 1281.22,365.221 1271.5,358C 1259.66,347.663 1248,337.163 1236.5,326.5C 1237.26,324.738 1238.6,323.738 1240.5,323.5C 1240.83,323.5 1241.17,323.5 1241.5,323.5C 1241.5,325.5 1242.5,326.5 1244.5,326.5C 1248.83,332.833 1254.17,338.167 1260.5,342.5C 1260.83,342.5 1261.17,342.5 1261.5,342.5C 1261.83,343.167 1262.17,343.833 1262.5,344.5C 1263.91,346.914 1265.91,348.581 1268.5,349.5C 1275.63,354.903 1282.96,360.07 1290.5,365C 1307.2,375.518 1325.2,381.018 1344.5,381.5C 1347.26,383.293 1350.26,383.793 1353.5,383C 1358.24,381.53 1362.91,379.864 1367.5,378C 1366.26,377.768 1365.26,377.268 1364.5,376.5C 1366.86,376.663 1369.19,376.497 1371.5,376C 1387.61,367.729 1398.94,355.229 1405.5,338.5C 1412.57,317.543 1407.24,300.376 1389.5,287C 1374.18,276.361 1358.18,274.861 1341.5,282.5C 1338.61,283.399 1335.94,284.733 1333.5,286.5C 1332.36,284.787 1330.7,284.12 1328.5,284.5C 1335.99,278.26 1344.66,274.427 1354.5,273C 1353.55,272.517 1352.55,272.351 1351.5,272.5 Z"/></g>
<g><path style="opacity:1" fill="#7b7b7b" d="M 1198.5,315.5 C 1202.5,321.508 1208.16,325.008 1215.5,326C 1206.95,327.061 1201.28,323.561 1198.5,315.5 Z"/></g>
<g><path style="opacity:1" fill="#cacbcc" d="M 1193.5,310.5 C 1195.66,319.667 1201.33,325.667 1210.5,328.5C 1216.9,330.807 1223.4,330.807 1230,328.5C 1231.75,328.748 1232.58,329.748 1232.5,331.5C 1224.1,335.811 1215.44,336.478 1206.5,333.5C 1196.81,329.807 1191.15,322.807 1189.5,312.5C 1191.06,312.267 1192.4,311.6 1193.5,310.5 Z"/></g>
<g><path style="opacity:1" fill="#747474" d="M 1236.5,326.5 C 1248,337.163 1259.66,347.663 1271.5,358C 1281.22,365.221 1291.55,371.387 1302.5,376.5C 1302.67,377.492 1302.34,378.158 1301.5,378.5C 1297.4,376.952 1293.4,375.119 1289.5,373C 1269.56,360.228 1251.22,345.395 1234.5,328.5C 1234.83,327.5 1235.5,326.833 1236.5,326.5 Z"/></g>
<g><path style="opacity:1" fill="#627ea3" d="M 1237.5,278.5 C 1245.28,283.035 1250.45,289.701 1253,298.5C 1254.43,308.979 1252.26,318.645 1246.5,327.5C 1251.19,332.52 1255.86,337.52 1260.5,342.5C 1254.17,338.167 1248.83,332.833 1244.5,326.5C 1255.76,308.596 1253.43,292.596 1237.5,278.5 Z"/></g>
<g><path style="opacity:1" fill="#38393b" d="M 1303.5,316.5 C 1304.33,322.987 1304.83,329.654 1305,336.5C 1306.22,345.604 1310.05,353.271 1316.5,359.5C 1318.3,360.793 1319.96,362.293 1321.5,364C 1320.58,364.278 1319.92,364.778 1319.5,365.5C 1305.4,352.19 1300.06,335.857 1303.5,316.5 Z"/></g>
<g><path style="opacity:1" fill="#525252" d="M 1232.5,331.5 C 1232.59,332.496 1232.25,333.329 1231.5,334C 1224.53,337.334 1217.2,338.334 1209.5,337C 1206.55,336.925 1205.55,335.758 1206.5,333.5C 1215.44,336.478 1224.1,335.811 1232.5,331.5 Z"/></g>
<g><path style="opacity:1" fill="#68686a" d="M 1375.5,275.5 C 1381.7,277.268 1387.37,280.101 1392.5,284C 1414.22,303.143 1418.55,325.643 1405.5,351.5C 1404.66,351.158 1404.33,350.492 1404.5,349.5C 1416.67,323.007 1411.33,300.841 1388.5,283C 1383.3,280.778 1378.97,278.278 1375.5,275.5 Z"/></g>
<g><path style="opacity:1" fill="#5184cc" d="M 1237.5,334.5 C 1238.17,334.5 1238.5,334.833 1238.5,335.5C 1235.79,337.353 1232.79,338.353 1229.5,338.5C 1231.85,336.659 1234.52,335.326 1237.5,334.5 Z"/></g>
<g><path style="opacity:1" fill="#5384c6" d="M 1229.5,338.5 C 1227.22,340.223 1224.55,340.889 1221.5,340.5C 1223.91,339.232 1226.57,338.565 1229.5,338.5 Z"/></g>
<g><path style="opacity:1" fill="#1b7ef7" d="M 1405.5,338.5 C 1398.94,355.229 1387.61,367.729 1371.5,376C 1369.19,376.497 1366.86,376.663 1364.5,376.5C 1361.55,375.729 1358.55,375.062 1355.5,374.5C 1371.88,362.12 1388.55,350.12 1405.5,338.5 Z"/></g>
<g><path style="opacity:1" fill="#0e77fa" d="M 1919.5,340.5 C 1919.5,373.5 1919.5,406.5 1919.5,439.5C 1874.17,439.5 1828.83,439.5 1783.5,439.5C 1828.44,406.023 1873.77,373.023 1919.5,340.5 Z"/></g>
<g><path style="opacity:1" fill="#6481a9" d="M 1341.5,282.5 C 1335.6,286.895 1330.1,291.895 1325,297.5C 1311.52,316.496 1311.02,335.829 1323.5,355.5C 1317.67,350.182 1314.17,343.515 1313,335.5C 1312.33,329.5 1312.33,323.5 1313,317.5C 1315.09,311.542 1317.76,305.876 1321,300.5C 1325,295.665 1329.17,290.998 1333.5,286.5C 1335.94,284.733 1338.61,283.399 1341.5,282.5 Z"/></g>
<g><path style="opacity:1" fill="#647b9a" d="M 1262.5,344.5 C 1265.09,345.419 1267.09,347.086 1268.5,349.5C 1265.91,348.581 1263.91,346.914 1262.5,344.5 Z"/></g>
<g><path style="opacity:1" fill="#444446" d="M 1451.5,289.5 C 1453.58,318.656 1443.58,342.656 1421.5,361.5C 1421.06,361.565 1420.73,361.399 1420.5,361C 1441.04,341.553 1451.37,317.719 1451.5,289.5 Z"/></g>
<g><path style="opacity:1" fill="#0f77f9" d="M 1251.5,348.5 C 1273.58,370.38 1299.92,384.713 1330.5,391.5C 1311.02,406.137 1291.35,420.637 1271.5,435C 1309.83,435.5 1348.17,435.667 1386.5,435.5C 1384.86,436.473 1383.53,437.806 1382.5,439.5C 1298.17,439.5 1213.83,439.5 1129.5,439.5C 1168.75,410.199 1208.41,381.365 1248.5,353C 1250.14,351.871 1251.14,350.371 1251.5,348.5 Z"/></g>
<g><path style="opacity:1" fill="#111213" d="M 1328.5,284.5 C 1330.7,284.12 1332.36,284.787 1333.5,286.5C 1329.17,290.998 1325,295.665 1321,300.5C 1317.76,305.876 1315.09,311.542 1313,317.5C 1312.33,323.5 1312.33,329.5 1313,335.5C 1314.17,343.515 1317.67,350.182 1323.5,355.5C 1324.5,358.5 1326.5,360.5 1329.5,361.5C 1332.15,362.836 1334.49,364.503 1336.5,366.5C 1336.97,367.906 1337.97,368.573 1339.5,368.5C 1344.46,371.41 1349.8,373.41 1355.5,374.5C 1358.55,375.062 1361.55,375.729 1364.5,376.5C 1365.26,377.268 1366.26,377.768 1367.5,378C 1362.91,379.864 1358.24,381.53 1353.5,383C 1350.26,383.793 1347.26,383.293 1344.5,381.5C 1334.68,378.426 1326.34,373.092 1319.5,365.5C 1319.92,364.778 1320.58,364.278 1321.5,364C 1319.96,362.293 1318.3,360.793 1316.5,359.5C 1312.28,353.058 1309.12,346.058 1307,338.5C 1304.67,316.641 1311.84,298.641 1328.5,284.5 Z"/></g>
<g><path style="opacity:1" fill="#5b6d84" d="M 1323.5,355.5 C 1325.83,357.167 1327.83,359.167 1329.5,361.5C 1326.5,360.5 1324.5,358.5 1323.5,355.5 Z"/></g>
<g><path style="opacity:1" fill="#4e4c4e" d="M 1404.5,349.5 C 1404.33,350.492 1404.66,351.158 1405.5,351.5C 1400.92,358.753 1395.25,365.086 1388.5,370.5C 1387.47,370.103 1387.31,369.437 1388,368.5C 1394.46,362.842 1399.96,356.509 1404.5,349.5 Z"/></g>
<g><path style="opacity:1" fill="#5e79a2" d="M 1336.5,366.5 C 1338.03,366.427 1339.03,367.094 1339.5,368.5C 1337.97,368.573 1336.97,367.906 1336.5,366.5 Z"/></g>
<g><path style="opacity:1" fill="#5890db" d="M 1403.5,379.5 C 1399.8,382.517 1395.46,384.184 1390.5,384.5C 1394.66,382.598 1398.99,380.931 1403.5,379.5 Z"/></g>
<g><path style="opacity:1" fill="#575757" d="M 1302.5,376.5 C 1313.54,381.945 1325.21,385.445 1337.5,387C 1335.53,387.495 1333.53,387.662 1331.5,387.5C 1320.81,386.489 1310.81,383.489 1301.5,378.5C 1302.34,378.158 1302.67,377.492 1302.5,376.5 Z"/></g>
<g><path style="opacity:1" fill="#578bd0" d="M 1378.5,386.5 C 1374.32,387.66 1369.99,388.66 1365.5,389.5C 1369.35,386.965 1373.69,385.965 1378.5,386.5 Z"/></g>
<g><path style="opacity:1" fill="#5a86be" d="M 1365.5,389.5 C 1362.83,391.118 1359.83,391.785 1356.5,391.5C 1359.27,390.343 1362.27,389.676 1365.5,389.5 Z"/></g>
<g><path style="opacity:0.051" fill="#f0f9fe" d="M 1780.5,439.5 C 1781.5,439.5 1782.5,439.5 1783.5,439.5C 1828.83,439.5 1874.17,439.5 1919.5,439.5C 1919.5,466.833 1919.5,494.167 1919.5,521.5C 1911.88,526.454 1904.55,531.787 1897.5,537.5C 1813.83,537.5 1730.17,537.5 1646.5,537.5C 1691.45,505.22 1736.11,472.553 1780.5,439.5 Z"/></g>
</svg>
