<?xml version="1.0" encoding="UTF-8"?>
<!DOCTYPE svg PUBLIC "-//W3C//DTD SVG 1.1//EN" "http://www.w3.org/Graphics/SVG/1.1/DTD/svg11.dtd">
<svg xmlns="http://www.w3.org/2000/svg" version="1.1" width="28px" height="28px" style="shape-rendering:geometricPrecision; text-rendering:geometricPrecision; image-rendering:optimizeQuality; fill-rule:evenodd; clip-rule:evenodd" xmlns:xlink="http://www.w3.org/1999/xlink">
<g><path style="opacity:0.916" fill="#3686fc" d="M 8.5,-0.5 C 9.16667,-0.5 9.83333,-0.5 10.5,-0.5C 10.5,3.5 10.5,7.5 10.5,11.5C 9.5,11.5 8.5,11.5 7.5,11.5C 7.5,7.83333 7.5,4.16667 7.5,0.5C 8.16667,0.5 8.5,0.166667 8.5,-0.5 Z"/></g>
<g><path style="opacity:0.918" fill="#2a81fc" d="M 10.5,-0.5 C 11.1667,-0.5 11.8333,-0.5 12.5,-0.5C 12.5,2.16667 12.5,4.83333 12.5,7.5C 11.8333,8.83333 11.1667,10.1667 10.5,11.5C 10.5,7.5 10.5,3.5 10.5,-0.5 Z"/></g>
<g><path style="opacity:0.941" fill="#217dfb" d="M 12.5,-0.5 C 13.5,-0.5 14.5,-0.5 15.5,-0.5C 15.5,2.16667 15.5,4.83333 15.5,7.5C 14.5,7.5 13.5,7.5 12.5,7.5C 12.5,4.83333 12.5,2.16667 12.5,-0.5 Z"/></g>
<g><path style="opacity:0.973" fill="#1478fb" d="M 15.5,-0.5 C 16.5,-0.5 17.5,-0.5 18.5,-0.5C 18.5,3.5 18.5,7.5 18.5,11.5C 17.5,11.5 16.5,11.5 15.5,11.5C 15.5,10.1667 15.5,8.83333 15.5,7.5C 15.5,4.83333 15.5,2.16667 15.5,-0.5 Z"/></g>
<g><path style="opacity:0.896" fill="#0a74fa" d="M 18.5,-0.5 C 19.1667,-0.5 19.8333,-0.5 20.5,-0.5C 20.5,8.16667 20.5,16.8333 20.5,25.5C 20.1583,26.3382 19.4916,26.6716 18.5,26.5C 18.5,22.8333 18.5,19.1667 18.5,15.5C 19.8333,14.1667 19.8333,12.8333 18.5,11.5C 18.5,7.5 18.5,3.5 18.5,-0.5 Z"/></g>
<g><path style="opacity:0.975" fill="#0572fa" d="M 20.5,-0.5 C 21.1667,-0.5 21.8333,-0.5 22.5,-0.5C 22.5,7.5 22.5,15.5 22.5,23.5C 22.1667,24.5 21.5,25.1667 20.5,25.5C 20.5,16.8333 20.5,8.16667 20.5,-0.5 Z"/></g>
<g><path style="opacity:0.944" fill="#006ffa" d="M 22.5,-0.5 C 24.1667,-0.5 25.8333,-0.5 27.5,-0.5C 27.5,5.83333 27.5,12.1667 27.5,18.5C 26.194,20.4727 24.5273,22.1394 22.5,23.5C 22.5,15.5 22.5,7.5 22.5,-0.5 Z"/></g>
<g><path style="opacity:0.932" fill="#418bfd" d="M 7.5,0.5 C 7.5,4.16667 7.5,7.83333 7.5,11.5C 7.5,12.8333 7.5,14.1667 7.5,15.5C 7.5,19.5 7.5,23.5 7.5,27.5C 6.83333,27.5 6.16667,27.5 5.5,27.5C 5.5,19.1667 5.5,10.8333 5.5,2.5C 5.83333,1.5 6.5,0.833333 7.5,0.5 Z"/></g>
<g><path style="opacity:0.979" fill="#4c90fe" d="M 5.5,2.5 C 5.5,10.8333 5.5,19.1667 5.5,27.5C 4.5,27.5 3.5,27.5 2.5,27.5C 2.5,20.1667 2.5,12.8333 2.5,5.5C 3.16667,4.16667 4.16667,3.16667 5.5,2.5 Z"/></g>
<g><path style="opacity:0.94" fill="#5695fe" d="M 2.5,5.5 C 2.5,12.8333 2.5,20.1667 2.5,27.5C 1.5,27.5 0.5,27.5 -0.5,27.5C -0.5,21.1667 -0.5,14.8333 -0.5,8.5C 0.271873,7.30646 1.27187,6.30646 2.5,5.5 Z"/></g>
<g><path style="opacity:0.994" fill="#3686fc" d="M 7.5,15.5 C 8.5,15.5 9.5,15.5 10.5,15.5C 10.5,19.5 10.5,23.5 10.5,27.5C 9.5,27.5 8.5,27.5 7.5,27.5C 7.5,23.5 7.5,19.5 7.5,15.5 Z"/></g>
<g><path style="opacity:0.922" fill="#1478fb" d="M 18.5,15.5 C 18.5,19.1667 18.5,22.8333 18.5,26.5C 18.5,26.8333 18.5,27.1667 18.5,27.5C 17.5,27.5 16.5,27.5 15.5,27.5C 15.5,24.8333 15.5,22.1667 15.5,19.5C 15.5,18.1667 15.5,16.8333 15.5,15.5C 16.5,15.5 17.5,15.5 18.5,15.5 Z"/></g>
<g><path style="opacity:0.95" fill="#2a81fc" d="M 10.5,15.5 C 11.1667,16.8333 11.8333,18.1667 12.5,19.5C 12.5,22.1667 12.5,24.8333 12.5,27.5C 11.8333,27.5 11.1667,27.5 10.5,27.5C 10.5,23.5 10.5,19.5 10.5,15.5 Z"/></g>
<g><path style="opacity:0.941" fill="#217dfb" d="M 12.5,19.5 C 13.5,19.5 14.5,19.5 15.5,19.5C 15.5,22.1667 15.5,24.8333 15.5,27.5C 14.5,27.5 13.5,27.5 12.5,27.5C 12.5,24.8333 12.5,22.1667 12.5,19.5 Z"/></g>
</svg>
