<?xml version="1.0" encoding="UTF-8"?>
<!DOCTYPE svg PUBLIC "-//W3C//DTD SVG 1.1//EN" "http://www.w3.org/Graphics/SVG/1.1/DTD/svg11.dtd">
<svg xmlns="http://www.w3.org/2000/svg" version="1.1" width="563px" height="550px" style="shape-rendering:geometricPrecision; text-rendering:geometricPrecision; image-rendering:optimizeQuality; fill-rule:evenodd; clip-rule:evenodd" xmlns:xlink="http://www.w3.org/1999/xlink">
<g><path style="opacity:0.996" fill="#fef7f4" d="M 247.5,-0.5 C 262.5,-0.5 277.5,-0.5 292.5,-0.5C 332.838,1.09851 372.504,7.59851 411.5,19C 483.923,43.7575 530.757,92.9242 552,166.5C 557.009,185.034 560.509,203.7 562.5,222.5C 562.5,237.833 562.5,253.167 562.5,268.5C 559.613,297.33 550.779,324.33 536,349.5C 528.155,361.189 519.822,372.522 511,383.5C 467.368,432.814 418.535,475.98 364.5,513C 335.59,531.63 304.257,543.797 270.5,549.5C 259.167,549.5 247.833,549.5 236.5,549.5C 195.605,543.365 157.605,529.198 122.5,507C 86.3641,484.871 55.1974,457.038 29,423.5C 12.4165,400.347 2.5832,374.681 -0.5,346.5C -0.5,331.5 -0.5,316.5 -0.5,301.5C 5.72801,249.191 15.8947,197.525 30,146.5C 40.4257,109.794 58.9257,77.9607 85.5,51C 114.589,27.1316 147.922,12.465 185.5,7C 206.206,3.57112 226.873,1.07112 247.5,-0.5 Z"/></g>
</svg>
