<?xml version="1.0" encoding="UTF-8"?>
<!DOCTYPE svg PUBLIC "-//W3C//DTD SVG 1.1//EN" "http://www.w3.org/Graphics/SVG/1.1/DTD/svg11.dtd">
<svg xmlns="http://www.w3.org/2000/svg" version="1.1" width="119px" height="28px" style="shape-rendering:geometricPrecision; text-rendering:geometricPrecision; image-rendering:optimizeQuality; fill-rule:evenodd; clip-rule:evenodd" xmlns:xlink="http://www.w3.org/1999/xlink">
<g><path style="opacity:0.916" fill="#3686fc" d="M 8.5,-0.5 C 9.16667,-0.5 9.83333,-0.5 10.5,-0.5C 10.5,3.5 10.5,7.5 10.5,11.5C 9.5,11.5 8.5,11.5 7.5,11.5C 7.5,7.83333 7.5,4.16667 7.5,0.5C 8.16667,0.5 8.5,0.166667 8.5,-0.5 Z"/></g>
<g><path style="opacity:0.918" fill="#2a81fc" d="M 10.5,-0.5 C 11.1667,-0.5 11.8333,-0.5 12.5,-0.5C 12.5,2.16667 12.5,4.83333 12.5,7.5C 11.8333,8.83333 11.1667,10.1667 10.5,11.5C 10.5,7.5 10.5,3.5 10.5,-0.5 Z"/></g>
<g><path style="opacity:0.941" fill="#217dfb" d="M 12.5,-0.5 C 13.5,-0.5 14.5,-0.5 15.5,-0.5C 15.5,2.16667 15.5,4.83333 15.5,7.5C 14.5,7.5 13.5,7.5 12.5,7.5C 12.5,4.83333 12.5,2.16667 12.5,-0.5 Z"/></g>
<g><path style="opacity:0.973" fill="#1478fb" d="M 15.5,-0.5 C 16.5,-0.5 17.5,-0.5 18.5,-0.5C 18.5,3.5 18.5,7.5 18.5,11.5C 17.5,11.5 16.5,11.5 15.5,11.5C 15.5,10.1667 15.5,8.83333 15.5,7.5C 15.5,4.83333 15.5,2.16667 15.5,-0.5 Z"/></g>
<g><path style="opacity:0.896" fill="#0a74fa" d="M 18.5,-0.5 C 19.1667,-0.5 19.8333,-0.5 20.5,-0.5C 20.5,8.16667 20.5,16.8333 20.5,25.5C 20.1583,26.3382 19.4916,26.6716 18.5,26.5C 18.5,22.8333 18.5,19.1667 18.5,15.5C 19.8333,14.1667 19.8333,12.8333 18.5,11.5C 18.5,7.5 18.5,3.5 18.5,-0.5 Z"/></g>
<g><path style="opacity:0.975" fill="#0572fa" d="M 20.5,-0.5 C 21.1667,-0.5 21.8333,-0.5 22.5,-0.5C 22.5,7.5 22.5,15.5 22.5,23.5C 22.1667,24.5 21.5,25.1667 20.5,25.5C 20.5,16.8333 20.5,8.16667 20.5,-0.5 Z"/></g>
<g><path style="opacity:0.944" fill="#006ffa" d="M 22.5,-0.5 C 24.1667,-0.5 25.8333,-0.5 27.5,-0.5C 27.6662,5.84209 27.4995,12.1754 27,18.5C 26.0041,20.6605 24.5041,22.3272 22.5,23.5C 22.5,15.5 22.5,7.5 22.5,-0.5 Z"/></g>
<g><path style="opacity:0.7" fill="#232428" d="M 82.5,-0.5 C 82.8333,-0.5 83.1667,-0.5 83.5,-0.5C 84.0017,6.25673 84.835,12.9234 86,19.5C 87.0877,17.7125 87.5877,15.7125 87.5,13.5C 83.6353,8.34976 84.9687,6.01642 91.5,6.5C 90.9872,11.085 91.6538,15.4183 93.5,19.5C 87.9772,20.4794 82.6439,21.1461 77.5,21.5C 74.0969,20.4264 72.0969,18.0931 71.5,14.5C 68.9135,13.52 66.2469,13.1866 63.5,13.5C 63.4208,14.9305 63.7542,16.2638 64.5,17.5C 67.0583,18.225 69.3917,18.225 71.5,17.5C 68.7604,21.9477 65.2604,22.6144 61,19.5C 58.6966,14.9617 59.1966,10.795 62.5,7C 67.1691,5.46172 70.3357,6.96172 72,11.5C 73.3584,7.40192 76.1918,5.73526 80.5,6.5C 80.6715,4.50819 80.0049,2.84152 78.5,1.5C 79.9492,0.828112 81.2825,0.161445 82.5,-0.5 Z M 64.5,8.5 C 65.9953,8.41483 66.9953,9.08149 67.5,10.5C 66.1667,11.8333 64.8333,11.8333 63.5,10.5C 63.8627,9.81654 64.1961,9.14987 64.5,8.5 Z M 77.5,8.5 C 78.5,8.5 79.5,8.5 80.5,8.5C 80.5,11.8333 80.5,15.1667 80.5,18.5C 79.1667,18.5 77.8333,18.5 76.5,18.5C 75.1061,15.0071 75.4394,11.6738 77.5,8.5 Z"/></g>
<g><path style="opacity:0.932" fill="#418bfd" d="M 7.5,0.5 C 7.5,4.16667 7.5,7.83333 7.5,11.5C 7.5,12.8333 7.5,14.1667 7.5,15.5C 7.5,19.5 7.5,23.5 7.5,27.5C 6.83333,27.5 6.16667,27.5 5.5,27.5C 5.5,19.1667 5.5,10.8333 5.5,2.5C 5.83333,1.5 6.5,0.833333 7.5,0.5 Z"/></g>
<g><path style="opacity:0.707" fill="#232428" d="M 87.5,0.5 C 88.8333,0.5 90.1667,0.5 91.5,0.5C 91.8841,2.66485 91.2174,4.33152 89.5,5.5C 87.7826,4.33152 87.1159,2.66485 87.5,0.5 Z"/></g>
<g><path style="opacity:0.721" fill="#232428" d="M 38.5,1.5 C 40.4672,1.26057 42.3005,1.59391 44,2.5C 45.014,6.37752 46.514,10.0442 48.5,13.5C 50.0952,9.88324 51.5952,6.21657 53,2.5C 55.2921,1.09218 57.4588,1.25885 59.5,3C 58.3333,3.5 57.5,4.33333 57,5.5C 56.3333,9.5 56.3333,13.5 57,17.5C 57.8333,18.3333 58.6667,19.1667 59.5,20C 56.7728,20.8184 54.1062,20.6517 51.5,19.5C 53.4789,16.0899 53.9789,12.4232 53,8.5C 51.6108,12.9442 49.9442,17.2775 48,21.5C 45.427,17.4554 43.427,13.1221 42,8.5C 40.814,12.9167 41.6474,16.75 44.5,20C 42.1667,20.6667 39.8333,20.6667 37.5,20C 38,19.5 38.5,19 39,18.5C 39.1667,16 39.3333,13.5 39.5,11C 39.4324,8.05003 38.7657,5.38336 37.5,3C 38.056,2.61742 38.3893,2.11742 38.5,1.5 Z"/></g>
<g><path style="opacity:0.979" fill="#4c90fe" d="M 5.5,2.5 C 5.5,10.8333 5.5,19.1667 5.5,27.5C 4.5,27.5 3.5,27.5 2.5,27.5C 2.5,20.1667 2.5,12.8333 2.5,5.5C 3.16667,4.16667 4.16667,3.16667 5.5,2.5 Z"/></g>
<g><path style="opacity:0.94" fill="#5695fe" d="M 2.5,5.5 C 2.5,12.8333 2.5,20.1667 2.5,27.5C 1.5,27.5 0.5,27.5 -0.5,27.5C -0.5,21.1667 -0.5,14.8333 -0.5,8.5C 0.271873,7.30646 1.27187,6.30646 2.5,5.5 Z"/></g>
<g><path style="opacity:0.711" fill="#232428" d="M 105.5,11.5 C 104.167,11.5 102.833,11.5 101.5,11.5C 101.646,9.05762 100.813,8.39095 99,9.5C 97.1952,12.2113 97.1952,14.8779 99,17.5C 101.355,18.1314 103.522,18.1314 105.5,17.5C 102.496,22.455 98.9956,22.7883 95,18.5C 92.1606,10.3491 94.9939,6.51574 103.5,7C 105.037,8.10963 105.703,9.60963 105.5,11.5 Z"/></g>
<g><path style="opacity:0.73" fill="#232428" d="M 118.5,9.5 C 118.5,12.5 118.5,15.5 118.5,18.5C 110.367,23.7419 106.034,21.4086 105.5,11.5C 108.899,5.76737 113.233,5.1007 118.5,9.5 Z M 111.5,8.5 C 112.496,8.41423 113.329,8.74756 114,9.5C 114.667,12.5 114.667,15.5 114,18.5C 113.586,18.9574 113.086,19.2907 112.5,19.5C 108.96,16.1827 108.626,12.5161 111.5,8.5 Z"/></g>
<g><path style="opacity:0.994" fill="#3686fc" d="M 7.5,15.5 C 8.5,15.5 9.5,15.5 10.5,15.5C 10.5,19.5 10.5,23.5 10.5,27.5C 9.5,27.5 8.5,27.5 7.5,27.5C 7.5,23.5 7.5,19.5 7.5,15.5 Z"/></g>
<g><path style="opacity:0.922" fill="#1478fb" d="M 18.5,15.5 C 18.5,19.1667 18.5,22.8333 18.5,26.5C 18.5,26.8333 18.5,27.1667 18.5,27.5C 17.5,27.5 16.5,27.5 15.5,27.5C 15.5,24.8333 15.5,22.1667 15.5,19.5C 15.5,18.1667 15.5,16.8333 15.5,15.5C 16.5,15.5 17.5,15.5 18.5,15.5 Z"/></g>
<g><path style="opacity:0.95" fill="#2a81fc" d="M 10.5,15.5 C 11.1667,16.8333 11.8333,18.1667 12.5,19.5C 12.5,22.1667 12.5,24.8333 12.5,27.5C 11.8333,27.5 11.1667,27.5 10.5,27.5C 10.5,23.5 10.5,19.5 10.5,15.5 Z"/></g>
<g><path style="opacity:0.941" fill="#217dfb" d="M 12.5,19.5 C 13.5,19.5 14.5,19.5 15.5,19.5C 15.5,22.1667 15.5,24.8333 15.5,27.5C 14.5,27.5 13.5,27.5 12.5,27.5C 12.5,24.8333 12.5,22.1667 12.5,19.5 Z"/></g>
</svg>
