<?xml version="1.0" encoding="UTF-8"?>
<!DOCTYPE svg PUBLIC "-//W3C//DTD SVG 1.1//EN" "http://www.w3.org/Graphics/SVG/1.1/DTD/svg11.dtd">
<svg xmlns="http://www.w3.org/2000/svg" version="1.1" width="59px" height="51px" style="shape-rendering:geometricPrecision; text-rendering:geometricPrecision; image-rendering:optimizeQuality; fill-rule:evenodd; clip-rule:evenodd" xmlns:xlink="http://www.w3.org/1999/xlink">
<g><path style="opacity:0.897" fill="#fefffe" d="M 19.5,-0.5 C 21.8333,-0.5 24.1667,-0.5 26.5,-0.5C 26.5,1.5 26.5,3.5 26.5,5.5C 17.0095,6.65435 11.3428,11.9877 9.5,21.5C 9.7605,23.1871 10.4272,24.6871 11.5,26C 22.1051,26.5972 26.9385,32.0972 26,42.5C 24.6954,45.9614 22.5287,48.628 19.5,50.5C 15.8333,50.5 12.1667,50.5 8.5,50.5C 6.64547,49.3104 4.81213,47.9771 3,46.5C 2.05898,44.2726 0.892318,42.2726 -0.5,40.5C -0.5,34.8333 -0.5,29.1667 -0.5,23.5C 2.41983,12.2992 9.0865,4.29917 19.5,-0.5 Z"/></g>
<g><path style="opacity:0.897" fill="#fefffe" d="M 51.5,-0.5 C 53.8333,-0.5 56.1667,-0.5 58.5,-0.5C 58.5,1.5 58.5,3.5 58.5,5.5C 49.4055,6.76091 44.0721,11.9276 42.5,21C 42.3536,23.0342 43.0203,24.7009 44.5,26C 50.5487,26.1872 55.2153,28.6872 58.5,33.5C 58.5,37.1667 58.5,40.8333 58.5,44.5C 56.8333,46.8333 54.8333,48.8333 52.5,50.5C 48.8333,50.5 45.1667,50.5 41.5,50.5C 33.0792,45.2758 29.9126,37.6091 32,27.5C 33.8401,14.7883 40.3401,5.45496 51.5,-0.5 Z"/></g>
</svg>
