<?xml version="1.0" encoding="UTF-8"?>
<!DOCTYPE svg PUBLIC "-//W3C//DTD SVG 1.1//EN" "http://www.w3.org/Graphics/SVG/1.1/DTD/svg11.dtd">
<svg xmlns="http://www.w3.org/2000/svg" version="1.1" width="474px" height="197px" style="shape-rendering:geometricPrecision; text-rendering:geometricPrecision; image-rendering:optimizeQuality; fill-rule:evenodd; clip-rule:evenodd" xmlns:xlink="http://www.w3.org/1999/xlink">
<g><path style="opacity:1" fill="#fbfcfc" d="M 215.5,-0.5 C 284.833,-0.5 354.167,-0.5 423.5,-0.5C 422.666,0.747897 421.333,1.41456 419.5,1.5C 412.674,0.313345 406.007,0.313345 399.5,1.5C 391.407,1.17226 383.407,1.83893 375.5,3.5C 386.085,4.81806 386.085,5.48472 375.5,5.5C 375.5,8.83333 375.5,12.1667 375.5,15.5C 378.167,15.5 380.833,15.5 383.5,15.5C 383.5,20.8333 383.5,26.1667 383.5,31.5C 380.833,31.5 378.167,31.5 375.5,31.5C 375.5,34.1667 375.5,36.8333 375.5,39.5C 372.833,39.5 370.167,39.5 367.5,39.5C 367.5,40.8333 367.5,42.1667 367.5,43.5C 358.133,44.5044 348.8,45.8378 339.5,47.5C 336.833,46.8333 334.167,46.1667 331.5,45.5C 327.593,46.8112 323.593,47.4778 319.5,47.5C 319.5,50.1667 319.5,52.8333 319.5,55.5C 322.167,55.5 324.833,55.5 327.5,55.5C 327.5,58.1667 327.5,60.8333 327.5,63.5C 324.833,63.5 322.167,63.5 319.5,63.5C 319.5,66.1667 319.5,68.8333 319.5,71.5C 316.833,71.5 314.167,71.5 311.5,71.5C 311.5,74.1667 311.5,76.8333 311.5,79.5C 306.167,79.5 300.833,79.5 295.5,79.5C 295.5,76.8333 295.5,74.1667 295.5,71.5C 292.833,71.5 290.167,71.5 287.5,71.5C 287.5,66.1667 287.5,60.8333 287.5,55.5C 292.833,55.5 298.167,55.5 303.5,55.5C 303.5,52.8333 303.5,50.1667 303.5,47.5C 298.167,47.5 292.833,47.5 287.5,47.5C 287.5,44.8333 287.5,42.1667 287.5,39.5C 282.167,39.5 276.833,39.5 271.5,39.5C 271.5,40.8333 271.5,42.1667 271.5,43.5C 263.5,43.5 255.5,43.5 247.5,43.5C 247.5,42.1667 247.5,40.8333 247.5,39.5C 244.833,39.5 242.167,39.5 239.5,39.5C 239.5,28.8333 239.5,18.1667 239.5,7.5C 260.761,7.65464 260.761,6.82131 239.5,5C 244.889,4.49315 250.223,3.65982 255.5,2.5C 247.527,2.8209 239.527,2.48757 231.5,1.5C 225.949,1.47295 220.616,0.806286 215.5,-0.5 Z"/></g>
<g><path style="opacity:1" fill="#f6f7f7" d="M 399.5,1.5 C 399.5,2.5 399.5,3.5 399.5,4.5C 410.085,4.51528 410.085,5.18194 399.5,6.5C 404.792,7.49485 410.125,7.82818 415.5,7.5C 415.5,6.5 415.5,5.5 415.5,4.5C 418.167,4.5 420.833,4.5 423.5,4.5C 423.5,6.16667 423.5,7.83333 423.5,9.5C 426.167,9.5 428.833,9.5 431.5,9.5C 431.5,23.8333 431.5,38.1667 431.5,52.5C 428.833,52.5 426.167,52.5 423.5,52.5C 423.5,54.1667 423.5,55.8333 423.5,57.5C 426.167,57.5 428.833,57.5 431.5,57.5C 431.5,58.8333 431.5,60.1667 431.5,61.5C 428.753,61.1866 426.086,61.52 423.5,62.5C 426.768,63.487 430.102,63.8204 433.5,63.5C 433.5,66.1667 433.5,68.8333 433.5,71.5C 434.5,71.5 435.5,71.5 436.5,71.5C 436.5,74.1667 436.5,76.8333 436.5,79.5C 437.5,79.5 438.5,79.5 439.5,79.5C 439.5,82.1667 439.5,84.8333 439.5,87.5C 431.568,88.8243 423.568,89.4909 415.5,89.5C 410.604,87.5539 405.271,86.8872 399.5,87.5C 399.5,84.8333 399.5,82.1667 399.5,79.5C 394.167,79.5 388.833,79.5 383.5,79.5C 383.5,82.1667 383.5,84.8333 383.5,87.5C 368.758,88.0295 354.092,87.3628 339.5,85.5C 335.593,86.8112 331.593,87.4778 327.5,87.5C 327.5,79.5 327.5,71.5 327.5,63.5C 327.5,60.8333 327.5,58.1667 327.5,55.5C 324.833,55.5 322.167,55.5 319.5,55.5C 319.5,52.8333 319.5,50.1667 319.5,47.5C 323.593,47.4778 327.593,46.8112 331.5,45.5C 334.167,46.1667 336.833,46.8333 339.5,47.5C 348.8,45.8378 358.133,44.5044 367.5,43.5C 367.5,42.1667 367.5,40.8333 367.5,39.5C 370.167,39.5 372.833,39.5 375.5,39.5C 375.5,36.8333 375.5,34.1667 375.5,31.5C 378.167,31.5 380.833,31.5 383.5,31.5C 383.5,26.1667 383.5,20.8333 383.5,15.5C 380.833,15.5 378.167,15.5 375.5,15.5C 375.5,12.1667 375.5,8.83333 375.5,5.5C 386.085,5.48472 386.085,4.81806 375.5,3.5C 383.407,1.83893 391.407,1.17226 399.5,1.5 Z"/></g>
<g><path style="opacity:1" fill="#dde5e7" d="M 39.5,-0.5 C 63.5,-0.5 87.5,-0.5 111.5,-0.5C 111.5,0.166667 111.5,0.833333 111.5,1.5C 111.5,2.5 111.5,3.5 111.5,4.5C 108.833,4.5 106.167,4.5 103.5,4.5C 103.5,5.5 103.5,6.5 103.5,7.5C 95.5,7.5 87.5,7.5 79.5,7.5C 79.5,10.5 79.5,13.5 79.5,16.5C 78.1667,16.5 76.8333,16.5 75.5,16.5C 70.2648,16.6992 65.5982,15.1992 61.5,12C 58.6285,11.6852 55.7952,11.1852 53,10.5C 52.5,10.8333 52,11.1667 51.5,11.5C 54.028,12.8159 54.028,13.9826 51.5,15C 55.3952,16.8078 59.3952,17.9745 63.5,18.5C 58.9186,17.9231 54.7519,18.9231 51,21.5C 50.5172,22.448 50.3505,23.448 50.5,24.5C 48.534,21.8433 45.8673,20.1767 42.5,19.5C 38.6674,22.6762 36.0008,26.6762 34.5,31.5C 33.5,31.5 32.5,31.5 31.5,31.5C 31.3367,29.1432 31.5034,26.8098 32,24.5C 32.2835,26.8856 33.2835,27.5523 35,26.5C 35.977,24.26 36.477,21.9267 36.5,19.5C 38.1428,15.7047 38.8094,11.7047 38.5,7.5C 40.0174,7.51056 41.1841,8.17723 42,9.5C 42.1816,12.2263 42.6816,14.8929 43.5,17.5C 44.086,17.2907 44.586,16.9574 45,16.5C 45.572,11.4066 45.072,6.40656 43.5,1.5C 42.2638,2.24585 40.9305,2.57918 39.5,2.5C 39.5,1.5 39.5,0.5 39.5,-0.5 Z"/></g>
<g><path style="opacity:1" fill="#c3a58d" d="M -0.5,-0.5 C 0.5,-0.5 1.5,-0.5 2.5,-0.5C 4.46217,4.82583 7.7955,5.82583 12.5,2.5C 12.5,1.5 12.5,0.5 12.5,-0.5C 18.8333,-0.5 25.1667,-0.5 31.5,-0.5C 30.7974,1.71572 29.4641,3.54905 27.5,5C 24.2729,7.11175 20.9396,8.94509 17.5,10.5C 14.5198,10.6203 11.6865,11.287 9,12.5C 7.71311,8.27132 4.87978,6.77132 0.5,8C 1.05596,8.38258 1.38929,8.88258 1.5,9.5C 0.833333,9.5 0.166667,9.5 -0.5,9.5C -0.5,6.16667 -0.5,2.83333 -0.5,-0.5 Z"/></g>
<g><path style="opacity:1" fill="#9a7c71" d="M 2.5,-0.5 C 5.83333,-0.5 9.16667,-0.5 12.5,-0.5C 12.5,0.5 12.5,1.5 12.5,2.5C 7.7955,5.82583 4.46217,4.82583 2.5,-0.5 Z"/></g>
<g><path style="opacity:1" fill="#f0f0f1" d="M 143.5,45.5 C 143.5,44.5 143.5,43.5 143.5,42.5C 140.833,42.5 138.167,42.5 135.5,42.5C 135.5,41.5 135.5,40.5 135.5,39.5C 127.568,38.1757 119.568,37.5091 111.5,37.5C 111.5,36.1667 111.5,34.8333 111.5,33.5C 108.428,33.8174 105.428,33.4841 102.5,32.5C 103.544,30.2324 103.711,27.8991 103,25.5C 102.581,26.6721 101.915,27.6721 101,28.5C 100.293,26.9194 99.4601,25.4194 98.5,24C 100.134,23.5065 101.801,23.3398 103.5,23.5C 103.5,20.8333 103.5,18.1667 103.5,15.5C 106.167,15.5 108.833,15.5 111.5,15.5C 111.5,12.8333 111.5,10.1667 111.5,7.5C 116.833,7.5 122.167,7.5 127.5,7.5C 131.593,7.52217 135.593,8.18884 139.5,9.5C 148.752,7.89558 158.086,7.06224 167.5,7C 164.774,6.81844 162.107,6.31844 159.5,5.5C 164.792,4.50515 170.125,4.17182 175.5,4.5C 175.5,13.5 175.5,22.5 175.5,31.5C 177.833,31.5 180.167,31.5 182.5,31.5C 182.5,34.1667 182.5,36.8333 182.5,39.5C 181.5,39.5 180.5,39.5 179.5,39.5C 179.5,41.5 179.5,43.5 179.5,45.5C 178.167,45.5 176.833,45.5 175.5,45.5C 175.5,43.5 175.5,41.5 175.5,39.5C 172.833,39.5 170.167,39.5 167.5,39.5C 167.5,42.1667 167.5,44.8333 167.5,47.5C 159.568,46.1757 151.568,45.5091 143.5,45.5 Z"/></g>
<g><path style="opacity:1" fill="#acc6d3" d="M 38.5,7.5 C 38.2155,5.58533 38.5489,3.91866 39.5,2.5C 40.9305,2.57918 42.2638,2.24585 43.5,1.5C 45.072,6.40656 45.572,11.4066 45,16.5C 44.586,16.9574 44.086,17.2907 43.5,17.5C 42.6816,14.8929 42.1816,12.2263 42,9.5C 41.1841,8.17723 40.0174,7.51056 38.5,7.5 Z"/></g>
<g><path style="opacity:1" fill="#e9ebeb" d="M 111.5,1.5 C 124.853,1.44526 138.186,1.94526 151.5,3C 146.136,3.17053 140.802,3.67053 135.5,4.5C 132.384,4.92006 129.717,5.92006 127.5,7.5C 122.167,7.5 116.833,7.5 111.5,7.5C 111.5,10.1667 111.5,12.8333 111.5,15.5C 108.833,15.5 106.167,15.5 103.5,15.5C 103.5,18.1667 103.5,20.8333 103.5,23.5C 101.801,23.3398 100.134,23.5065 98.5,24C 99.4601,25.4194 100.293,26.9194 101,28.5C 101.915,27.6721 102.581,26.6721 103,25.5C 103.711,27.8991 103.544,30.2324 102.5,32.5C 105.428,33.4841 108.428,33.8174 111.5,33.5C 111.5,34.8333 111.5,36.1667 111.5,37.5C 119.568,37.5091 127.568,38.1757 135.5,39.5C 135.5,40.5 135.5,41.5 135.5,42.5C 138.167,42.5 140.833,42.5 143.5,42.5C 143.5,43.5 143.5,44.5 143.5,45.5C 143.5,48.8333 143.5,52.1667 143.5,55.5C 140.167,55.5 136.833,55.5 133.5,55.5C 133.5,60.8333 133.5,66.1667 133.5,71.5C 134.833,71.5 136.167,71.5 137.5,71.5C 137.216,74.7766 137.549,77.9433 138.5,81C 137.833,81.3333 137.167,81.6667 136.5,82C 138.167,83.6667 139.833,85.3333 141.5,87C 139.519,87.6054 139.185,88.6054 140.5,90C 139.906,90.4643 139.239,90.631 138.5,90.5C 134.702,89.8456 131.036,88.8456 127.5,87.5C 127.5,84.8333 127.5,82.1667 127.5,79.5C 124.833,79.5 122.167,79.5 119.5,79.5C 119.575,75.1033 119.075,70.77 118,66.5C 117.362,67.6086 116.862,68.7753 116.5,70C 118.425,73.0365 118.758,76.2032 117.5,79.5C 116.143,74.2154 114.976,68.882 114,63.5C 113.502,66.8168 113.335,70.1501 113.5,73.5C 112.792,56.7203 107.126,41.7203 96.5,28.5C 92.9579,25.7699 89.6246,22.7699 86.5,19.5C 82.9058,17.9991 79.2391,16.9991 75.5,16.5C 76.8333,16.5 78.1667,16.5 79.5,16.5C 79.5,13.5 79.5,10.5 79.5,7.5C 87.5,7.5 95.5,7.5 103.5,7.5C 103.5,6.5 103.5,5.5 103.5,4.5C 106.167,4.5 108.833,4.5 111.5,4.5C 111.5,3.5 111.5,2.5 111.5,1.5 Z"/></g>
<g><path style="opacity:1" fill="#a49383" d="M 17.5,10.5 C 16.0837,12.1793 14.7503,13.8459 13.5,15.5C 11.5,15.5 9.5,15.5 7.5,15.5C 6.43778,12.622 4.43778,10.622 1.5,9.5C 1.38929,8.88258 1.05596,8.38258 0.5,8C 4.87978,6.77132 7.71311,8.27132 9,12.5C 11.6865,11.287 14.5198,10.6203 17.5,10.5 Z"/></g>
<g><path style="opacity:1" fill="#e2f4f2" d="M -0.5,9.5 C 0.166667,9.5 0.833333,9.5 1.5,9.5C 4.43778,10.622 6.43778,12.622 7.5,15.5C 5.5891,15.5743 4.42244,16.5743 4,18.5C 2.95099,22.1325 2.11766,25.7992 1.5,29.5C 0.833333,29.5 0.166667,29.5 -0.5,29.5C -0.5,22.8333 -0.5,16.1667 -0.5,9.5 Z"/></g>
<g><path style="opacity:1" fill="#71b0b5" d="M 7.5,15.5 C 9.5,15.5 11.5,15.5 13.5,15.5C 14.7942,16.2899 15.9609,17.2899 17,18.5C 17.2463,21.8897 17.7463,25.223 18.5,28.5C 18.3764,29.1067 18.0431,29.44 17.5,29.5C 16.4324,28.5655 15.099,28.2322 13.5,28.5C 13.7148,26.8212 13.0481,25.8212 11.5,25.5C 13.18,23.2736 12.8466,21.6069 10.5,20.5C 12.0781,18.6824 11.5781,17.6824 9,17.5C 7.11045,17.7852 5.77712,18.7852 5,20.5C 4.45721,23.8678 4.62388,27.2011 5.5,30.5C 3.90097,30.7678 2.56764,30.4345 1.5,29.5C 2.11766,25.7992 2.95099,22.1325 4,18.5C 4.42244,16.5743 5.5891,15.5743 7.5,15.5 Z"/></g>
<g><path style="opacity:1" fill="#375156" d="M 10.5,20.5 C 12.8466,21.6069 13.18,23.2736 11.5,25.5C 10.5,25.5 9.5,25.5 8.5,25.5C 8.07729,23.2188 8.74395,21.5521 10.5,20.5 Z"/></g>
<g><path style="opacity:1" fill="#c2ccd4" d="M 63.5,18.5 C 66.3198,18.2475 68.9865,18.7475 71.5,20C 66.8788,20.8176 62.5455,22.3176 58.5,24.5C 55.8447,23.3816 53.178,23.3816 50.5,24.5C 50.3505,23.448 50.5172,22.448 51,21.5C 54.7519,18.9231 58.9186,17.9231 63.5,18.5 Z"/></g>
<g><path style="opacity:1" fill="#f6f7f7" d="M 75.5,16.5 C 79.2391,16.9991 82.9058,17.9991 86.5,19.5C 89.6246,22.7699 92.9579,25.7699 96.5,28.5C 107.126,41.7203 112.792,56.7203 113.5,73.5C 115.607,80.8455 118.107,88.1788 121,95.5C 122.486,100.777 123.653,106.111 124.5,111.5C 124.5,117.833 124.5,124.167 124.5,130.5C 123.148,140.211 121.481,149.878 119.5,159.5C 117.6,161.619 115.934,163.953 114.5,166.5C 113.624,166.631 112.957,166.298 112.5,165.5C 113.752,163.999 114.752,162.332 115.5,160.5C 114.311,159.571 112.978,159.238 111.5,159.5C 111.5,157.5 111.5,155.5 111.5,153.5C 108.164,153.467 104.997,154.134 102,155.5C 101.51,154.207 101.343,152.873 101.5,151.5C 101.263,150.209 101.596,149.209 102.5,148.5C 105.734,148.795 108.734,148.129 111.5,146.5C 109.565,145.787 109.232,144.787 110.5,143.5C 114.746,141.119 116.746,137.453 116.5,132.5C 116.918,123.344 113.585,116.011 106.5,110.5C 106.833,108.5 107.167,106.5 107.5,104.5C 109.441,102.989 109.941,100.989 109,98.5C 108.092,96.5614 106.592,95.5614 104.5,95.5C 104.36,89.8096 103.026,84.4763 100.5,79.5C 103.239,71.3078 100.239,67.3078 91.5,67.5C 91.5,67.1667 91.5,66.8333 91.5,66.5C 91.3118,64.8967 91.8118,63.5634 93,62.5C 94.9562,62.7845 97.1229,62.7845 99.5,62.5C 99.8566,59.0151 98.3566,56.6817 95,55.5C 93.9701,55.8361 93.4701,56.5028 93.5,57.5C 92.1667,57.1667 90.8333,56.8333 89.5,56.5C 89.1667,56.5 88.8333,56.5 88.5,56.5C 88.8432,54.5168 88.1765,53.1834 86.5,52.5C 86.5,52.1667 86.5,51.8333 86.5,51.5C 89.5766,48.6566 88.9099,47.3232 84.5,47.5C 84.5,46.1667 84.5,44.8333 84.5,43.5C 81.001,43.259 80.6677,44.0924 83.5,46C 83,46.1667 82.5,46.3333 82,46.5C 78.3946,45.2739 74.8946,43.9406 71.5,42.5C 68.9907,43.8431 66.3241,44.3431 63.5,44C 60.7517,40.668 58.9184,36.8347 58,32.5C 57.5034,34.8098 57.3367,37.1432 57.5,39.5C 56.448,39.3505 55.448,39.5172 54.5,40C 55.5536,41.3876 55.7203,42.8876 55,44.5C 43.5103,59.0134 31.5103,73.3467 19,87.5C 18.6397,89.4211 17.8064,91.0878 16.5,92.5C 15.5108,88.8927 15.1774,85.226 15.5,81.5C 20.6475,68.4955 25.3142,55.1621 29.5,41.5C 31.1888,38.1224 32.8554,34.7891 34.5,31.5C 36.0008,26.6762 38.6674,22.6762 42.5,19.5C 45.8673,20.1767 48.534,21.8433 50.5,24.5C 53.178,23.3816 55.8447,23.3816 58.5,24.5C 62.5455,22.3176 66.8788,20.8176 71.5,20C 68.9865,18.7475 66.3198,18.2475 63.5,18.5C 59.3952,17.9745 55.3952,16.8078 51.5,15C 54.028,13.9826 54.028,12.8159 51.5,11.5C 52,11.1667 52.5,10.8333 53,10.5C 55.7952,11.1852 58.6285,11.6852 61.5,12C 65.5982,15.1992 70.2648,16.6992 75.5,16.5 Z"/></g>
<g><path style="opacity:1" fill="#a3d6d9" d="M 10.5,20.5 C 8.74395,21.5521 8.07729,23.2188 8.5,25.5C 9.5,25.5 10.5,25.5 11.5,25.5C 13.0481,25.8212 13.7148,26.8212 13.5,28.5C 15.099,28.2322 16.4324,28.5655 17.5,29.5C 17.38,30.5862 16.7133,31.2528 15.5,31.5C 13.2644,30.7815 11.0978,30.4482 9,30.5C 7.64849,32.5938 7.14849,34.9272 7.5,37.5C 3.93024,37.0995 1.76358,35.0995 1,31.5C 0.617425,32.056 0.117425,32.3893 -0.5,32.5C -0.5,31.5 -0.5,30.5 -0.5,29.5C 0.166667,29.5 0.833333,29.5 1.5,29.5C 2.56764,30.4345 3.90097,30.7678 5.5,30.5C 4.62388,27.2011 4.45721,23.8678 5,20.5C 5.77712,18.7852 7.11045,17.7852 9,17.5C 11.5781,17.6824 12.0781,18.6824 10.5,20.5 Z"/></g>
<g><path style="opacity:1" fill="#f7f8f8" d="M 231.5,1.5 C 239.527,2.48757 247.527,2.8209 255.5,2.5C 250.223,3.65982 244.889,4.49315 239.5,5C 260.761,6.82131 260.761,7.65464 239.5,7.5C 239.5,18.1667 239.5,28.8333 239.5,39.5C 242.167,39.5 244.833,39.5 247.5,39.5C 247.5,40.8333 247.5,42.1667 247.5,43.5C 255.5,43.5 263.5,43.5 271.5,43.5C 271.5,42.1667 271.5,40.8333 271.5,39.5C 276.833,39.5 282.167,39.5 287.5,39.5C 287.5,42.1667 287.5,44.8333 287.5,47.5C 292.833,47.5 298.167,47.5 303.5,47.5C 303.5,50.1667 303.5,52.8333 303.5,55.5C 298.167,55.5 292.833,55.5 287.5,55.5C 287.5,60.8333 287.5,66.1667 287.5,71.5C 290.167,71.5 292.833,71.5 295.5,71.5C 295.5,74.1667 295.5,76.8333 295.5,79.5C 300.833,79.5 306.167,79.5 311.5,79.5C 311.5,76.8333 311.5,74.1667 311.5,71.5C 314.167,71.5 316.833,71.5 319.5,71.5C 319.5,68.8333 319.5,66.1667 319.5,63.5C 322.167,63.5 324.833,63.5 327.5,63.5C 327.5,71.5 327.5,79.5 327.5,87.5C 327.5,89.5 327.5,91.5 327.5,93.5C 320.876,94.3857 314.209,95.0523 307.5,95.5C 300.791,95.0523 294.124,94.3857 287.5,93.5C 287.5,91.5 287.5,89.5 287.5,87.5C 283.407,87.4778 279.407,86.8112 275.5,85.5C 271.558,86.4929 267.558,87.1596 263.5,87.5C 255.202,86.2982 246.869,85.4649 238.5,85C 237.366,83.984 237.699,83.3173 239.5,83C 237.667,82.5 236.5,81.3333 236,79.5C 235.667,80.1667 235.333,80.8333 235,81.5C 234.311,80.6433 233.478,79.9767 232.5,79.5C 231.061,70.0987 231.395,60.7654 233.5,51.5C 233.564,49.6107 233.064,47.9441 232,46.5C 231.5,31.5037 231.333,16.5037 231.5,1.5 Z"/></g>
<g><path style="opacity:1" fill="#e5f2f3" d="M 31.5,-0.5 C 34.1667,-0.5 36.8333,-0.5 39.5,-0.5C 39.5,0.5 39.5,1.5 39.5,2.5C 38.5489,3.91866 38.2155,5.58533 38.5,7.5C 38.8094,11.7047 38.1428,15.7047 36.5,19.5C 35.0695,19.4208 33.7362,19.7542 32.5,20.5C 31.8333,18.8333 31.1667,17.1667 30.5,15.5C 29.6717,20.1315 29.1717,24.7982 29,29.5C 27.5619,30.9003 26.7286,32.567 26.5,34.5C 25.0695,34.5792 23.7362,34.2458 22.5,33.5C 22.1667,34.5 21.8333,35.5 21.5,36.5C 22.9661,39.3428 23.6328,42.1761 23.5,45C 22.8333,45.6667 22.1667,46.3333 21.5,47C 22.6219,50.4085 22.7886,53.9085 22,57.5C 19.0899,58.4503 17.9232,60.4503 18.5,63.5C 16.076,63.8076 13.7427,63.4742 11.5,62.5C 10.8257,60.4835 9.65906,58.8168 8,57.5C 7.3826,54.8236 8.21593,54.157 10.5,55.5C 12.0255,55.0057 13.3588,54.339 14.5,53.5C 15.8009,52.1155 15.8009,50.6155 14.5,49C 12.6476,48.2274 11.3143,48.7274 10.5,50.5C 5.47431,51.2176 3.64098,48.8843 5,43.5C 5.66667,40.8333 6.33333,40.8333 7,43.5C 6.65342,41.3901 6.82008,39.3901 7.5,37.5C 7.14849,34.9272 7.64849,32.5938 9,30.5C 11.0978,30.4482 13.2644,30.7815 15.5,31.5C 16.7133,31.2528 17.38,30.5862 17.5,29.5C 18.0431,29.44 18.3764,29.1067 18.5,28.5C 17.7463,25.223 17.2463,21.8897 17,18.5C 15.9609,17.2899 14.7942,16.2899 13.5,15.5C 14.7503,13.8459 16.0837,12.1793 17.5,10.5C 20.9396,8.94509 24.2729,7.11175 27.5,5C 29.4641,3.54905 30.7974,1.71572 31.5,-0.5 Z"/></g>
<g><path style="opacity:1" fill="#53697e" d="M 67.5,51.5 C 64.2244,52.1216 62.8911,54.1216 63.5,57.5C 61.8297,57.7512 60.3297,58.4178 59,59.5C 58.6012,59.2716 58.4346,58.9382 58.5,58.5C 58.5731,53.3457 60.9064,49.6791 65.5,47.5C 70.326,46.1354 74.9927,46.6354 79.5,49C 75.8333,49.3333 72.1667,49.6667 68.5,50C 67.944,50.3826 67.6107,50.8826 67.5,51.5 Z"/></g>
<g><path style="opacity:1" fill="#707e90" d="M 86.5,51.5 C 86.5,51.8333 86.5,52.1667 86.5,52.5C 87.8595,54.0093 87.3595,54.676 85,54.5C 82.6721,54.183 80.8387,53.0163 79.5,51C 75.9733,50.1925 72.6399,50.3592 69.5,51.5C 68.8333,51.5 68.1667,51.5 67.5,51.5C 67.6107,50.8826 67.944,50.3826 68.5,50C 72.1667,49.6667 75.8333,49.3333 79.5,49C 74.9927,46.6354 70.326,46.1354 65.5,47.5C 73.155,44.1813 80.155,45.5146 86.5,51.5 Z"/></g>
<g><path style="opacity:1" fill="#cdd0d5" d="M 69.5,51.5 C 72.6399,50.3592 75.9733,50.1925 79.5,51C 80.8387,53.0163 82.6721,54.183 85,54.5C 87.3595,54.676 87.8595,54.0093 86.5,52.5C 88.1765,53.1834 88.8432,54.5168 88.5,56.5C 86.5454,55.6765 84.5454,55.5099 82.5,56C 83.8491,56.7724 84.6824,57.9391 85,59.5C 85.4966,61.8098 85.6633,64.1432 85.5,66.5C 83.4195,65.2727 81.4195,63.7727 79.5,62C 81.0526,60.9032 82.386,59.5699 83.5,58C 81.2558,58.6953 78.9225,59.5287 76.5,60.5C 76.7385,57.8517 78.0718,56.0183 80.5,55C 79.0267,54.2904 78.3601,53.1238 78.5,51.5C 75.5,51.5 72.5,51.5 69.5,51.5 Z"/></g>
<g><path style="opacity:1" fill="#eaeff0" d="M 111.5,-0.5 C 127.5,-0.5 143.5,-0.5 159.5,-0.5C 163.614,0.826068 168.114,1.49273 173,1.5C 189.888,-0.084226 206.721,0.249107 223.5,2.5C 223.092,5.53044 222.426,8.53044 221.5,11.5C 222.979,22.4404 223.979,33.4404 224.5,44.5C 225.719,45.2634 226.719,46.2634 227.5,47.5C 228.086,47.2907 228.586,46.9574 229,46.5C 229.167,48 229.333,49.5 229.5,51C 228.445,61.4848 228.278,71.9848 229,82.5C 229.707,84.0806 230.54,85.5806 231.5,87C 234.496,87.5216 236.829,89.0216 238.5,91.5C 244.104,90.5456 249.771,90.2123 255.5,90.5C 255.5,92.1667 255.5,93.8333 255.5,95.5C 266.167,96.1667 276.833,96.8333 287.5,97.5C 287.5,98.5 287.5,99.5 287.5,100.5C 290.167,100.5 292.833,100.5 295.5,100.5C 295.5,102.167 295.5,103.833 295.5,105.5C 298.167,105.5 300.833,105.5 303.5,105.5C 303.5,107.5 303.5,109.5 303.5,111.5C 309.5,111.5 315.5,111.5 321.5,111.5C 319.96,104.947 321.96,99.9472 327.5,96.5C 342.833,95.1667 358.167,95.1667 373.5,96.5C 375.879,101.163 376.879,106.163 376.5,111.5C 378.833,111.5 381.167,111.5 383.5,111.5C 383.192,109.076 383.526,106.743 384.5,104.5C 388.785,102.896 391.118,99.8964 391.5,95.5C 396.833,95.5 402.167,95.5 407.5,95.5C 418.167,95.5 428.833,95.5 439.5,95.5C 440.386,102.124 441.052,108.791 441.5,115.5C 440.469,127.872 440.469,140.206 441.5,152.5C 441.058,153.739 440.391,154.739 439.5,155.5C 439.149,140.967 439.149,126.3 439.5,111.5C 436.833,111.5 434.167,111.5 431.5,111.5C 426.167,111.5 420.833,111.5 415.5,111.5C 415.5,110.167 415.5,108.833 415.5,107.5C 412.781,107.603 410.115,107.269 407.5,106.5C 401.744,107.057 396.41,108.724 391.5,111.5C 391.5,119.5 391.5,127.5 391.5,135.5C 390.5,135.5 389.5,135.5 388.5,135.5C 388.5,138.167 388.5,140.833 388.5,143.5C 386.833,143.5 385.167,143.5 383.5,143.5C 383.5,138.167 383.5,132.833 383.5,127.5C 381.5,127.5 379.5,127.5 377.5,127.5C 377.823,123.774 377.489,120.107 376.5,116.5C 373.806,112.149 371.139,107.815 368.5,103.5C 357.519,103.878 346.519,104.211 335.5,104.5C 335.5,106.833 335.5,109.167 335.5,111.5C 333.076,111.192 330.743,111.526 328.5,112.5C 326.705,117.346 325.705,122.346 325.5,127.5C 323.5,127.5 321.5,127.5 319.5,127.5C 319.5,132.833 319.5,138.167 319.5,143.5C 315.5,143.5 311.5,143.5 307.5,143.5C 307.5,140.833 307.5,138.167 307.5,135.5C 306.167,135.5 304.833,135.5 303.5,135.5C 303.665,132.482 303.498,129.482 303,126.5C 300.5,124.333 298,122.167 295.5,120C 287.447,119.493 279.447,118.66 271.5,117.5C 271.5,115.5 271.5,113.5 271.5,111.5C 260.833,111.5 250.167,111.5 239.5,111.5C 239.823,107.774 239.489,104.107 238.5,100.5C 237.575,99.3595 236.741,99.3595 236,100.5C 233.595,98.1787 231.928,98.8454 231,102.5C 230.667,105.5 230.333,108.5 230,111.5C 230.625,103.713 228.625,96.7135 224,90.5C 223.858,76.1028 223.025,61.7694 221.5,47.5C 216.833,47.5 212.167,47.5 207.5,47.5C 207.5,42.1667 207.5,36.8333 207.5,31.5C 201.5,31.5 195.5,31.5 189.5,31.5C 190.264,36.1405 189.097,40.1405 186,43.5C 185.832,51.4931 185.999,59.4931 186.5,67.5C 185.942,74.8597 185.276,82.1931 184.5,89.5C 183.5,89.5 182.5,89.5 181.5,89.5C 181.5,91.5 181.5,93.5 181.5,95.5C 179.5,95.5 177.5,95.5 175.5,95.5C 175.5,94.1667 175.5,92.8333 175.5,91.5C 172.833,91.5 170.167,91.5 167.5,91.5C 167.5,92.8333 167.5,94.1667 167.5,95.5C 159.493,95.6664 151.493,95.4997 143.5,95C 141.638,93.6343 139.972,92.1343 138.5,90.5C 139.239,90.631 139.906,90.4643 140.5,90C 139.185,88.6054 139.519,87.6054 141.5,87C 139.833,85.3333 138.167,83.6667 136.5,82C 137.167,81.6667 137.833,81.3333 138.5,81C 137.549,77.9433 137.216,74.7766 137.5,71.5C 136.167,71.5 134.833,71.5 133.5,71.5C 133.5,66.1667 133.5,60.8333 133.5,55.5C 136.833,55.5 140.167,55.5 143.5,55.5C 143.5,52.1667 143.5,48.8333 143.5,45.5C 151.568,45.5091 159.568,46.1757 167.5,47.5C 167.5,44.8333 167.5,42.1667 167.5,39.5C 170.167,39.5 172.833,39.5 175.5,39.5C 175.5,41.5 175.5,43.5 175.5,45.5C 176.833,45.5 178.167,45.5 179.5,45.5C 179.5,43.5 179.5,41.5 179.5,39.5C 180.5,39.5 181.5,39.5 182.5,39.5C 182.5,36.8333 182.5,34.1667 182.5,31.5C 180.167,31.5 177.833,31.5 175.5,31.5C 175.5,22.5 175.5,13.5 175.5,4.5C 170.125,4.17182 164.792,4.50515 159.5,5.5C 162.107,6.31844 164.774,6.81844 167.5,7C 158.086,7.06224 148.752,7.89558 139.5,9.5C 135.593,8.18884 131.593,7.52217 127.5,7.5C 129.717,5.92006 132.384,4.92006 135.5,4.5C 140.802,3.67053 146.136,3.17053 151.5,3C 138.186,1.94526 124.853,1.44526 111.5,1.5C 111.5,0.833333 111.5,0.166667 111.5,-0.5 Z"/></g>
<g><path style="opacity:1" fill="#eef0f0" d="M 423.5,-0.5 C 436.833,-0.5 450.167,-0.5 463.5,-0.5C 463.5,-0.166667 463.5,0.166667 463.5,0.5C 452.778,0.504451 442.111,1.17112 431.5,2.5C 431.5,4.16667 431.5,5.83333 431.5,7.5C 433.167,7.5 434.833,7.5 436.5,7.5C 436.5,10.1667 436.5,12.8333 436.5,15.5C 437.5,15.5 438.5,15.5 439.5,15.5C 439.499,23.5173 439.166,31.5173 438.5,39.5C 437.5,39.5 436.5,39.5 435.5,39.5C 435.5,44.8333 435.5,50.1667 435.5,55.5C 436.5,55.5 437.5,55.5 438.5,55.5C 438.5,58.1667 438.5,60.8333 438.5,63.5C 442.833,63.5 447.167,63.5 451.5,63.5C 452.824,71.4318 453.491,79.4318 453.5,87.5C 454.833,87.5 456.167,87.5 457.5,87.5C 457.478,91.5932 456.811,95.5932 455.5,99.5C 456.651,103.437 457.484,107.437 458,111.5C 458.667,125.5 458.667,139.5 458,153.5C 455.984,154.955 455.151,156.955 455.5,159.5C 450.167,159.5 444.833,159.5 439.5,159.5C 439.5,158.167 439.5,156.833 439.5,155.5C 440.391,154.739 441.058,153.739 441.5,152.5C 440.469,140.206 440.469,127.872 441.5,115.5C 441.052,108.791 440.386,102.124 439.5,95.5C 428.833,95.5 418.167,95.5 407.5,95.5C 407.5,94.5 407.5,93.5 407.5,92.5C 410.167,92.5 412.833,92.5 415.5,92.5C 415.5,91.5 415.5,90.5 415.5,89.5C 423.568,89.4909 431.568,88.8243 439.5,87.5C 439.5,84.8333 439.5,82.1667 439.5,79.5C 438.5,79.5 437.5,79.5 436.5,79.5C 436.5,76.8333 436.5,74.1667 436.5,71.5C 435.5,71.5 434.5,71.5 433.5,71.5C 433.5,68.8333 433.5,66.1667 433.5,63.5C 430.102,63.8204 426.768,63.487 423.5,62.5C 426.086,61.52 428.753,61.1866 431.5,61.5C 431.5,60.1667 431.5,58.8333 431.5,57.5C 428.833,57.5 426.167,57.5 423.5,57.5C 423.5,55.8333 423.5,54.1667 423.5,52.5C 426.167,52.5 428.833,52.5 431.5,52.5C 431.5,38.1667 431.5,23.8333 431.5,9.5C 428.833,9.5 426.167,9.5 423.5,9.5C 423.5,7.83333 423.5,6.16667 423.5,4.5C 420.833,4.5 418.167,4.5 415.5,4.5C 415.5,5.5 415.5,6.5 415.5,7.5C 410.125,7.82818 404.792,7.49485 399.5,6.5C 410.085,5.18194 410.085,4.51528 399.5,4.5C 399.5,3.5 399.5,2.5 399.5,1.5C 406.007,0.313345 412.674,0.313345 419.5,1.5C 421.333,1.41456 422.666,0.747897 423.5,-0.5 Z"/></g>
<g><path style="opacity:1" fill="#eaeced" d="M 67.5,51.5 C 68.1667,51.5 68.8333,51.5 69.5,51.5C 72.5,51.5 75.5,51.5 78.5,51.5C 78.3601,53.1238 79.0267,54.2904 80.5,55C 78.0718,56.0183 76.7385,57.8517 76.5,60.5C 73.5924,61.2638 70.5924,61.2638 67.5,60.5C 66.1667,59.5 64.8333,58.5 63.5,57.5C 62.8911,54.1216 64.2244,52.1216 67.5,51.5 Z"/></g>
<g><path style="opacity:1" fill="#b4baba" d="M 63.5,57.5 C 64.8333,58.5 66.1667,59.5 67.5,60.5C 65.5168,60.1568 64.1834,60.8235 63.5,62.5C 61.2528,60.2309 59.2528,60.5642 57.5,63.5C 57.1662,66.2748 55.8329,66.9415 53.5,65.5C 54.7383,62.7682 56.405,60.4348 58.5,58.5C 58.4346,58.9382 58.6012,59.2716 59,59.5C 60.3297,58.4178 61.8297,57.7512 63.5,57.5 Z"/></g>
<g><path style="opacity:1" fill="#3f4c4f" d="M 63.5,62.5 C 63.5,62.8333 63.5,63.1667 63.5,63.5C 62.0413,63.4326 60.7079,63.7659 59.5,64.5C 59.1583,63.6618 58.4916,63.3284 57.5,63.5C 59.2528,60.5642 61.2528,60.2309 63.5,62.5 Z"/></g>
<g><path style="opacity:1" fill="#a5adb9" d="M 91.5,66.5 C 90.5,66.5 89.5,66.5 88.5,66.5C 88.7076,64.0799 88.3742,61.7466 87.5,59.5C 88.6119,58.7348 89.2786,57.7348 89.5,56.5C 90.8333,56.8333 92.1667,57.1667 93.5,57.5C 93.4701,56.5028 93.9701,55.8361 95,55.5C 98.3566,56.6817 99.8566,59.0151 99.5,62.5C 97.1229,62.7845 94.9562,62.7845 93,62.5C 91.8118,63.5634 91.3118,64.8967 91.5,66.5 Z"/></g>
<g><path style="opacity:1" fill="#636771" d="M 93.5,57.5 C 95.2128,58.305 96.8794,59.305 98.5,60.5C 96.8647,61.6808 95.198,61.6808 93.5,60.5C 92.4376,59.5754 92.4376,58.5754 93.5,57.5 Z"/></g>
<g><path style="opacity:1" fill="#696e7a" d="M 88.5,56.5 C 88.8333,56.5 89.1667,56.5 89.5,56.5C 89.2786,57.7348 88.6119,58.7348 87.5,59.5C 88.3742,61.7466 88.7076,64.0799 88.5,66.5C 87.5,66.5 86.5,66.5 85.5,66.5C 85.6633,64.1432 85.4966,61.8098 85,59.5C 84.6824,57.9391 83.8491,56.7724 82.5,56C 84.5454,55.5099 86.5454,55.6765 88.5,56.5 Z"/></g>
<g><path style="opacity:1" fill="#617a9d" d="M 63.5,63.5 C 63.7438,66.2626 65.0771,68.4293 67.5,70C 65.255,69.8047 63.4216,68.6381 62,66.5C 61.6012,66.7284 61.4346,67.0618 61.5,67.5C 60.5987,66.7095 59.9321,65.7095 59.5,64.5C 60.7079,63.7659 62.0413,63.4326 63.5,63.5 Z"/></g>
<g><path style="opacity:1" fill="#d2e6e6" d="M 36.5,19.5 C 36.477,21.9267 35.977,24.26 35,26.5C 33.2835,27.5523 32.2835,26.8856 32,24.5C 31.5034,26.8098 31.3367,29.1432 31.5,31.5C 32.5,31.5 33.5,31.5 34.5,31.5C 32.8554,34.7891 31.1888,38.1224 29.5,41.5C 25.3142,55.1621 20.6475,68.4955 15.5,81.5C 11.7421,72.8355 8.57546,63.8355 6,54.5C 4.30524,51.0821 2.80524,47.5821 1.5,44C 1.16389,42.9701 0.497222,42.4701 -0.5,42.5C -0.5,39.1667 -0.5,35.8333 -0.5,32.5C 0.117425,32.3893 0.617425,32.056 1,31.5C 1.76358,35.0995 3.93024,37.0995 7.5,37.5C 6.82008,39.3901 6.65342,41.3901 7,43.5C 6.33333,40.8333 5.66667,40.8333 5,43.5C 3.64098,48.8843 5.47431,51.2176 10.5,50.5C 10.5,51.5 10.5,52.5 10.5,53.5C 11.8333,53.5 13.1667,53.5 14.5,53.5C 13.3588,54.339 12.0255,55.0057 10.5,55.5C 8.21593,54.157 7.3826,54.8236 8,57.5C 9.65906,58.8168 10.8257,60.4835 11.5,62.5C 13.7427,63.4742 16.076,63.8076 18.5,63.5C 17.9232,60.4503 19.0899,58.4503 22,57.5C 22.7886,53.9085 22.6219,50.4085 21.5,47C 22.1667,46.3333 22.8333,45.6667 23.5,45C 23.6328,42.1761 22.9661,39.3428 21.5,36.5C 21.8333,35.5 22.1667,34.5 22.5,33.5C 23.7362,34.2458 25.0695,34.5792 26.5,34.5C 26.7286,32.567 27.5619,30.9003 29,29.5C 29.1717,24.7982 29.6717,20.1315 30.5,15.5C 31.1667,17.1667 31.8333,18.8333 32.5,20.5C 33.7362,19.7542 35.0695,19.4208 36.5,19.5 Z"/></g>
<g><path style="opacity:1" fill="#e6dfd9" d="M 85.5,66.5 C 86.5,66.5 87.5,66.5 88.5,66.5C 89.5,66.5 90.5,66.5 91.5,66.5C 91.5,66.8333 91.5,67.1667 91.5,67.5C 89.283,68.3686 86.9496,68.702 84.5,68.5C 82.5819,67.1319 80.4152,66.1319 78,65.5C 76.8869,66.7111 75.7202,66.7111 74.5,65.5C 73.8658,67.7724 72.5324,69.4391 70.5,70.5C 67.8061,68.4728 65.4728,66.1395 63.5,63.5C 63.5,63.1667 63.5,62.8333 63.5,62.5C 64.1834,60.8235 65.5168,60.1568 67.5,60.5C 70.5924,61.2638 73.5924,61.2638 76.5,60.5C 78.9225,59.5287 81.2558,58.6953 83.5,58C 82.386,59.5699 81.0526,60.9032 79.5,62C 81.4195,63.7727 83.4195,65.2727 85.5,66.5 Z"/></g>
<g><path style="opacity:1" fill="#4a586c" d="M 63.5,63.5 C 65.4728,66.1395 67.8061,68.4728 70.5,70.5C 68.6721,72.115 66.6721,72.4483 64.5,71.5C 63.5,70.1667 62.5,68.8333 61.5,67.5C 61.4346,67.0618 61.6012,66.7284 62,66.5C 63.4216,68.6381 65.255,69.8047 67.5,70C 65.0771,68.4293 63.7438,66.2626 63.5,63.5 Z"/></g>
<g><path style="opacity:1" fill="#ecbe9f" d="M 84.5,68.5 C 84.4142,69.4959 84.7476,70.3292 85.5,71C 87.2785,70.0209 88.9452,70.3542 90.5,72C 91.8333,74.6667 93.8333,76.6667 96.5,78C 93.8999,78.8826 91.7332,80.3826 90,82.5C 89.3698,84.9034 90.2031,86.7367 92.5,88C 91.944,88.3826 91.6107,88.8826 91.5,89.5C 89.4352,89.4828 87.4352,89.1495 85.5,88.5C 85.4448,85.9022 85.1114,83.2356 84.5,80.5C 82.9547,79.5481 81.288,79.2148 79.5,79.5C 79.719,78.325 79.3857,77.325 78.5,76.5C 76.1167,77.462 75.1167,76.462 75.5,73.5C 71.8333,73.5 68.1667,73.5 64.5,73.5C 64.5,72.8333 64.5,72.1667 64.5,71.5C 66.6721,72.4483 68.6721,72.115 70.5,70.5C 72.5324,69.4391 73.8658,67.7724 74.5,65.5C 75.7202,66.7111 76.8869,66.7111 78,65.5C 80.4152,66.1319 82.5819,67.1319 84.5,68.5 Z"/></g>
<g><path style="opacity:1" fill="#eff0f0" d="M 86.5,51.5 C 80.155,45.5146 73.155,44.1813 65.5,47.5C 60.9064,49.6791 58.5731,53.3457 58.5,58.5C 56.405,60.4348 54.7383,62.7682 53.5,65.5C 55.8329,66.9415 57.1662,66.2748 57.5,63.5C 58.4916,63.3284 59.1583,63.6618 59.5,64.5C 59.9321,65.7095 60.5987,66.7095 61.5,67.5C 62.5,68.8333 63.5,70.1667 64.5,71.5C 64.5,72.1667 64.5,72.8333 64.5,73.5C 61.7211,74.6091 60.0545,76.6091 59.5,79.5C 58.448,79.3505 57.448,79.5172 56.5,80C 53.5,82.6667 50.5,85.3333 47.5,88C 41.2994,90.479 34.9661,91.3123 28.5,90.5C 27.1603,94.4982 28.1603,97.8315 31.5,100.5C 31.8782,102.921 32.5448,105.254 33.5,107.5C 33.5,107.833 33.5,108.167 33.5,108.5C 27.5637,109.682 21.5637,110.682 15.5,111.5C 15.1667,106.167 14.8333,100.833 14.5,95.5C 11.9208,95.9167 9.75417,95.25 8,93.5C 6.93348,95.2826 5.43348,95.7826 3.5,95C 4.45852,93.2927 5.12519,91.4594 5.5,89.5C 4.29867,86.2656 2.96534,83.099 1.5,80C 2.12576,79.2496 2.62576,78.4162 3,77.5C 4.75417,79.25 6.92083,79.9167 9.5,79.5C 9.81335,76.7531 9.48002,74.0865 8.5,71.5C 5.76756,69.6384 4.76756,67.3051 5.5,64.5C 4.35463,61.2519 3.5213,57.9185 3,54.5C 2.56404,51.6021 1.39737,49.2688 -0.5,47.5C -0.5,45.8333 -0.5,44.1667 -0.5,42.5C 0.497222,42.4701 1.16389,42.9701 1.5,44C 2.80524,47.5821 4.30524,51.0821 6,54.5C 8.57546,63.8355 11.7421,72.8355 15.5,81.5C 15.1774,85.226 15.5108,88.8927 16.5,92.5C 17.8064,91.0878 18.6397,89.4211 19,87.5C 31.5103,73.3467 43.5103,59.0134 55,44.5C 55.7203,42.8876 55.5536,41.3876 54.5,40C 55.448,39.5172 56.448,39.3505 57.5,39.5C 57.3367,37.1432 57.5034,34.8098 58,32.5C 58.9184,36.8347 60.7517,40.668 63.5,44C 66.3241,44.3431 68.9907,43.8431 71.5,42.5C 74.8946,43.9406 78.3946,45.2739 82,46.5C 82.5,46.3333 83,46.1667 83.5,46C 80.6677,44.0924 81.001,43.259 84.5,43.5C 84.5,44.8333 84.5,46.1667 84.5,47.5C 88.9099,47.3232 89.5766,48.6566 86.5,51.5 Z"/></g>
<g><path style="opacity:1" fill="#5e7378" d="M 14.5,53.5 C 13.1667,53.5 11.8333,53.5 10.5,53.5C 10.5,52.5 10.5,51.5 10.5,50.5C 11.3143,48.7274 12.6476,48.2274 14.5,49C 15.8009,50.6155 15.8009,52.1155 14.5,53.5 Z"/></g>
<g><path style="opacity:1" fill="#f1f3f5" d="M 159.5,-0.5 C 178.167,-0.5 196.833,-0.5 215.5,-0.5C 220.616,0.806286 225.949,1.47295 231.5,1.5C 231.333,16.5037 231.5,31.5037 232,46.5C 233.064,47.9441 233.564,49.6107 233.5,51.5C 231.395,60.7654 231.061,70.0987 232.5,79.5C 233.478,79.9767 234.311,80.6433 235,81.5C 235.333,80.8333 235.667,80.1667 236,79.5C 236.5,81.3333 237.667,82.5 239.5,83C 237.699,83.3173 237.366,83.984 238.5,85C 246.869,85.4649 255.202,86.2982 263.5,87.5C 267.558,87.1596 271.558,86.4929 275.5,85.5C 279.407,86.8112 283.407,87.4778 287.5,87.5C 287.5,89.5 287.5,91.5 287.5,93.5C 294.124,94.3857 300.791,95.0523 307.5,95.5C 314.209,95.0523 320.876,94.3857 327.5,93.5C 327.5,91.5 327.5,89.5 327.5,87.5C 331.593,87.4778 335.593,86.8112 339.5,85.5C 354.092,87.3628 368.758,88.0295 383.5,87.5C 383.5,84.8333 383.5,82.1667 383.5,79.5C 388.833,79.5 394.167,79.5 399.5,79.5C 399.5,82.1667 399.5,84.8333 399.5,87.5C 405.271,86.8872 410.604,87.5539 415.5,89.5C 415.5,90.5 415.5,91.5 415.5,92.5C 412.833,92.5 410.167,92.5 407.5,92.5C 407.5,93.5 407.5,94.5 407.5,95.5C 402.167,95.5 396.833,95.5 391.5,95.5C 391.118,99.8964 388.785,102.896 384.5,104.5C 383.526,106.743 383.192,109.076 383.5,111.5C 381.167,111.5 378.833,111.5 376.5,111.5C 376.879,106.163 375.879,101.163 373.5,96.5C 358.167,95.1667 342.833,95.1667 327.5,96.5C 321.96,99.9472 319.96,104.947 321.5,111.5C 315.5,111.5 309.5,111.5 303.5,111.5C 303.5,109.5 303.5,107.5 303.5,105.5C 300.833,105.5 298.167,105.5 295.5,105.5C 295.5,103.833 295.5,102.167 295.5,100.5C 292.833,100.5 290.167,100.5 287.5,100.5C 287.5,99.5 287.5,98.5 287.5,97.5C 276.833,96.8333 266.167,96.1667 255.5,95.5C 255.5,93.8333 255.5,92.1667 255.5,90.5C 249.771,90.2123 244.104,90.5456 238.5,91.5C 236.829,89.0216 234.496,87.5216 231.5,87C 230.54,85.5806 229.707,84.0806 229,82.5C 228.278,71.9848 228.445,61.4848 229.5,51C 229.333,49.5 229.167,48 229,46.5C 228.586,46.9574 228.086,47.2907 227.5,47.5C 226.719,46.2634 225.719,45.2634 224.5,44.5C 223.979,33.4404 222.979,22.4404 221.5,11.5C 222.426,8.53044 223.092,5.53044 223.5,2.5C 206.721,0.249107 189.888,-0.084226 173,1.5C 168.114,1.49273 163.614,0.826068 159.5,-0.5 Z"/></g>
<g><path style="opacity:1" fill="#d9e4e7" d="M 463.5,-0.5 C 466.833,-0.5 470.167,-0.5 473.5,-0.5C 473.5,57.5 473.5,115.5 473.5,173.5C 472.2,172.892 470.867,172.225 469.5,171.5C 467.547,172.156 465.547,172.489 463.5,172.5C 463.5,173.5 463.5,174.5 463.5,175.5C 436.838,176.503 410.171,176.17 383.5,174.5C 338.155,170 292.821,165.5 247.5,161C 242.173,160.137 236.839,159.303 231.5,158.5C 227.859,151.192 230.526,147.192 239.5,146.5C 239.5,145.5 239.5,144.5 239.5,143.5C 247.833,143.5 256.167,143.5 264.5,143.5C 264.666,139.154 264.499,134.821 264,130.5C 263.692,131.308 263.192,131.975 262.5,132.5C 261.756,131.009 261.09,129.509 260.5,128C 252.341,127.211 244.341,127.545 236.5,129C 236.833,128.667 237.167,128.333 237.5,128C 235.527,127.505 233.527,127.338 231.5,127.5C 231.557,131.133 230.557,131.3 228.5,128C 221.508,127.5 214.508,127.334 207.5,127.5C 207.5,122.167 207.5,116.833 207.5,111.5C 202.167,111.5 196.833,111.5 191.5,111.5C 191.762,112.978 191.429,114.311 190.5,115.5C 186.187,117.974 186.52,119.474 191.5,120C 180.934,122.214 170.267,122.88 159.5,122C 157.981,120.782 156.814,119.282 156,117.5C 155.667,118.167 155.333,118.833 155,119.5C 151.386,111.178 145.053,106.178 136,104.5C 133.276,105.687 130.443,106.353 127.5,106.5C 127.5,108.167 127.5,109.833 127.5,111.5C 126.5,111.5 125.5,111.5 124.5,111.5C 123.653,106.111 122.486,100.777 121,95.5C 118.107,88.1788 115.607,80.8455 113.5,73.5C 113.335,70.1501 113.502,66.8168 114,63.5C 114.976,68.882 116.143,74.2154 117.5,79.5C 118.758,76.2032 118.425,73.0365 116.5,70C 116.862,68.7753 117.362,67.6086 118,66.5C 119.075,70.77 119.575,75.1033 119.5,79.5C 122.167,79.5 124.833,79.5 127.5,79.5C 127.5,82.1667 127.5,84.8333 127.5,87.5C 127.5,90.1667 127.5,92.8333 127.5,95.5C 132.833,96.1667 138.167,96.8333 143.5,97.5C 143.351,98.552 143.517,99.552 144,100.5C 148.736,103.198 153.903,104.198 159.5,103.5C 159.5,106.167 159.5,108.833 159.5,111.5C 164.833,111.5 170.167,111.5 175.5,111.5C 175.5,108.833 175.5,106.167 175.5,103.5C 178.247,103.813 180.914,103.48 183.5,102.5C 185.483,100.016 187.65,97.6829 190,95.5C 191.397,90.2919 191.897,84.9586 191.5,79.5C 193.5,79.5 195.5,79.5 197.5,79.5C 197.5,76.8333 197.5,74.1667 197.5,71.5C 200.833,71.5 204.167,71.5 207.5,71.5C 207.5,74.1667 207.5,76.8333 207.5,79.5C 209.167,79.5 210.833,79.5 212.5,79.5C 212.5,82.1667 212.5,84.8333 212.5,87.5C 213.5,87.5 214.5,87.5 215.5,87.5C 215.5,90.1667 215.5,92.8333 215.5,95.5C 218.652,94.9586 221.152,95.9586 223,98.5C 224.29,102.73 224.79,107.064 224.5,111.5C 225.978,111.238 227.311,111.571 228.5,112.5C 229.263,113.719 230.263,114.719 231.5,115.5C 230.167,116.5 230.167,117.5 231.5,118.5C 238.238,119.825 244.905,119.492 251.5,117.5C 258.077,119.152 264.744,120.152 271.5,120.5C 271.5,122.833 271.5,125.167 271.5,127.5C 272.5,127.5 273.5,127.5 274.5,127.5C 274.5,130.167 274.5,132.833 274.5,135.5C 276.924,135.808 279.257,135.474 281.5,134.5C 284.61,129.057 289.277,126.724 295.5,127.5C 295.5,130.167 295.5,132.833 295.5,135.5C 296.5,135.5 297.5,135.5 298.5,135.5C 298.5,140.833 298.5,146.167 298.5,151.5C 294.833,151.5 291.167,151.5 287.5,151.5C 287.5,148.833 287.5,146.167 287.5,143.5C 282.167,143.5 276.833,143.5 271.5,143.5C 271.5,144.5 271.5,145.5 271.5,146.5C 263.19,148.075 255.19,150.241 247.5,153C 250.146,153.497 252.813,153.664 255.5,153.5C 255.5,155.5 255.5,157.5 255.5,159.5C 275.693,160.191 295.693,162.524 315.5,166.5C 319.485,166.001 323.485,165.668 327.5,165.5C 351.513,168.111 375.513,167.944 399.5,165C 394.167,164.667 388.833,164.333 383.5,164C 400.901,162.948 418.234,163.448 435.5,165.5C 444.909,164.996 454.242,163.996 463.5,162.5C 465.769,134.895 467.103,107.228 467.5,79.5C 466.167,79.5 464.833,79.5 463.5,79.5C 463.5,53.1667 463.5,26.8333 463.5,0.5C 463.5,0.166667 463.5,-0.166667 463.5,-0.5 Z"/></g>
<g><path style="opacity:1" fill="#e4c0a3" d="M 91.5,67.5 C 100.239,67.3078 103.239,71.3078 100.5,79.5C 103.026,84.4763 104.36,89.8096 104.5,95.5C 106.592,95.5614 108.092,96.5614 109,98.5C 109.941,100.989 109.441,102.989 107.5,104.5C 106.833,104.5 106.167,104.5 105.5,104.5C 106.728,102.99 106.728,101.49 105.5,100C 102.854,99.5026 100.187,99.3359 97.5,99.5C 97.5,98.1667 97.5,96.8333 97.5,95.5C 95.1667,95.5 92.8333,95.5 90.5,95.5C 90.8333,93.5 91.1667,91.5 91.5,89.5C 91.6107,88.8826 91.944,88.3826 92.5,88C 90.2031,86.7367 89.3698,84.9034 90,82.5C 91.7332,80.3826 93.8999,78.8826 96.5,78C 93.8333,76.6667 91.8333,74.6667 90.5,72C 88.9452,70.3542 87.2785,70.0209 85.5,71C 84.7476,70.3292 84.4142,69.4959 84.5,68.5C 86.9496,68.702 89.283,68.3686 91.5,67.5 Z"/></g>
<g><path style="opacity:1" fill="#dcc3ae" d="M 59.5,79.5 C 58.4263,82.0683 56.4263,83.7349 53.5,84.5C 52.7379,85.6283 52.0712,86.7949 51.5,88C 44.8762,90.3712 38.2095,92.2046 31.5,93.5C 31.5,94.1667 31.5,94.8333 31.5,95.5C 31.5,97.1667 31.5,98.8333 31.5,100.5C 28.1603,97.8315 27.1603,94.4982 28.5,90.5C 34.9661,91.3123 41.2994,90.479 47.5,88C 50.5,85.3333 53.5,82.6667 56.5,80C 57.448,79.5172 58.448,79.3505 59.5,79.5 Z"/></g>
<g><path style="opacity:1" fill="#d4a57f" d="M 85.5,88.5 C 87.4352,89.1495 89.4352,89.4828 91.5,89.5C 91.1667,91.5 90.8333,93.5 90.5,95.5C 92.8333,95.5 95.1667,95.5 97.5,95.5C 97.5,96.8333 97.5,98.1667 97.5,99.5C 100.187,99.3359 102.854,99.5026 105.5,100C 106.728,101.49 106.728,102.99 105.5,104.5C 99.918,102.843 93.918,101.509 87.5,100.5C 85.7354,99.5386 83.7354,99.2053 81.5,99.5C 81.178,101.722 81.8446,103.556 83.5,105C 82.8921,105.87 82.0588,106.37 81,106.5C 76.8726,105.761 72.706,105.261 68.5,105C 67.9747,104.308 67.3081,103.808 66.5,103.5C 65.2638,104.246 63.9305,104.579 62.5,104.5C 62.5,102.833 62.5,101.167 62.5,99.5C 58.774,99.8226 55.1073,99.4892 51.5,98.5C 58.6558,94.9582 65.4892,90.9582 72,86.5C 72.4935,88.1341 72.6602,89.8008 72.5,91.5C 73.8221,91.33 74.9887,91.6634 76,92.5C 77,91.1667 78,89.8333 79,88.5C 81.0793,90.9522 83.246,90.9522 85.5,88.5 Z"/></g>
<g><path style="opacity:1" fill="#e2b38e" d="M 64.5,73.5 C 68.1667,73.5 71.8333,73.5 75.5,73.5C 75.1167,76.462 76.1167,77.462 78.5,76.5C 79.3857,77.325 79.719,78.325 79.5,79.5C 81.288,79.2148 82.9547,79.5481 84.5,80.5C 85.1114,83.2356 85.4448,85.9022 85.5,88.5C 83.246,90.9522 81.0793,90.9522 79,88.5C 78,89.8333 77,91.1667 76,92.5C 74.9887,91.6634 73.8221,91.33 72.5,91.5C 72.6602,89.8008 72.4935,88.1341 72,86.5C 65.4892,90.9582 58.6558,94.9582 51.5,98.5C 55.1073,99.4892 58.774,99.8226 62.5,99.5C 62.5,101.167 62.5,102.833 62.5,104.5C 61.596,105.209 61.2627,106.209 61.5,107.5C 55.7414,107.214 50.0748,107.548 44.5,108.5C 43.2946,107.314 41.9613,107.314 40.5,108.5C 40.3379,106.473 40.5045,104.473 41,102.5C 42.8793,100.473 44.046,98.1398 44.5,95.5C 40.3484,93.9383 36.0151,93.2716 31.5,93.5C 38.2095,92.2046 44.8762,90.3712 51.5,88C 52.0712,86.7949 52.7379,85.6283 53.5,84.5C 56.4263,83.7349 58.4263,82.0683 59.5,79.5C 60.0545,76.6091 61.7211,74.6091 64.5,73.5 Z"/></g>
<g><path style="opacity:1" fill="#ecb081" d="M 31.5,93.5 C 36.0151,93.2716 40.3484,93.9383 44.5,95.5C 44.046,98.1398 42.8793,100.473 41,102.5C 40.5045,104.473 40.3379,106.473 40.5,108.5C 39.2578,110.511 37.5911,110.511 35.5,108.5C 35.3367,106.143 35.5034,103.81 36,101.5C 38.9101,100.55 40.0768,98.5497 39.5,95.5C 36.8333,95.5 34.1667,95.5 31.5,95.5C 31.5,94.8333 31.5,94.1667 31.5,93.5 Z"/></g>
<g><path style="opacity:1" fill="#e1b08e" d="M 31.5,95.5 C 34.1667,95.5 36.8333,95.5 39.5,95.5C 40.0768,98.5497 38.9101,100.55 36,101.5C 35.5034,103.81 35.3367,106.143 35.5,108.5C 35.5,108.833 35.5,109.167 35.5,109.5C 35.1667,109.5 34.8333,109.5 34.5,109.5C 34.6716,108.508 34.3382,107.842 33.5,107.5C 32.5448,105.254 31.8782,102.921 31.5,100.5C 31.5,98.8333 31.5,97.1667 31.5,95.5 Z"/></g>
<g><path style="opacity:1" fill="#a28673" d="M 87.5,100.5 C 93.918,101.509 99.918,102.843 105.5,104.5C 106.167,104.5 106.833,104.5 107.5,104.5C 107.167,106.5 106.833,108.5 106.5,110.5C 105.662,110.158 105.328,109.492 105.5,108.5C 103.559,106.277 101.059,104.944 98,104.5C 94.8113,105.731 91.6447,107.064 88.5,108.5C 85.5176,108.963 82.5176,109.296 79.5,109.5C 79.5,109.167 79.5,108.833 79.5,108.5C 83.5041,108.27 87.1708,107.103 90.5,105C 88.7774,104.477 87.444,103.477 86.5,102C 86.5699,101.235 86.9033,100.735 87.5,100.5 Z"/></g>
<g><path style="opacity:1" fill="#c19574" d="M 87.5,100.5 C 86.9033,100.735 86.5699,101.235 86.5,102C 87.444,103.477 88.7774,104.477 90.5,105C 87.1708,107.103 83.5041,108.27 79.5,108.5C 78.5178,107.859 77.5178,107.193 76.5,106.5C 75.0506,107.617 73.3839,108.284 71.5,108.5C 63.5513,108.16 55.5513,108.16 47.5,108.5C 46.3478,109.625 45.3478,109.625 44.5,108.5C 50.0748,107.548 55.7414,107.214 61.5,107.5C 61.2627,106.209 61.596,105.209 62.5,104.5C 63.9305,104.579 65.2638,104.246 66.5,103.5C 67.3081,103.808 67.9747,104.308 68.5,105C 72.706,105.261 76.8726,105.761 81,106.5C 82.0588,106.37 82.8921,105.87 83.5,105C 81.8446,103.556 81.178,101.722 81.5,99.5C 83.7354,99.2053 85.7354,99.5386 87.5,100.5 Z"/></g>
<g><path style="opacity:1" fill="#ab8468" d="M 79.5,108.5 C 79.5,108.833 79.5,109.167 79.5,109.5C 72.8442,109.944 66.1775,110.277 59.5,110.5C 55.107,110.491 51.107,109.824 47.5,108.5C 55.5513,108.16 63.5513,108.16 71.5,108.5C 73.3839,108.284 75.0506,107.617 76.5,106.5C 77.5178,107.193 78.5178,107.859 79.5,108.5 Z"/></g>
<g><path style="opacity:1" fill="#977155" d="M 44.5,108.5 C 45.3478,109.625 46.3478,109.625 47.5,108.5C 51.107,109.824 55.107,110.491 59.5,110.5C 66.1775,110.277 72.8442,109.944 79.5,109.5C 78.0092,111.282 76.3425,112.948 74.5,114.5C 73.5,114.5 72.5,114.5 71.5,114.5C 71.6495,113.448 71.4828,112.448 71,111.5C 68.876,112.227 66.7094,112.894 64.5,113.5C 61.3618,112.256 58.0284,111.589 54.5,111.5C 51.5,111.833 48.5,112.167 45.5,112.5C 44.2086,113.527 44.2086,114.527 45.5,115.5C 42.9499,116.358 40.4499,117.358 38,118.5C 36.7447,115.662 35.9113,112.662 35.5,109.5C 35.5,109.167 35.5,108.833 35.5,108.5C 37.5911,110.511 39.2578,110.511 40.5,108.5C 41.9613,107.314 43.2946,107.314 44.5,108.5 Z"/></g>
<g><path style="opacity:1" fill="#806f61" d="M 88.5,108.5 C 84.3864,111.551 79.7197,113.551 74.5,114.5C 76.3425,112.948 78.0092,111.282 79.5,109.5C 82.5176,109.296 85.5176,108.963 88.5,108.5 Z"/></g>
<g><path style="opacity:1" fill="#717372" d="M 97.5,112.5 C 94.7014,113.634 92.3681,115.301 90.5,117.5C 90.2148,115.712 90.5481,114.045 91.5,112.5C 93.3733,113.089 95.04,112.422 96.5,110.5C 97.2975,110.957 97.6309,111.624 97.5,112.5 Z"/></g>
<g><path style="opacity:1" fill="#7f6551" d="M 71.5,114.5 C 67.9899,114.668 64.4899,115.001 61,115.5C 59.0145,115.569 57.5145,116.235 56.5,117.5C 53.1501,117.665 49.8168,117.498 46.5,117C 45.944,116.617 45.6107,116.117 45.5,115.5C 44.2086,114.527 44.2086,113.527 45.5,112.5C 48.5,112.167 51.5,111.833 54.5,111.5C 58.0284,111.589 61.3618,112.256 64.5,113.5C 66.7094,112.894 68.876,112.227 71,111.5C 71.4828,112.448 71.6495,113.448 71.5,114.5 Z"/></g>
<g><path style="opacity:1" fill="#726860" d="M 71.5,114.5 C 72.5,114.5 73.5,114.5 74.5,114.5C 73.375,115.652 73.375,116.652 74.5,117.5C 74.5,118.167 74.5,118.833 74.5,119.5C 72.7973,120.66 72.1307,119.993 72.5,117.5C 71.1779,117.67 70.0113,117.337 69,116.5C 66.3605,118.32 63.5271,119.654 60.5,120.5C 59.2905,120.068 58.2905,119.401 57.5,118.5C 57.5,117.833 57.1667,117.5 56.5,117.5C 57.5145,116.235 59.0145,115.569 61,115.5C 64.4899,115.001 67.9899,114.668 71.5,114.5 Z"/></g>
<g><path style="opacity:1" fill="#96a4b1" d="M 106.5,110.5 C 113.585,116.011 116.918,123.344 116.5,132.5C 115.184,129.592 114.184,126.592 113.5,123.5C 110.903,119.306 108.57,114.972 106.5,110.5 Z"/></g>
<g><path style="opacity:1" fill="#bfdbda" d="M 33.5,108.5 C 33.9204,115.284 33.4204,121.95 32,128.5C 28.2108,128.377 24.3775,128.377 20.5,128.5C 18.2778,124.288 17.1112,124.621 17,129.5C 16.3292,130.252 15.4959,130.586 14.5,130.5C 15.3721,124.211 15.7054,117.878 15.5,111.5C 21.5637,110.682 27.5637,109.682 33.5,108.5 Z"/></g>
<g><path style="opacity:1" fill="#b0bbba" d="M 97.5,112.5 C 98.404,113.209 98.7373,114.209 98.5,115.5C 97.7758,119.883 95.1092,122.217 90.5,122.5C 90.5,121.167 90.5,119.833 90.5,118.5C 90.5,118.167 90.5,117.833 90.5,117.5C 92.3681,115.301 94.7014,113.634 97.5,112.5 Z"/></g>
<g><path style="opacity:1" fill="#393d40" d="M 105.5,108.5 C 104.5,108.5 103.5,108.5 102.5,108.5C 101.811,107.226 100.977,107.226 100,108.5C 99.5034,110.81 99.3367,113.143 99.5,115.5C 99.1667,115.5 98.8333,115.5 98.5,115.5C 98.7373,114.209 98.404,113.209 97.5,112.5C 97.6309,111.624 97.2975,110.957 96.5,110.5C 95.04,112.422 93.3733,113.089 91.5,112.5C 90.5481,114.045 90.2148,115.712 90.5,117.5C 90.5,117.833 90.5,118.167 90.5,118.5C 88.5,118.5 87.5,119.5 87.5,121.5C 86.8333,120.833 86.1667,120.167 85.5,119.5C 84.8784,116.224 82.8784,114.891 79.5,115.5C 79.5654,115.062 79.3988,114.728 79,114.5C 77.7292,115.883 76.2292,116.883 74.5,117.5C 73.375,116.652 73.375,115.652 74.5,114.5C 79.7197,113.551 84.3864,111.551 88.5,108.5C 91.6447,107.064 94.8113,105.731 98,104.5C 101.059,104.944 103.559,106.277 105.5,108.5 Z"/></g>
<g><path style="opacity:1" fill="#7a8da4" d="M 102.5,108.5 C 102.76,111.529 103.76,114.196 105.5,116.5C 104.1,117.1 103.1,118.1 102.5,119.5C 102.565,119.062 102.399,118.728 102,118.5C 101,119.167 100,119.833 99,120.5C 99.0187,118.893 99.1854,117.226 99.5,115.5C 99.3367,113.143 99.5034,110.81 100,108.5C 100.977,107.226 101.811,107.226 102.5,108.5 Z"/></g>
<g><path style="opacity:1" fill="#88939d" d="M 79.5,115.5 C 82.8784,114.891 84.8784,116.224 85.5,119.5C 85.728,121.355 85.0613,122.188 83.5,122C 81.0771,120.429 79.7438,118.263 79.5,115.5 Z"/></g>
<g><path style="opacity:1" fill="#827363" d="M 34.5,109.5 C 34.8333,109.5 35.1667,109.5 35.5,109.5C 35.9113,112.662 36.7447,115.662 38,118.5C 40.4499,117.358 42.9499,116.358 45.5,115.5C 45.6107,116.117 45.944,116.617 46.5,117C 49.8168,117.498 53.1501,117.665 56.5,117.5C 57.1667,117.5 57.5,117.833 57.5,118.5C 54.1667,118.5 50.8333,118.5 47.5,118.5C 43.4439,120.857 39.4439,123.19 35.5,125.5C 35.5276,120.138 35.1942,114.805 34.5,109.5 Z"/></g>
<g><path style="opacity:1" fill="#938c89" d="M 74.5,119.5 C 75.6005,120.605 76.2671,121.938 76.5,123.5C 73.4381,124.451 70.4381,123.951 67.5,122C 65.1902,121.503 62.8568,121.337 60.5,121.5C 60.5,121.167 60.5,120.833 60.5,120.5C 63.5271,119.654 66.3605,118.32 69,116.5C 70.0113,117.337 71.1779,117.67 72.5,117.5C 72.1307,119.993 72.7973,120.66 74.5,119.5 Z"/></g>
<g><path style="opacity:1" fill="#bed0d5" d="M 127.5,120.5 C 127.192,122.924 127.526,125.257 128.5,127.5C 131.915,120.593 136.081,119.927 141,125.5C 144.909,130.803 146.409,136.803 145.5,143.5C 143.167,143.5 140.833,143.5 138.5,143.5C 136.639,145.745 135.639,148.412 135.5,151.5C 134.5,151.5 133.5,151.5 132.5,151.5C 133.217,154.323 134.217,156.99 135.5,159.5C 133.549,159.773 132.049,159.107 131,157.5C 129.51,151.206 128.177,144.873 127,138.5C 125.169,144.986 123.836,151.653 123,158.5C 121.989,159.337 120.822,159.67 119.5,159.5C 121.481,149.878 123.148,140.211 124.5,130.5C 124.881,126.881 125.881,123.548 127.5,120.5 Z"/></g>
<g><path style="opacity:1" fill="#ebebeb" d="M 60.5,121.5 C 62.8568,121.337 65.1902,121.503 67.5,122C 70.4381,123.951 73.4381,124.451 76.5,123.5C 77.8333,124.5 79.1667,125.5 80.5,126.5C 82.7442,128.584 84.4108,131.084 85.5,134C 82.387,136.377 80.387,139.544 79.5,143.5C 77.8958,144.287 77.2291,145.62 77.5,147.5C 76.596,148.209 76.2627,149.209 76.5,150.5C 73.5788,150.385 70.5788,150.718 67.5,151.5C 66.2866,150.425 64.7866,149.759 63,149.5C 60.2616,149.576 57.9283,150.576 56,152.5C 53.2305,151.652 50.3971,151.319 47.5,151.5C 46.6328,148.773 44.7994,146.773 42,145.5C 41.3333,143.167 41.3333,140.833 42,138.5C 46.2895,136.048 48.1228,132.381 47.5,127.5C 50.1873,127.664 52.854,127.497 55.5,127C 56.8333,126 56.8333,125 55.5,124C 56.8491,123.228 57.6824,122.061 58,120.5C 58.6708,121.252 59.5041,121.586 60.5,121.5 Z"/></g>
<g><path style="opacity:1" fill="#ebe8e5" d="M 105.5,116.5 C 105.427,118.027 106.094,119.027 107.5,119.5C 107.413,122.739 108.08,125.739 109.5,128.5C 106.5,128.5 103.5,128.5 100.5,128.5C 100.323,126.019 101.323,124.186 103.5,123C 102.944,122.617 102.611,122.117 102.5,121.5C 102.5,120.833 102.5,120.167 102.5,119.5C 103.1,118.1 104.1,117.1 105.5,116.5 Z"/></g>
<g><path style="opacity:1" fill="#59697c" d="M 102.5,108.5 C 103.5,108.5 104.5,108.5 105.5,108.5C 105.328,109.492 105.662,110.158 106.5,110.5C 108.57,114.972 110.903,119.306 113.5,123.5C 113.59,126.152 112.924,128.485 111.5,130.5C 111.109,126.46 109.776,122.793 107.5,119.5C 106.094,119.027 105.427,118.027 105.5,116.5C 103.76,114.196 102.76,111.529 102.5,108.5 Z"/></g>
<g><path style="opacity:1" fill="#a0a49e" d="M 47.5,118.5 C 46.4975,120.011 45.8308,121.678 45.5,123.5C 44.5655,124.568 44.2322,125.901 44.5,127.5C 40.9878,128.055 37.9878,127.388 35.5,125.5C 39.4439,123.19 43.4439,120.857 47.5,118.5 Z"/></g>
<g><path style="opacity:1" fill="#546b84" d="M 98.5,115.5 C 98.8333,115.5 99.1667,115.5 99.5,115.5C 99.1854,117.226 99.0187,118.893 99,120.5C 100,119.833 101,119.167 102,118.5C 102.399,118.728 102.565,119.062 102.5,119.5C 102.5,120.167 102.5,120.833 102.5,121.5C 100.194,123.139 98.1939,125.139 96.5,127.5C 93.6272,125.373 90.6272,125.04 87.5,126.5C 86.325,126.719 85.325,126.386 84.5,125.5C 86.7662,124.686 89.0995,124.186 91.5,124C 89.6803,123.8 88.347,122.966 87.5,121.5C 87.5,119.5 88.5,118.5 90.5,118.5C 90.5,119.833 90.5,121.167 90.5,122.5C 95.1092,122.217 97.7758,119.883 98.5,115.5 Z"/></g>
<g><path style="opacity:1" fill="#c4d7dd" d="M 175.5,127.5 C 180.833,127.5 186.167,127.5 191.5,127.5C 191.5,128.5 191.5,129.5 191.5,130.5C 194.167,130.5 196.833,130.5 199.5,130.5C 199.5,132.167 199.5,133.833 199.5,135.5C 202.167,135.5 204.833,135.5 207.5,135.5C 207.5,136.5 207.5,137.5 207.5,138.5C 210.167,138.5 212.833,138.5 215.5,138.5C 215.5,140.167 215.5,141.833 215.5,143.5C 217.167,143.5 218.833,143.5 220.5,143.5C 220.335,146.518 220.502,149.518 221,152.5C 223.137,154.321 223.97,156.654 223.5,159.5C 224.873,159.343 226.207,159.51 227.5,160C 228.384,161.72 229.717,162.886 231.5,163.5C 230.903,164.139 230.07,164.472 229,164.5C 224.63,162.975 220.13,162.308 215.5,162.5C 215.5,161.5 215.5,160.5 215.5,159.5C 210.833,159.5 206.167,159.5 201.5,159.5C 201.5,162.167 201.5,164.833 201.5,167.5C 202.833,167.5 204.167,167.5 205.5,167.5C 205.5,170.167 205.5,172.833 205.5,175.5C 203.5,175.5 201.5,175.5 199.5,175.5C 199.5,176.5 199.5,177.5 199.5,178.5C 188.406,178.087 177.406,178.753 166.5,180.5C 165.252,179.96 164.085,179.293 163,178.5C 162.233,174.442 162.4,170.442 163.5,166.5C 162.96,165.252 162.293,164.085 161.5,163C 155.496,163.823 149.496,163.657 143.5,162.5C 143.5,161.5 143.5,160.5 143.5,159.5C 146.85,159.665 150.183,159.498 153.5,159C 154.978,156.961 156.978,156.128 159.5,156.5C 159.334,151.156 159.501,145.823 160,140.5C 160.333,140.167 160.667,139.833 161,139.5C 161.492,140.549 161.326,141.549 160.5,142.5C 161.325,143.386 162.325,143.719 163.5,143.5C 163.523,141.073 164.023,138.74 165,136.5C 167.889,134.366 171.056,132.699 174.5,131.5C 175.429,130.311 175.762,128.978 175.5,127.5 Z"/></g>
<g><path style="opacity:1" fill="#c4cdd4" d="M 107.5,119.5 C 109.776,122.793 111.109,126.46 111.5,130.5C 111.889,133.553 111.223,136.22 109.5,138.5C 109.704,135.482 110.037,132.482 110.5,129.5C 105.786,129.647 101.119,129.314 96.5,128.5C 96.5,128.167 96.5,127.833 96.5,127.5C 98.1939,125.139 100.194,123.139 102.5,121.5C 102.611,122.117 102.944,122.617 103.5,123C 101.323,124.186 100.323,126.019 100.5,128.5C 103.5,128.5 106.5,128.5 109.5,128.5C 108.08,125.739 107.413,122.739 107.5,119.5 Z"/></g>
<g><path style="opacity:1" fill="#c8d9dc" d="M 175.5,127.5 C 175.762,128.978 175.429,130.311 174.5,131.5C 171.056,132.699 167.889,134.366 165,136.5C 164.023,138.74 163.523,141.073 163.5,143.5C 162.325,143.719 161.325,143.386 160.5,142.5C 161.326,141.549 161.492,140.549 161,139.5C 160.667,139.833 160.333,140.167 160,140.5C 159.501,145.823 159.334,151.156 159.5,156.5C 156.978,156.128 154.978,156.961 153.5,159C 150.183,159.498 146.85,159.665 143.5,159.5C 140.833,159.5 138.167,159.5 135.5,159.5C 134.217,156.99 133.217,154.323 132.5,151.5C 133.5,151.5 134.5,151.5 135.5,151.5C 135.639,148.412 136.639,145.745 138.5,143.5C 140.833,143.5 143.167,143.5 145.5,143.5C 146.409,136.803 144.909,130.803 141,125.5C 136.081,119.927 131.915,120.593 128.5,127.5C 127.526,125.257 127.192,122.924 127.5,120.5C 127.11,117.534 127.777,114.868 129.5,112.5C 135.128,111.505 140.794,111.171 146.5,111.5C 146.833,114.167 147.167,116.833 147.5,119.5C 148.675,119.281 149.675,119.614 150.5,120.5C 151.374,122.747 151.708,125.08 151.5,127.5C 155.856,128.199 158.189,130.865 158.5,135.5C 159.167,133.833 159.833,132.167 160.5,130.5C 165.066,127.773 170.066,126.773 175.5,127.5 Z"/></g>
<g><path style="opacity:1" fill="#314d4c" d="M 17.5,132.5 C 19.1667,132.5 20.8333,132.5 22.5,132.5C 22.69,134.959 21.69,136.626 19.5,137.5C 15.1889,137.215 14.5222,135.549 17.5,132.5 Z"/></g>
<g><path style="opacity:1" fill="#bac9c7" d="M 33.5,107.5 C 34.3382,107.842 34.6716,108.508 34.5,109.5C 35.1942,114.805 35.5276,120.138 35.5,125.5C 37.9878,127.388 40.9878,128.055 44.5,127.5C 44.2322,125.901 44.5655,124.568 45.5,123.5C 45.5,125.5 45.5,127.5 45.5,129.5C 42.1401,129.384 38.8067,129.051 35.5,128.5C 35.5,131.167 35.5,133.833 35.5,136.5C 33.5,136.5 31.5,136.5 29.5,136.5C 30.7853,135.215 32.1186,133.881 33.5,132.5C 30.8037,131.442 28.1371,130.442 25.5,129.5C 22.6807,130.43 20.014,131.43 17.5,132.5C 14.5222,135.549 15.1889,137.215 19.5,137.5C 20.4387,138.327 20.1054,138.994 18.5,139.5C 17.4583,138.209 16.2917,138.209 15,139.5C 14.5026,136.854 14.3359,134.187 14.5,131.5C 14.5,131.167 14.5,130.833 14.5,130.5C 15.4959,130.586 16.3292,130.252 17,129.5C 17.1112,124.621 18.2778,124.288 20.5,128.5C 24.3775,128.377 28.2108,128.377 32,128.5C 33.4204,121.95 33.9204,115.284 33.5,108.5C 33.5,108.167 33.5,107.833 33.5,107.5 Z"/></g>
<g><path style="opacity:1" fill="#e1e1dd" d="M 47.5,118.5 C 50.8333,118.5 54.1667,118.5 57.5,118.5C 58.2905,119.401 59.2905,120.068 60.5,120.5C 60.5,120.833 60.5,121.167 60.5,121.5C 59.5041,121.586 58.6708,121.252 58,120.5C 57.6824,122.061 56.8491,123.228 55.5,124C 56.8333,125 56.8333,126 55.5,127C 52.854,127.497 50.1873,127.664 47.5,127.5C 48.1228,132.381 46.2895,136.048 42,138.5C 41.3333,140.833 41.3333,143.167 42,145.5C 44.7994,146.773 46.6328,148.773 47.5,151.5C 50.3971,151.319 53.2305,151.652 56,152.5C 57.9283,150.576 60.2616,149.576 63,149.5C 64.7866,149.759 66.2866,150.425 67.5,151.5C 67.683,153.936 67.0163,156.103 65.5,158C 65.8333,158.333 66.1667,158.667 66.5,159C 65.3333,159.167 64.1667,159.333 63,159.5C 59.2916,158.155 55.4583,156.988 51.5,156C 44.7467,155.716 38.0801,154.882 31.5,153.5C 30.8333,153.5 30.1667,153.5 29.5,153.5C 29.5,152.5 29.5,151.5 29.5,150.5C 27.396,150.799 25.396,150.466 23.5,149.5C 23.6667,149.167 23.8333,148.833 24,148.5C 26.3806,149.435 28.8806,149.768 31.5,149.5C 31.8764,146.293 30.8764,143.627 28.5,141.5C 25.7978,142.798 25.1311,142.131 26.5,139.5C 26.5,137.5 27.5,136.5 29.5,136.5C 31.5,136.5 33.5,136.5 35.5,136.5C 35.5,133.833 35.5,131.167 35.5,128.5C 38.8067,129.051 42.1401,129.384 45.5,129.5C 45.5,127.5 45.5,125.5 45.5,123.5C 45.8308,121.678 46.4975,120.011 47.5,118.5 Z"/></g>
<g><path style="opacity:1" fill="#e3ebec" d="M 463.5,0.5 C 463.5,26.8333 463.5,53.1667 463.5,79.5C 464.833,79.5 466.167,79.5 467.5,79.5C 467.103,107.228 465.769,134.895 463.5,162.5C 454.242,163.996 444.909,164.996 435.5,165.5C 418.234,163.448 400.901,162.948 383.5,164C 388.833,164.333 394.167,164.667 399.5,165C 375.513,167.944 351.513,168.111 327.5,165.5C 323.485,165.668 319.485,166.001 315.5,166.5C 295.693,162.524 275.693,160.191 255.5,159.5C 255.5,157.5 255.5,155.5 255.5,153.5C 252.813,153.664 250.146,153.497 247.5,153C 255.19,150.241 263.19,148.075 271.5,146.5C 271.5,145.5 271.5,144.5 271.5,143.5C 276.833,143.5 282.167,143.5 287.5,143.5C 287.5,146.167 287.5,148.833 287.5,151.5C 291.167,151.5 294.833,151.5 298.5,151.5C 298.5,146.167 298.5,140.833 298.5,135.5C 297.5,135.5 296.5,135.5 295.5,135.5C 295.5,132.833 295.5,130.167 295.5,127.5C 289.277,126.724 284.61,129.057 281.5,134.5C 279.257,135.474 276.924,135.808 274.5,135.5C 274.5,132.833 274.5,130.167 274.5,127.5C 273.5,127.5 272.5,127.5 271.5,127.5C 271.5,125.167 271.5,122.833 271.5,120.5C 264.744,120.152 258.077,119.152 251.5,117.5C 244.905,119.492 238.238,119.825 231.5,118.5C 230.167,117.5 230.167,116.5 231.5,115.5C 230.263,114.719 229.263,113.719 228.5,112.5C 227.311,111.571 225.978,111.238 224.5,111.5C 224.79,107.064 224.29,102.73 223,98.5C 221.152,95.9586 218.652,94.9586 215.5,95.5C 215.5,92.8333 215.5,90.1667 215.5,87.5C 214.5,87.5 213.5,87.5 212.5,87.5C 212.5,84.8333 212.5,82.1667 212.5,79.5C 210.833,79.5 209.167,79.5 207.5,79.5C 207.5,76.8333 207.5,74.1667 207.5,71.5C 204.167,71.5 200.833,71.5 197.5,71.5C 197.5,74.1667 197.5,76.8333 197.5,79.5C 195.5,79.5 193.5,79.5 191.5,79.5C 191.897,84.9586 191.397,90.2919 190,95.5C 187.65,97.6829 185.483,100.016 183.5,102.5C 180.914,103.48 178.247,103.813 175.5,103.5C 175.5,106.167 175.5,108.833 175.5,111.5C 170.167,111.5 164.833,111.5 159.5,111.5C 159.5,108.833 159.5,106.167 159.5,103.5C 153.903,104.198 148.736,103.198 144,100.5C 143.517,99.552 143.351,98.552 143.5,97.5C 138.167,96.8333 132.833,96.1667 127.5,95.5C 127.5,92.8333 127.5,90.1667 127.5,87.5C 131.036,88.8456 134.702,89.8456 138.5,90.5C 139.972,92.1343 141.638,93.6343 143.5,95C 151.493,95.4997 159.493,95.6664 167.5,95.5C 167.5,94.1667 167.5,92.8333 167.5,91.5C 170.167,91.5 172.833,91.5 175.5,91.5C 175.5,92.8333 175.5,94.1667 175.5,95.5C 177.5,95.5 179.5,95.5 181.5,95.5C 181.5,93.5 181.5,91.5 181.5,89.5C 182.5,89.5 183.5,89.5 184.5,89.5C 185.276,82.1931 185.942,74.8597 186.5,67.5C 185.999,59.4931 185.832,51.4931 186,43.5C 189.097,40.1405 190.264,36.1405 189.5,31.5C 195.5,31.5 201.5,31.5 207.5,31.5C 207.5,36.8333 207.5,42.1667 207.5,47.5C 212.167,47.5 216.833,47.5 221.5,47.5C 223.025,61.7694 223.858,76.1028 224,90.5C 228.625,96.7135 230.625,103.713 230,111.5C 230.333,108.5 230.667,105.5 231,102.5C 231.928,98.8454 233.595,98.1787 236,100.5C 236.741,99.3595 237.575,99.3595 238.5,100.5C 239.489,104.107 239.823,107.774 239.5,111.5C 250.167,111.5 260.833,111.5 271.5,111.5C 271.5,113.5 271.5,115.5 271.5,117.5C 279.447,118.66 287.447,119.493 295.5,120C 298,122.167 300.5,124.333 303,126.5C 303.498,129.482 303.665,132.482 303.5,135.5C 304.833,135.5 306.167,135.5 307.5,135.5C 307.5,138.167 307.5,140.833 307.5,143.5C 311.5,143.5 315.5,143.5 319.5,143.5C 319.5,138.167 319.5,132.833 319.5,127.5C 321.5,127.5 323.5,127.5 325.5,127.5C 325.705,122.346 326.705,117.346 328.5,112.5C 330.743,111.526 333.076,111.192 335.5,111.5C 335.5,109.167 335.5,106.833 335.5,104.5C 346.519,104.211 357.519,103.878 368.5,103.5C 371.139,107.815 373.806,112.149 376.5,116.5C 377.489,120.107 377.823,123.774 377.5,127.5C 379.5,127.5 381.5,127.5 383.5,127.5C 383.5,132.833 383.5,138.167 383.5,143.5C 385.167,143.5 386.833,143.5 388.5,143.5C 388.5,140.833 388.5,138.167 388.5,135.5C 389.5,135.5 390.5,135.5 391.5,135.5C 389.649,143.414 392.316,148.914 399.5,152C 404.823,152.499 410.156,152.666 415.5,152.5C 415.5,154.833 415.5,157.167 415.5,159.5C 418.167,159.5 420.833,159.5 423.5,159.5C 423.5,156.833 423.5,154.167 423.5,151.5C 427.351,152.029 430.851,151.362 434,149.5C 434.608,146.183 435.108,142.849 435.5,139.5C 434.297,130.126 432.964,120.793 431.5,111.5C 434.167,111.5 436.833,111.5 439.5,111.5C 439.149,126.3 439.149,140.967 439.5,155.5C 439.5,156.833 439.5,158.167 439.5,159.5C 444.833,159.5 450.167,159.5 455.5,159.5C 455.151,156.955 455.984,154.955 458,153.5C 458.667,139.5 458.667,125.5 458,111.5C 457.484,107.437 456.651,103.437 455.5,99.5C 456.811,95.5932 457.478,91.5932 457.5,87.5C 456.167,87.5 454.833,87.5 453.5,87.5C 453.491,79.4318 452.824,71.4318 451.5,63.5C 447.167,63.5 442.833,63.5 438.5,63.5C 438.5,60.8333 438.5,58.1667 438.5,55.5C 437.5,55.5 436.5,55.5 435.5,55.5C 435.5,50.1667 435.5,44.8333 435.5,39.5C 436.5,39.5 437.5,39.5 438.5,39.5C 439.166,31.5173 439.499,23.5173 439.5,15.5C 438.5,15.5 437.5,15.5 436.5,15.5C 436.5,12.8333 436.5,10.1667 436.5,7.5C 434.833,7.5 433.167,7.5 431.5,7.5C 431.5,5.83333 431.5,4.16667 431.5,2.5C 442.111,1.17112 452.778,0.504451 463.5,0.5 Z"/></g>
<g><path style="opacity:1" fill="#d8e4e7" d="M 431.5,111.5 C 432.964,120.793 434.297,130.126 435.5,139.5C 435.108,142.849 434.608,146.183 434,149.5C 430.851,151.362 427.351,152.029 423.5,151.5C 423.5,154.167 423.5,156.833 423.5,159.5C 420.833,159.5 418.167,159.5 415.5,159.5C 415.5,157.167 415.5,154.833 415.5,152.5C 410.156,152.666 404.823,152.499 399.5,152C 392.316,148.914 389.649,143.414 391.5,135.5C 391.5,127.5 391.5,119.5 391.5,111.5C 396.41,108.724 401.744,107.057 407.5,106.5C 410.115,107.269 412.781,107.603 415.5,107.5C 415.5,108.833 415.5,110.167 415.5,111.5C 420.833,111.5 426.167,111.5 431.5,111.5 Z"/></g>
<g><path style="opacity:1" fill="#cbdfe0" d="M 399.5,127.5 C 404.833,127.5 410.167,127.5 415.5,127.5C 415.338,131.713 416.005,135.713 417.5,139.5C 417.167,140.833 416.833,142.167 416.5,143.5C 413.017,144.207 409.517,144.873 406,145.5C 404.121,143.987 401.954,143.321 399.5,143.5C 399.5,138.167 399.5,132.833 399.5,127.5 Z"/></g>
<g><path style="opacity:1" fill="#dce8e9" d="M 335.5,119.5 C 347.186,119.168 358.852,119.501 370.5,120.5C 375.032,127.465 376.698,135.131 375.5,143.5C 372.833,143.5 370.167,143.5 367.5,143.5C 367.5,144.5 367.5,145.5 367.5,146.5C 364.833,146.5 362.167,146.5 359.5,146.5C 359.5,145.5 359.5,144.5 359.5,143.5C 348.833,143.5 338.167,143.5 327.5,143.5C 328.167,138.167 328.833,132.833 329.5,127.5C 331.5,127.5 333.5,127.5 335.5,127.5C 335.5,124.833 335.5,122.167 335.5,119.5 Z"/></g>
<g><path style="opacity:1" fill="#7f93ae" d="M 113.5,123.5 C 114.184,126.592 115.184,129.592 116.5,132.5C 116.746,137.453 114.746,141.119 110.5,143.5C 110.167,143.5 109.833,143.5 109.5,143.5C 103.779,142.974 99.2786,140.307 96,135.5C 95.3333,133.5 94.6667,131.5 94,129.5C 93.586,129.957 93.086,130.291 92.5,130.5C 91.3954,128.389 89.7288,127.055 87.5,126.5C 90.6272,125.04 93.6272,125.373 96.5,127.5C 96.5,127.833 96.5,128.167 96.5,128.5C 96.7784,135.024 99.945,139.024 106,140.5C 107.459,140.192 108.626,139.525 109.5,138.5C 111.223,136.22 111.889,133.553 111.5,130.5C 112.924,128.485 113.59,126.152 113.5,123.5 Z"/></g>
<g><path style="opacity:1" fill="#eceef1" d="M 96.5,128.5 C 101.119,129.314 105.786,129.647 110.5,129.5C 110.037,132.482 109.704,135.482 109.5,138.5C 108.626,139.525 107.459,140.192 106,140.5C 99.945,139.024 96.7784,135.024 96.5,128.5 Z"/></g>
<g><path style="opacity:1" fill="#92afac" d="M 29.5,136.5 C 27.5,136.5 26.5,137.5 26.5,139.5C 22.8118,140.34 19.3118,141.674 16,143.5C 15.0902,141.055 15.9236,139.722 18.5,139.5C 20.1054,138.994 20.4387,138.327 19.5,137.5C 21.69,136.626 22.69,134.959 22.5,132.5C 20.8333,132.5 19.1667,132.5 17.5,132.5C 20.014,131.43 22.6807,130.43 25.5,129.5C 28.1371,130.442 30.8037,131.442 33.5,132.5C 32.1186,133.881 30.7853,135.215 29.5,136.5 Z"/></g>
<g><path style="opacity:1" fill="#778592" d="M 80.5,126.5 C 83.6772,127.343 86.3439,129.009 88.5,131.5C 89.154,133.115 89.654,134.782 90,136.5C 90.7175,135.549 91.5509,135.383 92.5,136C 93.748,137.4 94.748,138.9 95.5,140.5C 84.6045,134.399 80.6045,137.399 83.5,149.5C 82.8333,150.167 82.1667,150.833 81.5,151.5C 80.9216,148.72 80.2549,146.053 79.5,143.5C 80.387,139.544 82.387,136.377 85.5,134C 84.4108,131.084 82.7442,128.584 80.5,126.5 Z"/></g>
<g><path style="opacity:1" fill="#415970" d="M 79.5,115.5 C 79.7438,118.263 81.0771,120.429 83.5,122C 85.0613,122.188 85.728,121.355 85.5,119.5C 86.1667,120.167 86.8333,120.833 87.5,121.5C 88.347,122.966 89.6803,123.8 91.5,124C 89.0995,124.186 86.7662,124.686 84.5,125.5C 85.325,126.386 86.325,126.719 87.5,126.5C 89.7288,127.055 91.3954,128.389 92.5,130.5C 93.086,130.291 93.586,129.957 94,129.5C 94.6667,131.5 95.3333,133.5 96,135.5C 99.2786,140.307 103.779,142.974 109.5,143.5C 106.167,144.833 102.833,144.833 99.5,143.5C 98.7095,142.599 97.7095,141.932 96.5,141.5C 95.8333,141.5 95.5,141.167 95.5,140.5C 94.748,138.9 93.748,137.4 92.5,136C 91.5509,135.383 90.7175,135.549 90,136.5C 89.654,134.782 89.154,133.115 88.5,131.5C 86.3439,129.009 83.6772,127.343 80.5,126.5C 79.1667,125.5 77.8333,124.5 76.5,123.5C 76.2671,121.938 75.6005,120.605 74.5,119.5C 74.5,118.833 74.5,118.167 74.5,117.5C 76.2292,116.883 77.7292,115.883 79,114.5C 79.3988,114.728 79.5654,115.062 79.5,115.5 Z"/></g>
<g><path style="opacity:1" fill="#f7f7f7" d="M -0.5,47.5 C 1.39737,49.2688 2.56404,51.6021 3,54.5C 3.5213,57.9185 4.35463,61.2519 5.5,64.5C 4.76756,67.3051 5.76756,69.6384 8.5,71.5C 9.48002,74.0865 9.81335,76.7531 9.5,79.5C 6.92083,79.9167 4.75417,79.25 3,77.5C 2.62576,78.4162 2.12576,79.2496 1.5,80C 2.96534,83.099 4.29867,86.2656 5.5,89.5C 5.12519,91.4594 4.45852,93.2927 3.5,95C 5.43348,95.7826 6.93348,95.2826 8,93.5C 9.75417,95.25 11.9208,95.9167 14.5,95.5C 14.8333,100.833 15.1667,106.167 15.5,111.5C 15.7054,117.878 15.3721,124.211 14.5,130.5C 14.5,130.833 14.5,131.167 14.5,131.5C 14.0282,138.7 13.6949,146.034 13.5,153.5C 8.73704,153.226 4.07037,153.559 -0.5,154.5C -0.5,118.833 -0.5,83.1667 -0.5,47.5 Z"/></g>
<g><path style="opacity:1" fill="#d2d4d7" d="M 99.5,143.5 C 102.833,144.833 106.167,144.833 109.5,143.5C 109.833,143.5 110.167,143.5 110.5,143.5C 109.232,144.787 109.565,145.787 111.5,146.5C 108.734,148.129 105.734,148.795 102.5,148.5C 102.179,146.952 101.179,146.285 99.5,146.5C 99.5,145.5 99.5,144.5 99.5,143.5 Z"/></g>
<g><path style="opacity:1" fill="#3f4f63" d="M 79.5,143.5 C 80.2549,146.053 80.9216,148.72 81.5,151.5C 83.0945,154.26 85.4279,156.093 88.5,157C 87.7562,158.039 86.7562,158.539 85.5,158.5C 80.1949,156.933 77.5282,153.266 77.5,147.5C 77.2291,145.62 77.8958,144.287 79.5,143.5 Z"/></g>
<g><path style="opacity:1" fill="#f3f2f1" d="M 95.5,140.5 C 95.5,141.167 95.8333,141.5 96.5,141.5C 99.2289,145.538 99.8956,149.872 98.5,154.5C 96.2046,156.385 93.538,156.885 90.5,156C 87.6424,154.306 85.309,152.139 83.5,149.5C 80.6045,137.399 84.6045,134.399 95.5,140.5 Z"/></g>
<g><path style="opacity:1" fill="#a2a9ac" d="M 96.5,141.5 C 97.7095,141.932 98.7095,142.599 99.5,143.5C 99.5,144.5 99.5,145.5 99.5,146.5C 101.179,146.285 102.179,146.952 102.5,148.5C 101.596,149.209 101.263,150.209 101.5,151.5C 100.833,152.833 100.167,154.167 99.5,155.5C 99.5,154.833 99.1667,154.5 98.5,154.5C 99.8956,149.872 99.2289,145.538 96.5,141.5 Z"/></g>
<g><path style="opacity:1" fill="#d1dfe2" d="M 182.5,150.5 C 185.391,151.403 188.391,151.736 191.5,151.5C 191.5,159.5 191.5,167.5 191.5,175.5C 184.167,175.5 176.833,175.5 169.5,175.5C 169.248,169.857 170.248,164.524 172.5,159.5C 173.5,159.5 174.5,159.5 175.5,159.5C 175.708,155.856 177.708,153.689 181.5,153C 182.252,152.329 182.586,151.496 182.5,150.5 Z"/></g>
<g><path style="opacity:1" fill="#606a75" d="M 83.5,149.5 C 85.309,152.139 87.6424,154.306 90.5,156C 93.538,156.885 96.2046,156.385 98.5,154.5C 99.1667,154.5 99.5,154.833 99.5,155.5C 97.8243,157.834 95.491,158.834 92.5,158.5C 90.3516,159.244 88.0183,159.244 85.5,158.5C 86.7562,158.539 87.7562,158.039 88.5,157C 85.4279,156.093 83.0945,154.26 81.5,151.5C 82.1667,150.833 82.8333,150.167 83.5,149.5 Z"/></g>
<g><path style="opacity:1" fill="#b2ccd3" d="M 135.5,159.5 C 135.5,160.5 135.5,161.5 135.5,162.5C 143.311,164.81 151.311,165.81 159.5,165.5C 159.979,169.434 159.312,173.101 157.5,176.5C 159.316,178.817 161.316,180.984 163.5,183C 182.003,184.575 200.67,185.575 219.5,186C 223.847,187.944 228.181,189.778 232.5,191.5C 229.314,193.736 225.814,194.069 222,192.5C 214.178,193.552 206.678,194.885 199.5,196.5C 194.833,196.5 190.167,196.5 185.5,196.5C 187.265,195.539 189.265,195.205 191.5,195.5C 191.5,194.5 191.5,193.5 191.5,192.5C 188.794,192.425 186.127,192.092 183.5,191.5C 183.5,190.5 183.5,189.5 183.5,188.5C 179.154,188.666 174.821,188.499 170.5,188C 165.12,186.49 159.787,184.99 154.5,183.5C 154.5,182.5 154.5,181.5 154.5,180.5C 153.5,180.5 152.5,180.5 151.5,180.5C 151.5,181.5 151.5,182.5 151.5,183.5C 143.5,183.5 135.5,183.5 127.5,183.5C 127.5,182.5 127.5,181.5 127.5,180.5C 119.107,180.882 110.774,180.882 102.5,180.5C 99.0742,181.31 95.7409,182.31 92.5,183.5C 91.1501,180.894 89.6501,180.894 88,183.5C 87.6667,182.167 87.3333,180.833 87,179.5C 86.502,182.482 86.3354,185.482 86.5,188.5C 85.5128,183.695 85.1795,178.695 85.5,173.5C 94.5258,173.352 103.192,171.685 111.5,168.5C 113.027,168.573 114.027,167.906 114.5,166.5C 115.934,163.953 117.6,161.619 119.5,159.5C 120.822,159.67 121.989,159.337 123,158.5C 123.836,151.653 125.169,144.986 127,138.5C 128.177,144.873 129.51,151.206 131,157.5C 132.049,159.107 133.549,159.773 135.5,159.5 Z"/></g>
<g><path style="opacity:1" fill="#a8a9a1" d="M 29.5,153.5 C 30.1667,153.5 30.8333,153.5 31.5,153.5C 36.5891,155.972 41.9225,158.139 47.5,160C 39.926,160.97 32.5927,160.136 25.5,157.5C 24.0413,157.567 22.7079,157.234 21.5,156.5C 18.9584,155.961 16.7918,154.628 15,152.5C 14.4092,151.517 14.7425,150.85 16,150.5C 20.569,151.343 25.069,152.343 29.5,153.5 Z"/></g>
<g><path style="opacity:1" fill="#cecfcc" d="M 14.5,131.5 C 14.3359,134.187 14.5026,136.854 15,139.5C 16.2917,138.209 17.4583,138.209 18.5,139.5C 15.9236,139.722 15.0902,141.055 16,143.5C 19.3118,141.674 22.8118,140.34 26.5,139.5C 25.1311,142.131 25.7978,142.798 28.5,141.5C 30.8764,143.627 31.8764,146.293 31.5,149.5C 28.8806,149.768 26.3806,149.435 24,148.5C 23.8333,148.833 23.6667,149.167 23.5,149.5C 25.396,150.466 27.396,150.799 29.5,150.5C 29.5,151.5 29.5,152.5 29.5,153.5C 25.069,152.343 20.569,151.343 16,150.5C 14.7425,150.85 14.4092,151.517 15,152.5C 16.7918,154.628 18.9584,155.961 21.5,156.5C 15.5449,156.839 14.8782,157.672 19.5,159C 18.7877,160.425 18.621,161.925 19,163.5C 18.1074,164.081 17.1074,164.415 16,164.5C 10.3284,163.484 4.82838,162.151 -0.5,160.5C -0.5,158.5 -0.5,156.5 -0.5,154.5C 4.07037,153.559 8.73704,153.226 13.5,153.5C 13.6949,146.034 14.0282,138.7 14.5,131.5 Z"/></g>
<g><path style="opacity:1" fill="#c2c1bc" d="M 77.5,147.5 C 77.5282,153.266 80.1949,156.933 85.5,158.5C 88.0183,159.244 90.3516,159.244 92.5,158.5C 91.2264,159.189 91.2264,160.023 92.5,161C 96.8829,161.602 101.216,162.435 105.5,163.5C 96.8589,164.498 88.1922,164.831 79.5,164.5C 79.5,166.167 79.5,167.833 79.5,169.5C 63.9693,168.162 48.636,165.662 33.5,162C 30.1993,161.513 27.5326,160.013 25.5,157.5C 32.5927,160.136 39.926,160.97 47.5,160C 41.9225,158.139 36.5891,155.972 31.5,153.5C 38.0801,154.882 44.7467,155.716 51.5,156C 55.4583,156.988 59.2916,158.155 63,159.5C 64.1667,159.333 65.3333,159.167 66.5,159C 66.1667,158.667 65.8333,158.333 65.5,158C 67.0163,156.103 67.683,153.936 67.5,151.5C 70.5788,150.718 73.5788,150.385 76.5,150.5C 76.2627,149.209 76.596,148.209 77.5,147.5 Z"/></g>
<g><path style="opacity:1" fill="#dfdfda" d="M 101.5,151.5 C 101.343,152.873 101.51,154.207 102,155.5C 104.997,154.134 108.164,153.467 111.5,153.5C 111.5,155.5 111.5,157.5 111.5,159.5C 112.978,159.238 114.311,159.571 115.5,160.5C 114.752,162.332 113.752,163.999 112.5,165.5C 112.957,166.298 113.624,166.631 114.5,166.5C 114.027,167.906 113.027,168.573 111.5,168.5C 109.952,167.206 107.952,166.539 105.5,166.5C 90.0699,169.509 74.7366,172.509 59.5,175.5C 58.1667,175.5 56.8333,175.5 55.5,175.5C 49.0415,173.535 42.3748,173.202 35.5,174.5C 24.5646,174.362 13.8979,173.029 3.5,170.5C 2.28882,171.274 2.28882,172.107 3.5,173C 2.43659,174.188 1.10326,174.688 -0.5,174.5C -0.5,169.833 -0.5,165.167 -0.5,160.5C 4.82838,162.151 10.3284,163.484 16,164.5C 17.1074,164.415 18.1074,164.081 19,163.5C 18.621,161.925 18.7877,160.425 19.5,159C 14.8782,157.672 15.5449,156.839 21.5,156.5C 22.7079,157.234 24.0413,157.567 25.5,157.5C 27.5326,160.013 30.1993,161.513 33.5,162C 48.636,165.662 63.9693,168.162 79.5,169.5C 79.5,167.833 79.5,166.167 79.5,164.5C 88.1922,164.831 96.8589,164.498 105.5,163.5C 101.216,162.435 96.8829,161.602 92.5,161C 91.2264,160.023 91.2264,159.189 92.5,158.5C 95.491,158.834 97.8243,157.834 99.5,155.5C 100.167,154.167 100.833,152.833 101.5,151.5 Z"/></g>
<g><path style="opacity:1" fill="#bdd4d9" d="M 135.5,159.5 C 138.167,159.5 140.833,159.5 143.5,159.5C 143.5,160.5 143.5,161.5 143.5,162.5C 149.496,163.657 155.496,163.823 161.5,163C 162.293,164.085 162.96,165.252 163.5,166.5C 162.4,170.442 162.233,174.442 163,178.5C 164.085,179.293 165.252,179.96 166.5,180.5C 177.406,178.753 188.406,178.087 199.5,178.5C 199.5,177.5 199.5,176.5 199.5,175.5C 201.5,175.5 203.5,175.5 205.5,175.5C 205.5,172.833 205.5,170.167 205.5,167.5C 204.167,167.5 202.833,167.5 201.5,167.5C 201.5,164.833 201.5,162.167 201.5,159.5C 206.167,159.5 210.833,159.5 215.5,159.5C 215.5,160.5 215.5,161.5 215.5,162.5C 217.635,164.369 220.302,165.036 223.5,164.5C 223.17,171.2 223.503,177.866 224.5,184.5C 229.301,186.319 234.301,186.986 239.5,186.5C 239.5,188.167 239.5,189.833 239.5,191.5C 237.167,191.5 234.833,191.5 232.5,191.5C 228.181,189.778 223.847,187.944 219.5,186C 200.67,185.575 182.003,184.575 163.5,183C 161.316,180.984 159.316,178.817 157.5,176.5C 159.312,173.101 159.979,169.434 159.5,165.5C 151.311,165.81 143.311,164.81 135.5,162.5C 135.5,161.5 135.5,160.5 135.5,159.5 Z"/></g>
<g><path style="opacity:1" fill="#c1d9df" d="M 215.5,162.5 C 220.13,162.308 224.63,162.975 229,164.5C 230.07,164.472 230.903,164.139 231.5,163.5C 239.32,165.563 247.32,167.063 255.5,168C 271.576,168.176 287.576,169.343 303.5,171.5C 309.253,172.189 314.587,173.522 319.5,175.5C 292.917,173.18 266.251,172.18 239.5,172.5C 239.5,173.5 239.5,174.5 239.5,175.5C 244.833,175.5 250.167,175.5 255.5,175.5C 255.5,180.833 255.5,186.167 255.5,191.5C 250.167,191.5 244.833,191.5 239.5,191.5C 239.5,189.833 239.5,188.167 239.5,186.5C 234.301,186.986 229.301,186.319 224.5,184.5C 223.503,177.866 223.17,171.2 223.5,164.5C 220.302,165.036 217.635,164.369 215.5,162.5 Z"/></g>
<g><path style="opacity:1" fill="#ccdee3" d="M 473.5,173.5 C 473.5,175.167 473.5,176.833 473.5,178.5C 471.952,178.179 471.285,177.179 471.5,175.5C 466.377,176.057 461.377,177.223 456.5,179C 442.661,179.169 428.994,179.669 415.5,180.5C 386.169,179.809 356.836,178.976 327.5,178C 324.325,178.053 321.658,177.22 319.5,175.5C 314.587,173.522 309.253,172.189 303.5,171.5C 287.576,169.343 271.576,168.176 255.5,168C 247.32,167.063 239.32,165.563 231.5,163.5C 229.717,162.886 228.384,161.72 227.5,160C 226.207,159.51 224.873,159.343 223.5,159.5C 223.97,156.654 223.137,154.321 221,152.5C 220.502,149.518 220.335,146.518 220.5,143.5C 218.833,143.5 217.167,143.5 215.5,143.5C 215.5,141.833 215.5,140.167 215.5,138.5C 212.833,138.5 210.167,138.5 207.5,138.5C 207.5,137.5 207.5,136.5 207.5,135.5C 204.833,135.5 202.167,135.5 199.5,135.5C 199.5,133.833 199.5,132.167 199.5,130.5C 196.833,130.5 194.167,130.5 191.5,130.5C 191.5,129.5 191.5,128.5 191.5,127.5C 186.167,127.5 180.833,127.5 175.5,127.5C 170.066,126.773 165.066,127.773 160.5,130.5C 159.833,132.167 159.167,133.833 158.5,135.5C 158.189,130.865 155.856,128.199 151.5,127.5C 151.708,125.08 151.374,122.747 150.5,120.5C 149.675,119.614 148.675,119.281 147.5,119.5C 147.167,116.833 146.833,114.167 146.5,111.5C 140.794,111.171 135.128,111.505 129.5,112.5C 127.777,114.868 127.11,117.534 127.5,120.5C 125.881,123.548 124.881,126.881 124.5,130.5C 124.5,124.167 124.5,117.833 124.5,111.5C 125.5,111.5 126.5,111.5 127.5,111.5C 127.5,109.833 127.5,108.167 127.5,106.5C 130.443,106.353 133.276,105.687 136,104.5C 145.053,106.178 151.386,111.178 155,119.5C 155.333,118.833 155.667,118.167 156,117.5C 156.814,119.282 157.981,120.782 159.5,122C 170.267,122.88 180.934,122.214 191.5,120C 186.52,119.474 186.187,117.974 190.5,115.5C 191.429,114.311 191.762,112.978 191.5,111.5C 196.833,111.5 202.167,111.5 207.5,111.5C 207.5,116.833 207.5,122.167 207.5,127.5C 214.508,127.334 221.508,127.5 228.5,128C 230.557,131.3 231.557,131.133 231.5,127.5C 233.527,127.338 235.527,127.505 237.5,128C 237.167,128.333 236.833,128.667 236.5,129C 244.341,127.545 252.341,127.211 260.5,128C 261.09,129.509 261.756,131.009 262.5,132.5C 263.192,131.975 263.692,131.308 264,130.5C 264.499,134.821 264.666,139.154 264.5,143.5C 256.167,143.5 247.833,143.5 239.5,143.5C 239.5,144.5 239.5,145.5 239.5,146.5C 230.526,147.192 227.859,151.192 231.5,158.5C 236.839,159.303 242.173,160.137 247.5,161C 292.821,165.5 338.155,170 383.5,174.5C 410.171,176.17 436.838,176.503 463.5,175.5C 463.5,174.5 463.5,173.5 463.5,172.5C 465.547,172.489 467.547,172.156 469.5,171.5C 470.867,172.225 472.2,172.892 473.5,173.5 Z"/></g>
<g><path style="opacity:1" fill="#c9c7c1" d="M 55.5,175.5 C 36.8563,177 18.1896,178.333 -0.5,179.5C -0.5,177.833 -0.5,176.167 -0.5,174.5C 1.10326,174.688 2.43659,174.188 3.5,173C 2.28882,172.107 2.28882,171.274 3.5,170.5C 13.8979,173.029 24.5646,174.362 35.5,174.5C 42.3748,173.202 49.0415,173.535 55.5,175.5 Z"/></g>
<g><path style="opacity:1" fill="#bcbdb8" d="M 111.5,168.5 C 103.192,171.685 94.5258,173.352 85.5,173.5C 84.5,173.5 83.5,173.5 82.5,173.5C 79.8728,174.092 77.2062,174.425 74.5,174.5C 74.3003,180.028 71.467,183.361 66,184.5C 65.7811,183.062 65.2811,181.729 64.5,180.5C 54.9755,186.151 44.9755,186.985 34.5,183C 22.807,182.254 11.1403,182.42 -0.5,183.5C -0.5,182.833 -0.5,182.167 -0.5,181.5C 10.1817,181.135 20.8484,180.468 31.5,179.5C 35.745,180.031 39.9117,180.031 44,179.5C 45.7289,181.448 47.8956,182.448 50.5,182.5C 53.1401,181.905 55.8067,181.572 58.5,181.5C 58.8739,178.112 60.8739,176.278 64.5,176C 62.8659,175.506 61.1992,175.34 59.5,175.5C 74.7366,172.509 90.0699,169.509 105.5,166.5C 107.952,166.539 109.952,167.206 111.5,168.5 Z"/></g>
<g><path style="opacity:1" fill="#bed3d9" d="M 473.5,178.5 C 473.5,181.833 473.5,185.167 473.5,188.5C 472.2,187.892 470.867,187.225 469.5,186.5C 461.571,187.926 453.571,188.593 445.5,188.5C 435.502,187.666 425.502,187 415.5,186.5C 415.5,185.5 415.5,184.5 415.5,183.5C 423.507,183.666 431.507,183.5 439.5,183C 431.104,183.14 423.104,182.307 415.5,180.5C 428.994,179.669 442.661,179.169 456.5,179C 461.377,177.223 466.377,176.057 471.5,175.5C 471.285,177.179 471.952,178.179 473.5,178.5 Z"/></g>
<g><path style="opacity:1" fill="#a2a49f" d="M 55.5,175.5 C 56.8333,175.5 58.1667,175.5 59.5,175.5C 61.1992,175.34 62.8659,175.506 64.5,176C 60.8739,176.278 58.8739,178.112 58.5,181.5C 55.8067,181.572 53.1401,181.905 50.5,182.5C 47.8956,182.448 45.7289,181.448 44,179.5C 39.9117,180.031 35.745,180.031 31.5,179.5C 20.8484,180.468 10.1817,181.135 -0.5,181.5C -0.5,180.833 -0.5,180.167 -0.5,179.5C 18.1896,178.333 36.8563,177 55.5,175.5 Z"/></g>
<g><path style="opacity:1" fill="#a3c4cd" d="M 185.5,196.5 C 178.5,196.5 171.5,196.5 164.5,196.5C 165.914,194.946 167.581,193.612 169.5,192.5C 166.232,191.513 162.898,191.18 159.5,191.5C 159.5,190.5 159.5,189.5 159.5,188.5C 153.697,187.913 148.197,188.58 143,190.5C 136.572,188.785 130.072,187.118 123.5,185.5C 113.814,185.623 104.148,185.956 94.5,186.5C 93.0815,185.995 92.4148,184.995 92.5,183.5C 95.7409,182.31 99.0742,181.31 102.5,180.5C 110.774,180.882 119.107,180.882 127.5,180.5C 127.5,181.5 127.5,182.5 127.5,183.5C 135.5,183.5 143.5,183.5 151.5,183.5C 151.5,182.5 151.5,181.5 151.5,180.5C 152.5,180.5 153.5,180.5 154.5,180.5C 154.5,181.5 154.5,182.5 154.5,183.5C 159.787,184.99 165.12,186.49 170.5,188C 174.821,188.499 179.154,188.666 183.5,188.5C 183.5,189.5 183.5,190.5 183.5,191.5C 186.127,192.092 188.794,192.425 191.5,192.5C 191.5,193.5 191.5,194.5 191.5,195.5C 189.265,195.205 187.265,195.539 185.5,196.5 Z"/></g>
<g><path style="opacity:1" fill="#95bcc8" d="M 92.5,183.5 C 92.4148,184.995 93.0815,185.995 94.5,186.5C 104.148,185.956 113.814,185.623 123.5,185.5C 130.072,187.118 136.572,188.785 143,190.5C 148.197,188.58 153.697,187.913 159.5,188.5C 159.5,189.5 159.5,190.5 159.5,191.5C 162.898,191.18 166.232,191.513 169.5,192.5C 167.581,193.612 165.914,194.946 164.5,196.5C 138.833,196.5 113.167,196.5 87.5,196.5C 87.4249,193.794 87.0916,191.127 86.5,188.5C 86.3354,185.482 86.502,182.482 87,179.5C 87.3333,180.833 87.6667,182.167 88,183.5C 89.6501,180.894 91.1501,180.894 92.5,183.5 Z"/></g>
<g><path style="opacity:1" fill="#b8d4de" d="M 319.5,175.5 C 321.658,177.22 324.325,178.053 327.5,178C 356.836,178.976 386.169,179.809 415.5,180.5C 423.104,182.307 431.104,183.14 439.5,183C 431.507,183.5 423.507,183.666 415.5,183.5C 415.5,184.5 415.5,185.5 415.5,186.5C 425.502,187 435.502,187.666 445.5,188.5C 453.571,188.593 461.571,187.926 469.5,186.5C 470.867,187.225 472.2,187.892 473.5,188.5C 473.5,191.167 473.5,193.833 473.5,196.5C 382.167,196.5 290.833,196.5 199.5,196.5C 206.678,194.885 214.178,193.552 222,192.5C 225.814,194.069 229.314,193.736 232.5,191.5C 234.833,191.5 237.167,191.5 239.5,191.5C 244.833,191.5 250.167,191.5 255.5,191.5C 255.5,186.167 255.5,180.833 255.5,175.5C 250.167,175.5 244.833,175.5 239.5,175.5C 239.5,174.5 239.5,173.5 239.5,172.5C 266.251,172.18 292.917,173.18 319.5,175.5 Z"/></g>
<g><path style="opacity:1" fill="#efeeec" d="M 82.5,173.5 C 83.5,173.5 84.5,173.5 85.5,173.5C 85.1795,178.695 85.5128,183.695 86.5,188.5C 87.0916,191.127 87.4249,193.794 87.5,196.5C 59.5,196.5 31.5,196.5 3.5,196.5C 3.5,192.833 3.5,189.167 3.5,185.5C 11.8451,186.104 20.1785,186.937 28.5,188C 29.3366,189.011 29.67,190.178 29.5,191.5C 38.0466,193.612 46.88,194.945 56,195.5C 59.3093,195.204 62.8093,194.704 66.5,194C 67.1667,193.667 67.8333,193.333 68.5,193C 67.4829,191.951 67.3162,190.784 68,189.5C 69.4443,191.155 71.2776,191.822 73.5,191.5C 73.6261,188.532 75.1261,186.532 78,185.5C 79.0438,183.285 79.7105,180.952 80,178.5C 80.3333,179.167 80.6667,179.833 81,180.5C 81.2904,178.08 81.7904,175.746 82.5,173.5 Z"/></g>
<g><path style="opacity:1" fill="#e3e3df" d="M 82.5,173.5 C 81.7904,175.746 81.2904,178.08 81,180.5C 80.6667,179.833 80.3333,179.167 80,178.5C 79.7105,180.952 79.0438,183.285 78,185.5C 75.1261,186.532 73.6261,188.532 73.5,191.5C 71.2776,191.822 69.4443,191.155 68,189.5C 67.3162,190.784 67.4829,191.951 68.5,193C 67.8333,193.333 67.1667,193.667 66.5,194C 62.8093,194.704 59.3093,195.204 56,195.5C 46.88,194.945 38.0466,193.612 29.5,191.5C 29.67,190.178 29.3366,189.011 28.5,188C 20.1785,186.937 11.8451,186.104 3.5,185.5C 3.5,189.167 3.5,192.833 3.5,196.5C 2.16667,196.5 0.833333,196.5 -0.5,196.5C -0.5,192.167 -0.5,187.833 -0.5,183.5C 11.1403,182.42 22.807,182.254 34.5,183C 44.9755,186.985 54.9755,186.151 64.5,180.5C 65.2811,181.729 65.7811,183.062 66,184.5C 71.467,183.361 74.3003,180.028 74.5,174.5C 77.2062,174.425 79.8728,174.092 82.5,173.5 Z"/></g>
</svg>
