<?xml version="1.0" encoding="UTF-8"?>
<!DOCTYPE svg PUBLIC "-//W3C//DTD SVG 1.1//EN" "http://www.w3.org/Graphics/SVG/1.1/DTD/svg11.dtd">
<svg xmlns="http://www.w3.org/2000/svg" version="1.1" width="425px" height="425px" style="shape-rendering:geometricPrecision; text-rendering:geometricPrecision; image-rendering:optimizeQuality; fill-rule:evenodd; clip-rule:evenodd" xmlns:xlink="http://www.w3.org/1999/xlink">
<g><path style="opacity:0.713" fill="#56a0fe" d="M 191.5,-0.5 C 193.167,-0.5 194.833,-0.5 196.5,-0.5C 198.087,3.91829 196.42,5.58495 191.5,4.5C 191.5,2.83333 191.5,1.16667 191.5,-0.5 Z"/></g>
<g><path style="opacity:0.621" fill="#56a0fe" d="M 241.5,0.5 C 246.159,0.0146269 247.492,1.84796 245.5,6C 240.728,6.81044 239.395,4.97711 241.5,0.5 Z"/></g>
<g><path style="opacity:0.644" fill="#56a0fe" d="M 144.5,8.5 C 148.068,8.75934 149.401,10.7593 148.5,14.5C 142.541,15.2222 141.207,13.2222 144.5,8.5 Z"/></g>
<g><path style="opacity:0.642" fill="#56a0fe" d="M 289.5,13.5 C 293.485,13.6294 294.818,15.4628 293.5,19C 291.866,19.4935 290.199,19.6602 288.5,19.5C 288.325,17.3792 288.659,15.3792 289.5,13.5 Z"/></g>
<g><path style="opacity:0.665" fill="#56a0fe" d="M 99.5,29.5 C 103.225,29.5372 104.558,31.2038 103.5,34.5C 101.955,35.4519 100.288,35.7852 98.5,35.5C 98.3253,33.3792 98.6586,31.3792 99.5,29.5 Z"/></g>
<g><path style="opacity:0.991" fill="#f0f8fe" d="M 272.5,381.5 C 272.5,365.833 272.5,350.167 272.5,334.5C 285.184,337.673 292.351,332.673 294,319.5C 294.885,296.808 294.551,274.142 293,251.5C 292.256,241.249 288.422,232.415 281.5,225C 272.193,221.398 262.86,217.898 253.5,214.5C 251.38,208.386 248.047,203.053 243.5,198.5C 251.355,190.29 256.689,180.623 259.5,169.5C 264.338,166.48 267.505,162.147 269,156.5C 269.667,152.167 269.667,147.833 269,143.5C 268.411,141.137 266.911,140.137 264.5,140.5C 264.539,139.244 264.039,138.244 263,137.5C 262.5,129.841 262.334,122.174 262.5,114.5C 264.954,99.2353 259.62,87.402 246.5,79C 233.226,69.798 218.559,66.1314 202.5,68C 197.962,68.5122 193.796,70.0122 190,72.5C 188.983,70.6241 188.149,68.6241 187.5,66.5C 183.289,69.0443 180.622,72.711 179.5,77.5C 175.833,78.1667 172.167,78.8333 168.5,79.5C 170.124,80.8689 170.624,82.5355 170,84.5C 166.211,88.0507 162.878,92.0507 160,96.5C 159.007,99.4083 158.507,102.408 158.5,105.5C 159.346,116.15 159.679,126.817 159.5,137.5C 158.5,137.833 157.833,138.5 157.5,139.5C 154.852,139.738 153.018,141.072 152,143.5C 150.363,151.914 152.03,159.581 157,166.5C 158.584,167.861 160.418,168.528 162.5,168.5C 164.76,180.686 170.427,191.019 179.5,199.5C 174.928,203.636 171.594,208.636 169.5,214.5C 160.522,217.652 151.522,220.819 142.5,224C 134.701,231.037 130.535,239.87 130,250.5C 128.585,265.632 127.752,280.798 127.5,296C 127.245,305.608 128.078,315.108 130,324.5C 130.92,329.188 133.42,332.688 137.5,335C 142.174,335.333 146.84,335.167 151.5,334.5C 151.5,335.5 151.5,336.5 151.5,337.5C 150.504,351.99 150.171,366.657 150.5,381.5C 100.519,362.687 65.0194,328.687 44,279.5C 19.2959,210.049 30.2959,147.049 77,90.5C 131.661,34.9587 196.495,18.4587 271.5,41C 321.97,59.8033 357.804,93.9699 379,143.5C 403.704,212.951 392.704,275.951 346,332.5C 325.364,354.638 300.864,370.971 272.5,381.5 Z"/></g>
<g><path style="opacity:0.665" fill="#56a0fe" d="M 332.5,37.5 C 336.485,37.6294 337.818,39.4628 336.5,43C 331.728,43.8104 330.395,41.9771 332.5,37.5 Z"/></g>
<g><path style="opacity:0.619" fill="#56a0fe" d="M 60.5,60.5 C 65.1585,60.0146 66.4919,61.848 64.5,66C 59.7282,66.8104 58.3948,64.9771 60.5,60.5 Z"/></g>
<g><path style="opacity:1" fill="#3b2314" d="M 262.5,114.5 C 261.671,122.323 261.171,130.323 261,138.5C 259.871,140.141 258.371,141.141 256.5,141.5C 255.972,135.387 254.806,129.387 253,123.5C 246.279,119.779 241.279,114.446 238,107.5C 238.398,112.644 240.231,117.311 243.5,121.5C 226.651,123.164 210.985,119.664 196.5,111C 193.651,107.984 190.651,105.15 187.5,102.5C 182.657,110.852 176.491,118.185 169,124.5C 167.353,130.084 166.187,135.751 165.5,141.5C 163.205,140.525 161.205,139.192 159.5,137.5C 159.679,126.817 159.346,116.15 158.5,105.5C 158.507,102.408 159.007,99.4083 160,96.5C 162.878,92.0507 166.211,88.0507 170,84.5C 170.624,82.5355 170.124,80.8689 168.5,79.5C 172.167,78.8333 175.833,78.1667 179.5,77.5C 180.622,72.711 183.289,69.0443 187.5,66.5C 188.149,68.6241 188.983,70.6241 190,72.5C 193.796,70.0122 197.962,68.5122 202.5,68C 218.559,66.1314 233.226,69.798 246.5,79C 259.62,87.402 264.954,99.2353 262.5,114.5 Z"/></g>
<g><path style="opacity:0.684" fill="#56a0fe" d="M 368.5,71.5 C 370.167,71.5 371.833,71.5 373.5,71.5C 373.964,76.8281 372.131,78.1615 368,75.5C 367.421,74.0715 367.588,72.7382 368.5,71.5 Z"/></g>
<g><path style="opacity:0.687" fill="#56a0fe" d="M 29.5,99.5 C 34.8281,99.0358 36.1615,100.869 33.5,105C 32.2161,105.684 31.0495,105.517 30,104.5C 29.5065,102.866 29.3398,101.199 29.5,99.5 Z"/></g>
<g><path style="opacity:1" fill="#fab57b" d="M 256.5,141.5 C 256.038,142.88 255.038,143.547 253.5,143.5C 237.846,140.599 222.346,141.266 207,145.5C 194.748,141.103 182.248,140.436 169.5,143.5C 167.829,143.332 166.496,142.665 165.5,141.5C 166.187,135.751 167.353,130.084 169,124.5C 176.491,118.185 182.657,110.852 187.5,102.5C 190.651,105.15 193.651,107.984 196.5,111C 210.985,119.664 226.651,123.164 243.5,121.5C 240.231,117.311 238.398,112.644 238,107.5C 241.279,114.446 246.279,119.779 253,123.5C 254.806,129.387 255.972,135.387 256.5,141.5 Z"/></g>
<g><path style="opacity:0.687" fill="#56a0fe" d="M 397.5,111.5 C 400.966,112.109 401.966,113.942 400.5,117C 397.763,118.08 396.096,117.246 395.5,114.5C 395.942,113.261 396.609,112.261 397.5,111.5 Z"/></g>
<g><path style="opacity:1" fill="#412817" d="M 179.5,133.5 C 185.842,133.334 192.175,133.5 198.5,134C 202.547,136.277 202.214,137.944 197.5,139C 188.782,139.423 180.115,139.756 171.5,140C 173.776,137.211 176.443,135.044 179.5,133.5 Z"/></g>
<g><path style="opacity:1" fill="#4b2f1c" d="M 225.5,132.5 C 233.584,131.622 241.251,132.955 248.5,136.5C 249.382,137.76 250.382,138.926 251.5,140C 242.538,139.785 233.538,139.451 224.5,139C 223.09,138.632 222.09,137.799 221.5,136.5C 222.549,134.784 223.882,133.451 225.5,132.5 Z"/></g>
<g><path style="opacity:1" fill="#342c27" d="M 262.5,114.5 C 262.334,122.174 262.5,129.841 263,137.5C 264.039,138.244 264.539,139.244 264.5,140.5C 263.542,140.953 262.708,141.619 262,142.5C 261.814,144.9 261.314,147.234 260.5,149.5C 259.5,148.167 258.5,146.833 257.5,145.5C 256.5,146.167 255.5,146.833 254.5,147.5C 252.767,151.864 250.933,156.198 249,160.5C 239.935,165.791 230.935,165.791 222,160.5C 220.209,157.007 218.876,153.341 218,149.5C 213.504,146.882 209.004,146.882 204.5,149.5C 203.435,154.129 201.435,158.295 198.5,162C 190.819,165.28 183.152,165.28 175.5,162C 171.811,158.285 169.645,153.785 169,148.5C 167.333,147.167 165.667,145.833 164,144.5C 163.804,146.286 162.971,147.619 161.5,148.5C 160.993,144.998 159.66,141.998 157.5,139.5C 157.833,138.5 158.5,137.833 159.5,137.5C 161.205,139.192 163.205,140.525 165.5,141.5C 166.496,142.665 167.829,143.332 169.5,143.5C 182.248,140.436 194.748,141.103 207,145.5C 222.346,141.266 237.846,140.599 253.5,143.5C 255.038,143.547 256.038,142.88 256.5,141.5C 258.371,141.141 259.871,140.141 261,138.5C 261.171,130.323 261.671,122.323 262.5,114.5 Z"/></g>
<g><path style="opacity:1" fill="#fdb77d" d="M 157.5,139.5 C 159.66,141.998 160.993,144.998 161.5,148.5C 162.971,147.619 163.804,146.286 164,144.5C 165.667,145.833 167.333,147.167 169,148.5C 169.645,153.785 171.811,158.285 175.5,162C 183.152,165.28 190.819,165.28 198.5,162C 201.435,158.295 203.435,154.129 204.5,149.5C 209.004,146.882 213.504,146.882 218,149.5C 218.876,153.341 220.209,157.007 222,160.5C 230.935,165.791 239.935,165.791 249,160.5C 250.933,156.198 252.767,151.864 254.5,147.5C 255.5,146.833 256.5,146.167 257.5,145.5C 258.5,146.833 259.5,148.167 260.5,149.5C 261.314,147.234 261.814,144.9 262,142.5C 262.708,141.619 263.542,140.953 264.5,140.5C 266.911,140.137 268.411,141.137 269,143.5C 269.667,147.833 269.667,152.167 269,156.5C 267.505,162.147 264.338,166.48 259.5,169.5C 256.689,180.623 251.355,190.29 243.5,198.5C 241.973,198.427 240.973,199.094 240.5,200.5C 239.5,200.833 238.833,201.5 238.5,202.5C 220.7,215.263 202.7,215.596 184.5,203.5C 184.027,202.094 183.027,201.427 181.5,201.5C 181.167,200.5 180.5,199.833 179.5,199.5C 170.427,191.019 164.76,180.686 162.5,168.5C 160.418,168.528 158.584,167.861 157,166.5C 152.03,159.581 150.363,151.914 152,143.5C 153.018,141.072 154.852,139.738 157.5,139.5 Z"/></g>
<g><path style="opacity:0.663" fill="#56a0fe" d="M 9.5,144.5 C 13.909,143.899 15.2424,145.566 13.5,149.5C 12.1667,150.833 10.8333,150.833 9.5,149.5C 8.33363,147.833 8.33363,146.166 9.5,144.5 Z"/></g>
<g><path style="opacity:1" fill="#f5b279" d="M 173.5,145.5 C 177.846,145.334 182.179,145.501 186.5,146C 181.925,151.057 182.758,154.891 189,157.5C 195.242,154.891 196.075,151.057 191.5,146C 195.17,145.721 198.837,145.888 202.5,146.5C 202.904,157.749 197.57,163.082 186.5,162.5C 175.616,162.95 170.283,157.617 170.5,146.5C 171.791,146.737 172.791,146.404 173.5,145.5 Z"/></g>
<g><path style="opacity:1" fill="#f6b37a" d="M 223.5,145.5 C 225.857,145.337 228.19,145.503 230.5,146C 226.908,148.971 226.575,152.304 229.5,156C 236.265,158.243 239.098,155.743 238,148.5C 237.167,147.667 236.333,146.833 235.5,146C 240.828,145.831 246.162,145.998 251.5,146.5C 251.908,158.061 246.408,163.395 235,162.5C 224.168,162.828 219.335,157.495 220.5,146.5C 221.791,146.737 222.791,146.404 223.5,145.5 Z"/></g>
<g><path style="opacity:0.662" fill="#56a0fe" d="M 413.5,158.5 C 415.167,158.5 416.833,158.5 418.5,158.5C 418.923,161.288 417.923,163.288 415.5,164.5C 412.61,163.163 411.943,161.163 413.5,158.5 Z"/></g>
<g><path style="opacity:1" fill="#d3615a" d="M 225.5,190.5 C 220.984,189.052 216.65,189.385 212.5,191.5C 207.869,189.044 203.202,189.044 198.5,191.5C 196.844,188.861 195.178,186.195 193.5,183.5C 194,183.167 194.5,182.833 195,182.5C 196.011,183.056 196.844,183.722 197.5,184.5C 198.058,185.79 199.058,186.623 200.5,187C 209.468,188.298 218.135,187.298 226.5,184C 228.141,182.871 229.141,181.371 229.5,179.5C 231.052,178.378 232.718,177.878 234.5,178C 232.091,182.675 229.091,186.842 225.5,190.5 Z"/></g>
<g><path style="opacity:1" fill="#fcf0ec" d="M 229.5,179.5 C 229.141,181.371 228.141,182.871 226.5,184C 218.135,187.298 209.468,188.298 200.5,187C 199.058,186.623 198.058,185.79 197.5,184.5C 203.987,183.672 210.654,183.172 217.5,183C 221.625,182.137 225.625,180.97 229.5,179.5 Z"/></g>
<g><path style="opacity:1" fill="#f58674" d="M 225.5,190.5 C 222.447,195.279 217.947,197.613 212,197.5C 206.326,197.895 201.826,195.895 198.5,191.5C 203.202,189.044 207.869,189.044 212.5,191.5C 216.65,189.385 220.984,189.052 225.5,190.5 Z"/></g>
<g><path style="opacity:0.711" fill="#56a0fe" d="M -0.5,198.5 C -0.5,196.833 -0.5,195.167 -0.5,193.5C 3.91829,191.913 5.58495,193.58 4.5,198.5C 2.83333,198.5 1.16667,198.5 -0.5,198.5 Z"/></g>
<g><path style="opacity:1" fill="#606163" d="M 243.5,198.5 C 248.047,203.053 251.38,208.386 253.5,214.5C 254.832,226.202 254.499,237.868 252.5,249.5C 251.209,249.737 250.209,249.404 249.5,248.5C 251.36,237.911 251.86,227.245 251,216.5C 249.205,209.904 245.705,204.571 240.5,200.5C 240.973,199.094 241.973,198.427 243.5,198.5 Z"/></g>
<g><path style="opacity:1" fill="#626366" d="M 179.5,199.5 C 180.5,199.833 181.167,200.5 181.5,201.5C 177.072,206.012 173.906,211.345 172,217.5C 171.759,227.2 172.259,236.867 173.5,246.5C 183.945,247.102 190.778,252.436 194,262.5C 194.977,264.74 195.477,267.073 195.5,269.5C 194.5,269.5 193.5,269.5 192.5,269.5C 190.927,260.88 186.26,254.38 178.5,250C 170.184,248.575 164.35,251.742 161,259.5C 160.002,264.604 159.169,269.604 158.5,274.5C 157.833,274.5 157.167,274.5 156.5,274.5C 154.244,262.009 158.744,252.676 170,246.5C 169.153,239.742 168.653,232.908 168.5,226C 168.533,222.085 168.867,218.251 169.5,214.5C 171.594,208.636 174.928,203.636 179.5,199.5 Z"/></g>
<g><path style="opacity:1" fill="#ededed" d="M 181.5,201.5 C 183.027,201.427 184.027,202.094 184.5,203.5C 185.467,208.712 186.8,213.712 188.5,218.5C 193.261,238.1 198.595,257.433 204.5,276.5C 205.191,281.598 206.358,286.598 208,291.5C 208.671,292.252 209.504,292.586 210.5,292.5C 207.655,293.344 204.655,294.01 201.5,294.5C 199.972,286.054 197.972,277.721 195.5,269.5C 195.477,267.073 194.977,264.74 194,262.5C 190.778,252.436 183.945,247.102 173.5,246.5C 172.259,236.867 171.759,227.2 172,217.5C 173.906,211.345 177.072,206.012 181.5,201.5 Z"/></g>
<g><path style="opacity:1" fill="#e85e5e" d="M 238.5,202.5 C 237.774,208.007 236.44,213.341 234.5,218.5C 232.01,221.461 229.51,224.461 227,227.5C 224.993,226.656 223.493,225.323 222.5,223.5C 218.853,220.189 215.187,216.855 211.5,213.5C 207.479,216.854 203.812,220.521 200.5,224.5C 199.185,225.476 197.852,226.476 196.5,227.5C 193.591,224.656 190.924,221.656 188.5,218.5C 186.8,213.712 185.467,208.712 184.5,203.5C 202.7,215.596 220.7,215.263 238.5,202.5 Z"/></g>
<g><path style="opacity:1" fill="#fdfdfd" d="M 240.5,200.5 C 245.705,204.571 249.205,209.904 251,216.5C 251.86,227.245 251.36,237.911 249.5,248.5C 239.667,248.849 235.501,253.849 237,263.5C 237.366,265.452 238.199,267.118 239.5,268.5C 235.552,275.559 231.219,282.392 226.5,289C 229.475,289.044 232.475,288.877 235.5,288.5C 235.198,291.059 235.532,293.393 236.5,295.5C 237.554,300.107 238.221,304.773 238.5,309.5C 239.092,312.127 239.425,314.794 239.5,317.5C 209.996,322.935 180.663,328.602 151.5,334.5C 146.84,335.167 142.174,335.333 137.5,335C 133.42,332.688 130.92,329.188 130,324.5C 128.078,315.108 127.245,305.608 127.5,296C 127.752,280.798 128.585,265.632 130,250.5C 130.535,239.87 134.701,231.037 142.5,224C 151.522,220.819 160.522,217.652 169.5,214.5C 168.867,218.251 168.533,222.085 168.5,226C 168.653,232.908 169.153,239.742 170,246.5C 158.744,252.676 154.244,262.009 156.5,274.5C 156.5,280.167 156.5,285.833 156.5,291.5C 151.935,294.143 150.602,297.976 152.5,303C 154.134,303.494 155.801,303.66 157.5,303.5C 158.215,305.755 159.548,307.588 161.5,309C 164.482,309.498 167.482,309.665 170.5,309.5C 172.977,309.949 174.977,309.283 176.5,307.5C 174.462,304.848 172.462,304.848 170.5,307.5C 167.813,307.664 165.146,307.497 162.5,307C 160.963,305.89 160.297,304.39 160.5,302.5C 169.219,301.09 177.885,299.423 186.5,297.5C 187.026,294.192 185.693,292.026 182.5,291C 179.833,289.333 177.167,287.667 174.5,286C 172.527,285.505 170.527,285.338 168.5,285.5C 168.178,287.722 168.845,289.556 170.5,291C 167.843,291.175 165.176,291.008 162.5,290.5C 161.432,289.566 160.099,289.232 158.5,289.5C 158.5,284.5 158.5,279.5 158.5,274.5C 159.169,269.604 160.002,264.604 161,259.5C 164.35,251.742 170.184,248.575 178.5,250C 186.26,254.38 190.927,260.88 192.5,269.5C 196.176,279.889 198.009,290.556 198,301.5C 195.874,303.377 193.374,304.377 190.5,304.5C 188.133,302.928 186.133,303.261 184.5,305.5C 185.668,307.217 187.335,307.884 189.5,307.5C 193.316,307.004 196.816,305.671 200,303.5C 201.289,300.649 201.789,297.649 201.5,294.5C 204.655,294.01 207.655,293.344 210.5,292.5C 212.144,292.714 213.644,292.38 215,291.5C 216.976,285.265 218.476,278.932 219.5,272.5C 225.101,254.775 230.101,236.775 234.5,218.5C 236.44,213.341 237.774,208.007 238.5,202.5C 238.833,201.5 239.5,200.833 240.5,200.5 Z"/></g>
<g><path style="opacity:0.711" fill="#56a0fe" d="M 424.5,207.5 C 424.5,209.167 424.5,210.833 424.5,212.5C 420.082,214.087 418.415,212.42 419.5,207.5C 421.167,207.5 422.833,207.5 424.5,207.5 Z"/></g>
<g><path style="opacity:1" fill="#27215e" d="M 222.5,223.5 C 221.754,227.323 219.754,230.323 216.5,232.5C 213.167,232.5 209.833,232.5 206.5,232.5C 204.115,230.116 202.115,227.45 200.5,224.5C 203.812,220.521 207.479,216.854 211.5,213.5C 215.187,216.855 218.853,220.189 222.5,223.5 Z"/></g>
<g><path style="opacity:1" fill="#eeefef" d="M 253.5,214.5 C 262.86,217.898 272.193,221.398 281.5,225C 288.422,232.415 292.256,241.249 293,251.5C 294.551,274.142 294.885,296.808 294,319.5C 292.351,332.673 285.184,337.673 272.5,334.5C 272.5,350.167 272.5,365.833 272.5,381.5C 251.848,388.942 230.514,392.275 208.5,391.5C 208.5,369.833 208.5,348.167 208.5,326.5C 229.555,329.777 250.555,333.444 271.5,337.5C 271.5,336.167 271.5,334.833 271.5,333.5C 255.397,331.271 239.397,328.437 223.5,325C 223.167,324.667 222.833,324.333 222.5,324C 227.393,322.488 232.393,321.488 237.5,321C 238.973,320.29 239.64,319.124 239.5,317.5C 239.425,314.794 239.092,312.127 238.5,309.5C 245.625,303.402 253.959,300.569 263.5,301C 256.244,293.096 247.244,289.93 236.5,291.5C 236.5,292.833 236.5,294.167 236.5,295.5C 235.532,293.393 235.198,291.059 235.5,288.5C 232.475,288.877 229.475,289.044 226.5,289C 231.219,282.392 235.552,275.559 239.5,268.5C 245.853,272.855 251.687,272.189 257,266.5C 260.069,259.46 258.569,253.793 252.5,249.5C 254.499,237.868 254.832,226.202 253.5,214.5 Z"/></g>
<g><path style="opacity:1" fill="#d1494a" d="M 188.5,218.5 C 190.924,221.656 193.591,224.656 196.5,227.5C 197.852,226.476 199.185,225.476 200.5,224.5C 202.115,227.45 204.115,230.116 206.5,232.5C 205.833,247.167 205.167,261.833 204.5,276.5C 198.595,257.433 193.261,238.1 188.5,218.5 Z"/></g>
<g><path style="opacity:1" fill="#d1494a" d="M 234.5,218.5 C 230.101,236.775 225.101,254.775 219.5,272.5C 218.39,259.177 217.39,245.843 216.5,232.5C 219.754,230.323 221.754,227.323 222.5,223.5C 223.493,225.323 224.993,226.656 227,227.5C 229.51,224.461 232.01,221.461 234.5,218.5 Z"/></g>
<g><path style="opacity:1" fill="#413c76" d="M 206.5,232.5 C 209.833,232.5 213.167,232.5 216.5,232.5C 217.39,245.843 218.39,259.177 219.5,272.5C 218.476,278.932 216.976,285.265 215,291.5C 213.644,292.38 212.144,292.714 210.5,292.5C 209.504,292.586 208.671,292.252 208,291.5C 206.358,286.598 205.191,281.598 204.5,276.5C 205.167,261.833 205.833,247.167 206.5,232.5 Z"/></g>
<g><path style="opacity:0.711" fill="#56a0fe" d="M 3.5,241.5 C 8.42928,243.572 8.59595,245.905 4,248.5C 0.886591,246.324 0.719924,243.991 3.5,241.5 Z"/></g>
<g><path style="opacity:1" fill="#959799" d="M 249.5,248.5 C 250.209,249.404 251.209,249.737 252.5,249.5C 258.569,253.793 260.069,259.46 257,266.5C 251.687,272.189 245.853,272.855 239.5,268.5C 238.199,267.118 237.366,265.452 237,263.5C 235.501,253.849 239.667,248.849 249.5,248.5 Z"/></g>
<g><path style="opacity:1" fill="#cdcfcf" d="M 245.5,254.5 C 252.03,254.243 254.197,257.243 252,263.5C 245,267.5 242,265.5 243,257.5C 244.045,256.627 244.878,255.627 245.5,254.5 Z"/></g>
<g><path style="opacity:0.686" fill="#56a0fe" d="M 414.5,256.5 C 418.909,255.899 420.242,257.566 418.5,261.5C 414.317,262.309 412.984,260.642 414.5,256.5 Z"/></g>
<g><path style="opacity:1" fill="#bfc1c3" d="M 192.5,269.5 C 193.5,269.5 194.5,269.5 195.5,269.5C 197.972,277.721 199.972,286.054 201.5,294.5C 201.789,297.649 201.289,300.649 200,303.5C 196.816,305.671 193.316,307.004 189.5,307.5C 190.11,306.609 190.443,305.609 190.5,304.5C 193.374,304.377 195.874,303.377 198,301.5C 198.009,290.556 196.176,279.889 192.5,269.5 Z"/></g>
<g><path style="opacity:1" fill="#bfbdbc" d="M 156.5,274.5 C 157.167,274.5 157.833,274.5 158.5,274.5C 158.5,279.5 158.5,284.5 158.5,289.5C 160.099,289.232 161.432,289.566 162.5,290.5C 161.5,290.5 160.5,290.5 159.5,290.5C 159.183,294.702 159.517,298.702 160.5,302.5C 160.297,304.39 160.963,305.89 162.5,307C 165.146,307.497 167.813,307.664 170.5,307.5C 170.5,308.167 170.5,308.833 170.5,309.5C 167.482,309.665 164.482,309.498 161.5,309C 159.548,307.588 158.215,305.755 157.5,303.5C 156.728,299.548 156.395,295.548 156.5,291.5C 156.5,285.833 156.5,280.167 156.5,274.5 Z"/></g>
<g><path style="opacity:1" fill="#feba80" d="M 160.5,302.5 C 159.517,298.702 159.183,294.702 159.5,290.5C 160.5,290.5 161.5,290.5 162.5,290.5C 165.176,291.008 167.843,291.175 170.5,291C 168.845,289.556 168.178,287.722 168.5,285.5C 170.527,285.338 172.527,285.505 174.5,286C 177.167,287.667 179.833,289.333 182.5,291C 185.693,292.026 187.026,294.192 186.5,297.5C 177.885,299.423 169.219,301.09 160.5,302.5 Z"/></g>
<g><path style="opacity:0.62" fill="#56a0fe" d="M 15.5,289.5 C 20.1585,289.015 21.4919,290.848 19.5,295C 14.7282,295.81 13.3948,293.977 15.5,289.5 Z"/></g>
<g><path style="opacity:1" fill="#feb97f" d="M 238.5,309.5 C 238.221,304.773 237.554,300.107 236.5,295.5C 236.5,294.167 236.5,292.833 236.5,291.5C 247.244,289.93 256.244,293.096 263.5,301C 253.959,300.569 245.625,303.402 238.5,309.5 Z"/></g>
<g><path style="opacity:1" fill="#febc84" d="M 156.5,291.5 C 156.395,295.548 156.728,299.548 157.5,303.5C 155.801,303.66 154.134,303.494 152.5,303C 150.602,297.976 151.935,294.143 156.5,291.5 Z"/></g>
<g><path style="opacity:0.688" fill="#56a0fe" d="M 398.5,302.5 C 402.35,302.701 403.35,304.534 401.5,308C 396.676,308.183 395.676,306.35 398.5,302.5 Z"/></g>
<g><path style="opacity:1" fill="#5b5c5f" d="M 190.5,304.5 C 190.443,305.609 190.11,306.609 189.5,307.5C 187.335,307.884 185.668,307.217 184.5,305.5C 186.133,303.261 188.133,302.928 190.5,304.5 Z"/></g>
<g><path style="opacity:1" fill="#616265" d="M 170.5,309.5 C 170.5,308.833 170.5,308.167 170.5,307.5C 172.462,304.848 174.462,304.848 176.5,307.5C 174.977,309.283 172.977,309.949 170.5,309.5 Z"/></g>
<g><path style="opacity:1" fill="#d3d5d5" d="M 239.5,317.5 C 239.64,319.124 238.973,320.29 237.5,321C 232.393,321.488 227.393,322.488 222.5,324C 222.833,324.333 223.167,324.667 223.5,325C 239.397,328.437 255.397,331.271 271.5,333.5C 271.5,334.833 271.5,336.167 271.5,337.5C 250.555,333.444 229.555,329.777 208.5,326.5C 189.501,330.277 170.501,333.944 151.5,337.5C 151.5,336.5 151.5,335.5 151.5,334.5C 180.663,328.602 209.996,322.935 239.5,317.5 Z"/></g>
<g><path style="opacity:0.99" fill="#fefefe" d="M 208.5,326.5 C 208.5,348.167 208.5,369.833 208.5,391.5C 188.538,391.618 169.205,388.284 150.5,381.5C 150.171,366.657 150.504,351.99 151.5,337.5C 170.501,333.944 189.501,330.277 208.5,326.5 Z"/></g>
<g><path style="opacity:0.622" fill="#56a0fe" d="M 39.5,332.5 C 44.1585,332.015 45.4919,333.848 43.5,338C 38.7282,338.81 37.3948,336.977 39.5,332.5 Z"/></g>
<g><path style="opacity:0.641" fill="#56a0fe" d="M 371.5,343.5 C 375.068,343.759 376.401,345.759 375.5,349.5C 369.541,350.222 368.207,348.222 371.5,343.5 Z"/></g>
<g><path style="opacity:1" fill="#d1d3d3" d="M 161.5,360.5 C 169.833,360.5 178.167,360.5 186.5,360.5C 186.5,361.5 186.5,362.5 186.5,363.5C 178.167,363.5 169.833,363.5 161.5,363.5C 161.5,362.5 161.5,361.5 161.5,360.5 Z"/></g>
<g><path style="opacity:1" fill="#d1d3d3" d="M 235.5,360.5 C 243.833,360.5 252.167,360.5 260.5,360.5C 260.5,361.5 260.5,362.5 260.5,363.5C 252.167,363.5 243.833,363.5 235.5,363.5C 235.5,362.5 235.5,361.5 235.5,360.5 Z"/></g>
<g><path style="opacity:0.659" fill="#56a0fe" d="M 73.5,368.5 C 77.485,368.629 78.8183,370.463 77.5,374C 72.7282,374.81 71.3948,372.977 73.5,368.5 Z"/></g>
<g><path style="opacity:0.643" fill="#56a0fe" d="M 335.5,377.5 C 339.068,377.759 340.401,379.759 339.5,383.5C 333.541,384.222 332.207,382.222 335.5,377.5 Z"/></g>
<g><path style="opacity:0.665" fill="#56a0fe" d="M 113.5,396.5 C 119.936,396.171 120.936,398.171 116.5,402.5C 114.077,401.288 113.077,399.288 113.5,396.5 Z"/></g>
<g><path style="opacity:0.662" fill="#56a0fe" d="M 291.5,402.5 C 293.288,402.215 294.955,402.548 296.5,403.5C 297.553,406.953 296.219,408.453 292.5,408C 291.594,406.301 291.261,404.467 291.5,402.5 Z"/></g>
<g><path style="opacity:0.643" fill="#56a0fe" d="M 160.5,413.5 C 165.159,413.015 166.492,414.848 164.5,419C 160.126,419.424 158.792,417.591 160.5,413.5 Z"/></g>
<g><path style="opacity:0.662" fill="#56a0fe" d="M 244.5,416.5 C 246.167,416.5 247.833,416.5 249.5,416.5C 249.923,419.288 248.923,421.288 246.5,422.5C 243.61,421.163 242.943,419.163 244.5,416.5 Z"/></g>
<g><path style="opacity:0.708" fill="#56a0fe" d="M 214.5,424.5 C 212.833,424.5 211.167,424.5 209.5,424.5C 207.913,420.082 209.58,418.415 214.5,419.5C 214.5,421.167 214.5,422.833 214.5,424.5 Z"/></g>
</svg>
