<?xml version="1.0" encoding="UTF-8"?>
<!DOCTYPE svg PUBLIC "-//W3C//DTD SVG 1.1//EN" "http://www.w3.org/Graphics/SVG/1.1/DTD/svg11.dtd">
<svg xmlns="http://www.w3.org/2000/svg" version="1.1" width="652px" height="502px" style="shape-rendering:geometricPrecision; text-rendering:geometricPrecision; image-rendering:optimizeQuality; fill-rule:evenodd; clip-rule:evenodd" xmlns:xlink="http://www.w3.org/1999/xlink">
<g><path style="opacity:0.967" fill="#0b2f5d" d="M 344.5,-0.5 C 349.833,-0.5 355.167,-0.5 360.5,-0.5C 373.941,0.772205 381.774,8.10554 384,21.5C 384.499,26.4889 384.666,31.4889 384.5,36.5C 381.568,36.2843 378.902,36.951 376.5,38.5C 371.97,36.9469 367.97,34.6136 364.5,31.5C 364.5,30.8333 364.5,30.1667 364.5,29.5C 362.898,25.8574 361.398,22.1907 360,18.5C 352.191,27.3661 343.857,34.6994 335,40.5C 334.162,50.1635 337.328,58.1635 344.5,64.5C 344.967,69.3999 344.301,74.0666 342.5,78.5C 342.167,78.5 341.833,78.5 341.5,78.5C 336.233,82.0179 333.233,87.0179 332.5,93.5C 332.295,99.8778 332.628,106.211 333.5,112.5C 339.656,112.487 342.49,115.487 342,121.5C 337.667,128.167 333.333,128.167 329,121.5C 328.333,119.833 328.333,118.167 329,116.5C 330.464,115.541 331.297,114.208 331.5,112.5C 330.831,109.148 330.164,105.815 329.5,102.5C 328.466,94.1341 330.466,86.6341 335.5,80C 333.866,79.5065 332.199,79.3398 330.5,79.5C 321.861,79.1969 316.194,75.0302 313.5,67C 315.134,60.5665 317.967,54.7331 322,49.5C 315.732,26.3841 323.232,9.71745 344.5,-0.5 Z"/></g>
<g><path style="opacity:0.995" fill="#f9b4bb" d="M 364.5,29.5 C 352.697,30.6335 352.697,31.3002 364.5,31.5C 367.97,34.6136 371.97,36.9469 376.5,38.5C 378.902,36.951 381.568,36.2843 384.5,36.5C 385.917,39.3404 385.584,42.007 383.5,44.5C 381.264,46.8933 378.597,48.7266 375.5,50C 373.353,53.9693 370.687,57.4693 367.5,60.5C 362.12,65.5268 355.786,67.6935 348.5,67C 347.016,66.3378 345.683,65.5045 344.5,64.5C 337.328,58.1635 334.162,50.1635 335,40.5C 343.857,34.6994 352.191,27.3661 360,18.5C 361.398,22.1907 362.898,25.8574 364.5,29.5 Z"/></g>
<g><path style="opacity:1" fill="#706684" d="M 364.5,29.5 C 364.5,30.1667 364.5,30.8333 364.5,31.5C 352.697,31.3002 352.697,30.6335 364.5,29.5 Z"/></g>
<g><path style="opacity:1" fill="#34436b" d="M 358.5,35.5 C 360.465,35.9483 360.798,36.9483 359.5,38.5C 358.614,37.675 358.281,36.675 358.5,35.5 Z"/></g>
<g><path style="opacity:0.956" fill="#0c305e" d="M 383.5,44.5 C 385.274,51.3772 387.607,58.0439 390.5,64.5C 389.617,71.0493 385.951,75.0493 379.5,76.5C 378.624,76.3691 377.957,76.7025 377.5,77.5C 381.335,82.5072 383.501,88.1738 384,94.5C 389.348,97.1952 391.514,101.529 390.5,107.5C 389.833,107.5 389.167,107.5 388.5,107.5C 389.421,101.66 387.087,97.9934 381.5,96.5C 376.698,97.6334 374.032,100.633 373.5,105.5C 372.833,105.5 372.167,105.5 371.5,105.5C 371.459,99.2116 374.459,95.5449 380.5,94.5C 380.646,87.1024 377.98,80.9358 372.5,76C 371.552,75.5172 370.552,75.3505 369.5,75.5C 366.277,70.9825 365.61,65.9825 367.5,60.5C 370.687,57.4693 373.353,53.9693 375.5,50C 378.597,48.7266 381.264,46.8933 383.5,44.5 Z"/></g>
<g><path style="opacity:1" fill="#fffbfb" d="M 344.5,54.5 C 348.311,53.3547 352.311,53.1881 356.5,54C 352.56,57.0678 348.56,57.2344 344.5,54.5 Z"/></g>
<g><path style="opacity:1" fill="#eaa6ae" d="M 367.5,60.5 C 365.61,65.9825 366.277,70.9825 369.5,75.5C 368.833,77.5 368.167,79.5 367.5,81.5C 362.564,85.0481 357.064,87.3814 351,88.5C 345.473,87.4723 342.64,84.139 342.5,78.5C 344.301,74.0666 344.967,69.3999 344.5,64.5C 345.683,65.5045 347.016,66.3378 348.5,67C 355.786,67.6935 362.12,65.5268 367.5,60.5 Z"/></g>
<g><path style="opacity:0.978" fill="#50a2fc" d="M 369.5,75.5 C 370.552,75.3505 371.552,75.5172 372.5,76C 377.98,80.9358 380.646,87.1024 380.5,94.5C 374.459,95.5449 371.459,99.2116 371.5,105.5C 371.261,111.565 371.761,117.565 373,123.5C 373.697,125.584 374.864,127.251 376.5,128.5C 376.833,129.167 377.167,129.833 377.5,130.5C 375.952,130.821 375.285,131.821 375.5,133.5C 376.791,133.737 377.791,133.404 378.5,132.5C 379.959,132.567 381.292,132.234 382.5,131.5C 382.369,132.376 382.702,133.043 383.5,133.5C 384.776,132.386 384.776,131.386 383.5,130.5C 383.5,130.167 383.5,129.833 383.5,129.5C 386.537,126.94 388.371,123.607 389,119.5C 390.015,115.56 390.515,111.56 390.5,107.5C 391.514,101.529 389.348,97.1952 384,94.5C 383.501,88.1738 381.335,82.5072 377.5,77.5C 377.957,76.7025 378.624,76.3691 379.5,76.5C 386.574,78.8079 393.407,81.8079 400,85.5C 410.498,100.492 420.498,115.825 430,131.5C 433.244,137.487 436.077,143.654 438.5,150C 436.05,156.126 432.383,161.459 427.5,166C 417.53,174.648 407.197,182.815 396.5,190.5C 395.719,191.729 395.219,193.062 395,194.5C 394.599,203.512 394.099,212.512 393.5,221.5C 380.01,222.496 366.344,222.829 352.5,222.5C 352.5,221.167 352.5,219.833 352.5,218.5C 352.893,190.833 353.393,163.166 354,135.5C 356.45,116.951 360.95,98.9507 367.5,81.5C 368.167,79.5 368.833,77.5 369.5,75.5 Z M 398.5,141.5 C 401.648,144.82 404.648,148.32 407.5,152C 404.382,156.121 400.882,159.954 397,163.5C 396.814,156.088 397.314,148.755 398.5,141.5 Z"/></g>
<g><path style="opacity:0.958" fill="#50a2fc" d="M 330.5,79.5 C 332.199,79.3398 333.866,79.5065 335.5,80C 330.466,86.6341 328.466,94.1341 329.5,102.5C 327.891,105.906 326.724,109.573 326,113.5C 324.143,149.477 323.31,185.477 323.5,221.5C 323.5,221.833 323.5,222.167 323.5,222.5C 318.968,222.818 314.634,222.485 310.5,221.5C 310.22,205.647 310.553,189.813 311.5,174C 311.546,172.272 311.046,170.772 310,169.5C 302.995,179.331 295.828,188.998 288.5,198.5C 287.264,197.754 285.93,197.421 284.5,197.5C 280.368,196.137 276.035,195.137 271.5,194.5C 271.491,192.692 271.991,191.025 273,189.5C 291.813,165.199 304.147,137.865 310,107.5C 311.552,101.511 313.885,95.844 317,90.5C 320.819,85.8329 325.319,82.1663 330.5,79.5 Z"/></g>
<g><path style="opacity:1" fill="#5ba0f1" d="M 341.5,78.5 C 338.89,83.7671 335.89,88.7671 332.5,93.5C 333.233,87.0179 336.233,82.0179 341.5,78.5 Z"/></g>
<g><path style="opacity:1" fill="#f9fafb" d="M 341.5,78.5 C 341.833,78.5 342.167,78.5 342.5,78.5C 342.64,84.139 345.473,87.4723 351,88.5C 357.064,87.3814 362.564,85.0481 367.5,81.5C 360.95,98.9507 356.45,116.951 354,135.5C 353.393,163.166 352.893,190.833 352.5,218.5C 342.859,219.719 333.193,220.719 323.5,221.5C 323.31,185.477 324.143,149.477 326,113.5C 326.724,109.573 327.891,105.906 329.5,102.5C 330.164,105.815 330.831,109.148 331.5,112.5C 331.297,114.208 330.464,115.541 329,116.5C 328.333,118.167 328.333,119.833 329,121.5C 333.333,128.167 337.667,128.167 342,121.5C 342.49,115.487 339.656,112.487 333.5,112.5C 332.628,106.211 332.295,99.8778 332.5,93.5C 335.89,88.7671 338.89,83.7671 341.5,78.5 Z"/></g>
<g><path style="opacity:0.845" fill="#849fb7" d="M 617.5,242.5 C 614.797,240.819 612.131,239.153 609.5,237.5C 609.5,190.167 609.5,142.833 609.5,95.5C 599.167,95.5 588.833,95.5 578.5,95.5C 578.5,98.5 578.5,101.5 578.5,104.5C 577.167,104.5 575.833,104.5 574.5,104.5C 574.5,101.5 574.5,98.5 574.5,95.5C 570.5,95.5 566.5,95.5 562.5,95.5C 562.5,93.5 562.5,91.5 562.5,89.5C 580.743,89.1743 598.91,89.5076 617,90.5C 617.5,141.166 617.667,191.832 617.5,242.5 Z"/></g>
<g><path style="opacity:1" fill="#4fa0fb" d="M 388.5,107.5 C 388.862,115.369 387.195,122.702 383.5,129.5C 382.417,129.539 381.417,129.873 380.5,130.5C 379.378,129.37 378.044,128.703 376.5,128.5C 373.805,121.118 372.805,113.451 373.5,105.5C 374.032,100.633 376.698,97.6334 381.5,96.5C 387.087,97.9934 389.421,101.66 388.5,107.5 Z"/></g>
<g><path style="opacity:0.938" fill="#fdfefe" d="M 574.5,104.5 C 575.833,104.5 577.167,104.5 578.5,104.5C 579.922,104.75 580.922,105.583 581.5,107C 585.893,107.017 590.06,107.85 594,109.5C 594.499,114.155 594.666,118.821 594.5,123.5C 582.833,123.5 571.167,123.5 559.5,123.5C 559.334,118.821 559.501,114.155 560,109.5C 563.603,107.872 567.437,107.038 571.5,107C 572.078,105.583 573.078,104.75 574.5,104.5 Z"/></g>
<g><path style="opacity:1" fill="#a0c9f7" d="M 388.5,107.5 C 389.167,107.5 389.833,107.5 390.5,107.5C 390.515,111.56 390.015,115.56 389,119.5C 388.371,123.607 386.537,126.94 383.5,129.5C 387.195,122.702 388.862,115.369 388.5,107.5 Z"/></g>
<g><path style="opacity:1" fill="#cbd9e5" d="M 333.5,114.5 C 340.821,115.319 342.154,118.486 337.5,124C 330.075,123.484 328.742,120.318 333.5,114.5 Z"/></g>
<g><path style="opacity:1" fill="#a1c9f6" d="M 371.5,105.5 C 372.167,105.5 372.833,105.5 373.5,105.5C 372.805,113.451 373.805,121.118 376.5,128.5C 374.864,127.251 373.697,125.584 373,123.5C 371.761,117.565 371.261,111.565 371.5,105.5 Z"/></g>
<g><path style="opacity:1" fill="#b4c8de" d="M 559.5,123.5 C 571.167,123.5 582.833,123.5 594.5,123.5C 594.666,133.172 594.5,142.839 594,152.5C 593.5,153 593,153.5 592.5,154C 589.183,154.498 585.85,154.665 582.5,154.5C 582.5,156.833 582.5,159.167 582.5,161.5C 581.5,161.5 580.5,161.5 579.5,161.5C 578.611,182.485 578.278,203.485 578.5,224.5C 577.391,224.443 576.391,224.11 575.5,223.5C 575.833,202.833 576.167,182.167 576.5,161.5C 575.167,161.5 573.833,161.5 572.5,161.5C 572.756,159.208 572.423,157.041 571.5,155C 568.167,154.667 564.833,154.333 561.5,154C 561,153.5 560.5,153 560,152.5C 559.5,142.839 559.334,133.172 559.5,123.5 Z"/></g>
<g><path style="opacity:1" fill="#a4c9f1" d="M 376.5,128.5 C 378.044,128.703 379.378,129.37 380.5,130.5C 381.417,129.873 382.417,129.539 383.5,129.5C 383.5,129.833 383.5,130.167 383.5,130.5C 382.833,130.5 382.5,130.833 382.5,131.5C 381.292,132.234 379.959,132.567 378.5,132.5C 378.672,131.508 378.338,130.842 377.5,130.5C 377.167,129.833 376.833,129.167 376.5,128.5 Z"/></g>
<g><path style="opacity:1" fill="#103b6e" d="M 377.5,130.5 C 378.338,130.842 378.672,131.508 378.5,132.5C 377.791,133.404 376.791,133.737 375.5,133.5C 375.285,131.821 375.952,130.821 377.5,130.5 Z"/></g>
<g><path style="opacity:1" fill="#09305f" d="M 383.5,130.5 C 384.776,131.386 384.776,132.386 383.5,133.5C 382.702,133.043 382.369,132.376 382.5,131.5C 382.5,130.833 382.833,130.5 383.5,130.5 Z"/></g>
<g><path style="opacity:0.961" fill="#a3bad4" d="M 58.5,179.5 C 53.6041,192.539 57.2708,202.373 69.5,209C 74.8333,211.667 80.1667,214.333 85.5,217C 88.8168,217.498 92.1501,217.665 95.5,217.5C 97.5921,221.547 100.925,223.547 105.5,223.5C 97.3174,227.166 92.4841,233.499 91,242.5C 90.5003,250.159 90.3336,257.826 90.5,265.5C 59.4438,235.444 29.1105,204.778 -0.5,173.5C -0.5,169.5 -0.5,165.5 -0.5,161.5C 3.12321,155.049 8.45655,150.549 15.5,148C 21.0911,147.085 26.0911,148.419 30.5,152C 39.7016,161.369 49.035,170.536 58.5,179.5 Z"/></g>
<g><path style="opacity:0.978" fill="#0a2e5c" d="M 102.5,174.5 C 100.926,174.937 99.7589,175.937 99,177.5C 99.7741,186.811 96.7741,194.478 90,200.5C 89.231,203.099 89.3977,205.599 90.5,208C 93.6091,209.416 96.6091,210.916 99.5,212.5C 99.6308,215.367 98.2974,217.033 95.5,217.5C 92.1501,217.665 88.8168,217.498 85.5,217C 80.1667,214.333 74.8333,211.667 69.5,209C 57.2708,202.373 53.6041,192.539 58.5,179.5C 63.9574,166.373 73.624,158.373 87.5,155.5C 99.9712,156.155 104.971,162.488 102.5,174.5 Z"/></g>
<g><path style="opacity:0.959" fill="#fbb6bb" d="M 102.5,174.5 C 105.799,180.332 110.799,183.999 117.5,185.5C 116.073,188.116 116.406,190.449 118.5,192.5C 117.375,194.129 116.041,195.629 114.5,197C 116.797,197.018 119.131,196.851 121.5,196.5C 123.81,199.111 124.977,202.111 125,205.5C 122.499,208.848 119.332,211.182 115.5,212.5C 110.122,213.73 104.789,213.73 99.5,212.5C 96.6091,210.916 93.6091,209.416 90.5,208C 89.3977,205.599 89.231,203.099 90,200.5C 96.7741,194.478 99.7741,186.811 99,177.5C 99.7589,175.937 100.926,174.937 102.5,174.5 Z"/></g>
<g><path style="opacity:1" fill="#f9b6bd" d="M 389.5,201.5 C 384.5,201.5 379.5,201.5 374.5,201.5C 374.762,200.022 374.429,198.689 373.5,197.5C 372.893,197.624 372.56,197.957 372.5,198.5C 367.077,207.875 365.243,207.542 367,197.5C 370.305,190.361 375.472,185.028 382.5,181.5C 385.807,183.64 388.974,185.974 392,188.5C 390.891,192.695 390.058,197.028 389.5,201.5 Z"/></g>
<g><path style="opacity:1" fill="#3b446c" d="M 101.5,182.5 C 103.465,182.948 103.798,183.948 102.5,185.5C 101.614,184.675 101.281,183.675 101.5,182.5 Z"/></g>
<g><path style="opacity:0.998" fill="#fef4f5" d="M 118.5,192.5 C 119.488,193.795 120.488,195.128 121.5,196.5C 119.131,196.851 116.797,197.018 114.5,197C 116.041,195.629 117.375,194.129 118.5,192.5 Z"/></g>
<g><path style="opacity:0.9" fill="#fcb6bc" d="M 271.5,194.5 C 276.035,195.137 280.368,196.137 284.5,197.5C 282.764,206.976 278.431,214.976 271.5,221.5C 270.833,221.5 270.167,221.5 269.5,221.5C 269.569,215.258 268.569,215.258 266.5,221.5C 263.728,222.767 261.061,222.767 258.5,221.5C 257.217,218.157 257.384,214.824 259,211.5C 262.211,205.054 266.378,199.388 271.5,194.5 Z M 269.5,221.5 C 268.5,221.5 267.5,221.5 266.5,221.5C 268.569,215.258 269.569,215.258 269.5,221.5 Z"/></g>
<g><path style="opacity:1" fill="#c2afd2" d="M 372.5,198.5 C 372.56,197.957 372.893,197.624 373.5,197.5C 374.429,198.689 374.762,200.022 374.5,201.5C 379.5,201.5 384.5,201.5 389.5,201.5C 384.36,202.488 379.026,202.821 373.5,202.5C 373.768,200.901 373.434,199.568 372.5,198.5 Z"/></g>
<g><path style="opacity:0.939" fill="#a4bbd5" d="M 651.5,211.5 C 651.5,246.167 651.5,280.833 651.5,315.5C 643.167,315.5 634.833,315.5 626.5,315.5C 543.5,315.5 460.5,315.5 377.5,315.5C 442.167,314.833 506.833,314.167 571.5,313.5C 578.137,312.515 583.137,309.182 586.5,303.5C 595.976,306.186 605.643,307.019 615.5,306C 622.676,305.322 626.676,301.488 627.5,294.5C 626.635,286.524 626.301,278.524 626.5,270.5C 626.048,250.446 626.548,230.446 628,210.5C 631.046,207.09 634.879,205.756 639.5,206.5C 644.773,205.478 648.773,207.145 651.5,211.5 Z"/></g>
<g><path style="opacity:0.957" fill="#eda8af" d="M 99.5,212.5 C 104.789,213.73 110.122,213.73 115.5,212.5C 118.167,214.833 120.833,217.167 123.5,219.5C 121.928,220.687 120.261,221.687 118.5,222.5C 114.119,222.372 109.785,222.705 105.5,223.5C 100.925,223.547 97.5921,221.547 95.5,217.5C 98.2974,217.033 99.6308,215.367 99.5,212.5 Z"/></g>
<g><path style="opacity:1" fill="#24608d" d="M 352.5,218.5 C 352.5,219.833 352.5,221.167 352.5,222.5C 342.833,222.5 333.167,222.5 323.5,222.5C 323.5,222.167 323.5,221.833 323.5,221.5C 333.193,220.719 342.859,219.719 352.5,218.5 Z"/></g>
<g><path style="opacity:1" fill="#e4e9ee" d="M 123.5,219.5 C 130.175,220.094 136.842,220.76 143.5,221.5C 135.35,222.493 127.017,222.826 118.5,222.5C 120.261,221.687 121.928,220.687 123.5,219.5 Z"/></g>
<g><path style="opacity:0.885" fill="#859fb7" d="M 143.5,221.5 C 181.833,221.5 220.167,221.5 258.5,221.5C 261.061,222.767 263.728,222.767 266.5,221.5C 267.5,221.5 268.5,221.5 269.5,221.5C 270.167,221.5 270.833,221.5 271.5,221.5C 284.5,221.5 297.5,221.5 310.5,221.5C 314.634,222.485 318.968,222.818 323.5,222.5C 333.167,222.5 342.833,222.5 352.5,222.5C 366.344,222.829 380.01,222.496 393.5,221.5C 451.501,221.333 509.501,221.5 567.5,222C 570.254,222.272 572.921,222.772 575.5,223.5C 576.391,224.11 577.391,224.443 578.5,224.5C 583.248,226.913 586.581,230.58 588.5,235.5C 588.892,237.179 589.392,238.846 590,240.5C 590.667,257.833 590.667,275.167 590,292.5C 589.289,296.355 588.122,300.021 586.5,303.5C 583.137,309.182 578.137,312.515 571.5,313.5C 417.833,313.5 264.167,313.5 110.5,313.5C 101.458,312.294 95.6243,307.294 93,298.5C 91.3638,293.625 90.5305,288.625 90.5,283.5C 89.9543,277.562 89.9543,271.562 90.5,265.5C 90.3336,257.826 90.5003,250.159 91,242.5C 92.4841,233.499 97.3174,227.166 105.5,223.5C 109.785,222.705 114.119,222.372 118.5,222.5C 127.017,222.826 135.35,222.493 143.5,221.5 Z M 170.5,227.5 C 217.167,227.5 263.833,227.5 310.5,227.5C 309.838,231.466 309.505,235.466 309.5,239.5C 287.626,235.404 265.626,234.571 243.5,237C 240.053,237.529 236.719,238.362 233.5,239.5C 226.035,236.693 218.701,237.027 211.5,240.5C 197.302,237.544 183.635,233.21 170.5,227.5 Z M 393.5,227.5 C 451.834,227.333 510.168,227.5 568.5,228C 574.123,227.472 576.456,229.972 575.5,235.5C 523.438,235.022 471.438,233.022 419.5,229.5C 410.824,229.709 402.158,230.042 393.5,230.5C 393.5,229.5 393.5,228.5 393.5,227.5 Z M 582.5,235.5 C 581.167,235.5 579.833,235.5 578.5,235.5C 578.642,230.805 579.975,230.805 582.5,235.5 Z M 95.5,271.5 C 99.631,275.13 103.631,278.963 107.5,283C 103.514,283.499 99.5138,283.666 95.5,283.5C 95.5,279.5 95.5,275.5 95.5,271.5 Z"/></g>
<g><path style="opacity:0.982" fill="#fdfdfd" d="M 170.5,227.5 C 183.635,233.21 197.302,237.544 211.5,240.5C 203.323,247.318 194.323,252.985 184.5,257.5C 170.611,254.392 157.945,248.225 146.5,239C 138.568,233.687 129.901,231.687 120.5,233C 117.039,234.305 114.372,236.471 112.5,239.5C 109.364,236.571 106.697,233.238 104.5,229.5C 106.359,228.406 108.359,227.573 110.5,227C 130.52,226.228 150.52,226.394 170.5,227.5 Z"/></g>
<g><path style="opacity:0.954" fill="#4fa0f9" d="M 323.5,226.5 C 323.5,231.167 323.5,235.833 323.5,240.5C 318.737,240.774 314.07,240.441 309.5,239.5C 309.505,235.466 309.838,231.466 310.5,227.5C 314.634,226.515 318.968,226.182 323.5,226.5 Z"/></g>
<g><path style="opacity:1" fill="#1c5b89" d="M 323.5,226.5 C 333.167,226.5 342.833,226.5 352.5,226.5C 352.5,230.167 352.5,233.833 352.5,237.5C 343.052,240.083 333.386,241.083 323.5,240.5C 323.5,235.833 323.5,231.167 323.5,226.5 Z"/></g>
<g><path style="opacity:0.992" fill="#56a3fa" d="M 352.5,226.5 C 366.344,226.171 380.01,226.504 393.5,227.5C 393.5,228.5 393.5,229.5 393.5,230.5C 380.01,233.097 366.343,235.431 352.5,237.5C 352.5,233.833 352.5,230.167 352.5,226.5 Z"/></g>
<g><path style="opacity:0.994" fill="#eef3f6" d="M 575.5,235.5 C 576.5,235.5 577.5,235.5 578.5,235.5C 579.833,235.5 581.167,235.5 582.5,235.5C 584.694,237.221 585.861,239.555 586,242.5C 586.918,260.872 586.584,279.205 585,297.5C 584.303,299.584 583.136,301.251 581.5,302.5C 567.082,300.55 552.582,299.55 538,299.5C 511.45,300.581 484.95,302.414 458.5,305C 431.509,306.274 404.509,306.608 377.5,306C 370.801,305.639 364.135,304.972 357.5,304C 345.032,300.383 332.365,297.716 319.5,296C 295.464,295.294 271.464,295.628 247.5,297C 241.115,295.932 236.449,292.599 233.5,287C 231.866,286.506 230.199,286.34 228.5,286.5C 229.568,285.566 230.901,285.232 232.5,285.5C 230.239,278.549 228.072,271.549 226,264.5C 224.95,259.552 224.45,254.552 224.5,249.5C 226.075,244.923 229.075,241.589 233.5,239.5C 236.719,238.362 240.053,237.529 243.5,237C 265.626,234.571 287.626,235.404 309.5,239.5C 314.07,240.441 318.737,240.774 323.5,240.5C 333.386,241.083 343.052,240.083 352.5,237.5C 366.343,235.431 380.01,233.097 393.5,230.5C 402.158,230.042 410.824,229.709 419.5,229.5C 471.438,233.022 523.438,235.022 575.5,235.5 Z"/></g>
<g><path style="opacity:0.997" fill="#a4bbd5" d="M 104.5,229.5 C 106.697,233.238 109.364,236.571 112.5,239.5C 112.421,242.271 112.921,244.937 114,247.5C 126.912,267.697 145.079,280.03 168.5,284.5C 172.507,284.165 176.507,283.832 180.5,283.5C 196.374,286.131 212.374,287.131 228.5,286.5C 230.199,286.34 231.866,286.506 233.5,287C 236.449,292.599 241.115,295.932 247.5,297C 271.464,295.628 295.464,295.294 319.5,296C 332.365,297.716 345.032,300.383 357.5,304C 364.135,304.972 370.801,305.639 377.5,306C 404.509,306.608 431.509,306.274 458.5,305C 484.95,302.414 511.45,300.581 538,299.5C 552.582,299.55 567.082,300.55 581.5,302.5C 579.5,305.994 576.5,308.16 572.5,309C 417.833,309.667 263.167,309.667 108.5,309C 102.26,307.092 98.4269,302.925 97,296.5C 96.0775,292.21 95.5775,287.877 95.5,283.5C 99.5138,283.666 103.514,283.499 107.5,283C 103.631,278.963 99.631,275.13 95.5,271.5C 95.3335,261.494 95.5002,251.494 96,241.5C 97.1249,236.237 99.9582,232.237 104.5,229.5 Z"/></g>
<g><path style="opacity:0.999" fill="#eef3f6" d="M 184.5,257.5 C 186.021,264.421 188.688,270.755 192.5,276.5C 191.209,277.473 191.209,278.473 192.5,279.5C 188.29,280.544 184.29,281.877 180.5,283.5C 176.507,283.832 172.507,284.165 168.5,284.5C 145.079,280.03 126.912,267.697 114,247.5C 112.921,244.937 112.421,242.271 112.5,239.5C 114.372,236.471 117.039,234.305 120.5,233C 129.901,231.687 138.568,233.687 146.5,239C 157.945,248.225 170.611,254.392 184.5,257.5 Z"/></g>
<g><path style="opacity:0.985" fill="#eef3f6" d="M 588.5,235.5 C 595.654,235.109 602.654,235.775 609.5,237.5C 612.131,239.153 614.797,240.819 617.5,242.5C 622.542,251.288 625.542,260.621 626.5,270.5C 626.301,278.524 626.635,286.524 627.5,294.5C 626.676,301.488 622.676,305.322 615.5,306C 605.643,307.019 595.976,306.186 586.5,303.5C 588.122,300.021 589.289,296.355 590,292.5C 590.667,275.167 590.667,257.833 590,240.5C 589.392,238.846 588.892,237.179 588.5,235.5 Z"/></g>
<g><path style="opacity:0.985" fill="#eea9b0" d="M 233.5,239.5 C 229.075,241.589 226.075,244.923 224.5,249.5C 219.699,254.472 215.032,259.638 210.5,265C 205.135,269.873 199.135,273.706 192.5,276.5C 188.688,270.755 186.021,264.421 184.5,257.5C 194.323,252.985 203.323,247.318 211.5,240.5C 218.701,237.027 226.035,236.693 233.5,239.5 Z"/></g>
<g><path style="opacity:1" fill="#e3eaee" d="M 500.5,240.5 C 507.508,240.334 514.508,240.5 521.5,241C 508.05,244.262 495.05,248.929 482.5,255C 475.749,261.712 467.749,266.379 458.5,269C 439.266,275.029 419.599,277.363 399.5,276C 396.068,275.884 393.068,274.717 390.5,272.5C 392.667,271.052 395,269.885 397.5,269C 413.57,266.569 428.57,261.236 442.5,253C 461.426,246.352 480.759,242.185 500.5,240.5 Z"/></g>
<g><path style="opacity:1" fill="#fefefe" d="M 224.5,249.5 C 224.45,254.552 224.95,259.552 226,264.5C 228.072,271.549 230.239,278.549 232.5,285.5C 230.901,285.232 229.568,285.566 228.5,286.5C 212.374,287.131 196.374,286.131 180.5,283.5C 184.29,281.877 188.29,280.544 192.5,279.5C 191.209,278.473 191.209,277.473 192.5,276.5C 199.135,273.706 205.135,269.873 210.5,265C 215.032,259.638 219.699,254.472 224.5,249.5 Z"/></g>
<g><path style="opacity:0.955" fill="#a3bad4" d="M 90.5,283.5 C 90.5305,288.625 91.3638,293.625 93,298.5C 95.6243,307.294 101.458,312.294 110.5,313.5C 177.833,314.167 245.167,314.833 312.5,315.5C 224.833,315.5 137.167,315.5 49.5,315.5C 41.1667,315.5 32.8333,315.5 24.5,315.5C 24.5,304.833 24.5,294.167 24.5,283.5C 46.5,283.5 68.5,283.5 90.5,283.5 Z"/></g>
<g><path style="opacity:1" fill="#91aac4" d="M 110.5,313.5 C 264.167,313.5 417.833,313.5 571.5,313.5C 506.833,314.167 442.167,314.833 377.5,315.5C 369.5,315.5 361.5,315.5 353.5,315.5C 345.5,315.5 337.5,315.5 329.5,315.5C 323.833,315.5 318.167,315.5 312.5,315.5C 245.167,314.833 177.833,314.167 110.5,313.5 Z"/></g>
<g><path style="opacity:0.953" fill="#839fb6" d="M 24.5,315.5 C 32.8333,315.5 41.1667,315.5 49.5,315.5C 49.5,344.5 49.5,373.5 49.5,402.5C 41.1667,402.5 32.8333,402.5 24.5,402.5C 24.5,373.5 24.5,344.5 24.5,315.5 Z"/></g>
<g><path style="opacity:0.966" fill="#195885" d="M 312.5,315.5 C 318.167,315.5 323.833,315.5 329.5,315.5C 329.5,344.5 329.5,373.5 329.5,402.5C 324.833,402.5 320.167,402.5 315.5,402.5C 315.167,402.5 314.833,402.5 314.5,402.5C 313.936,373.497 313.269,344.497 312.5,315.5 Z"/></g>
<g><path style="opacity:1" fill="#829eb6" d="M 329.5,315.5 C 337.5,315.5 345.5,315.5 353.5,315.5C 353.5,344.5 353.5,373.5 353.5,402.5C 362.167,402.5 370.833,402.5 379.5,402.5C 358.167,403.833 336.833,403.833 315.5,402.5C 320.167,402.5 324.833,402.5 329.5,402.5C 329.5,373.5 329.5,344.5 329.5,315.5 Z"/></g>
<g><path style="opacity:0.974" fill="#1d5e92" d="M 353.5,315.5 C 361.5,315.5 369.5,315.5 377.5,315.5C 373.978,327.089 371.645,338.922 370.5,351C 372.333,368.49 375.666,385.657 380.5,402.5C 380.167,402.5 379.833,402.5 379.5,402.5C 370.833,402.5 362.167,402.5 353.5,402.5C 353.5,373.5 353.5,344.5 353.5,315.5 Z"/></g>
<g><path style="opacity:1" fill="#85a0b8" d="M 626.5,315.5 C 634.833,315.5 643.167,315.5 651.5,315.5C 651.5,345.5 651.5,375.5 651.5,405.5C 643.354,403.846 635.021,402.846 626.5,402.5C 626.5,373.5 626.5,344.5 626.5,315.5 Z"/></g>
<g><path style="opacity:0.976" fill="#a3bad4" d="M 24.5,402.5 C 32.8333,402.5 41.1667,402.5 49.5,402.5C 137.833,402.5 226.167,402.5 314.5,402.5C 314.833,402.5 315.167,402.5 315.5,402.5C 336.833,403.833 358.167,403.833 379.5,402.5C 379.833,402.5 380.167,402.5 380.5,402.5C 462.5,402.5 544.5,402.5 626.5,402.5C 635.021,402.846 643.354,403.846 651.5,405.5C 651.5,410.833 651.5,416.167 651.5,421.5C 635.167,421.5 618.833,421.5 602.5,421.5C 602.5,429.833 602.5,438.167 602.5,446.5C 597.167,446.5 591.833,446.5 586.5,446.5C 586.5,438.167 586.5,429.833 586.5,421.5C 519.5,421.5 452.5,421.5 385.5,421.5C 372.5,421.5 359.5,421.5 346.5,421.5C 336.167,421.5 325.833,421.5 315.5,421.5C 241.5,421.5 167.5,421.5 93.5,421.5C 93.5,429.833 93.5,438.167 93.5,446.5C 88.1667,446.5 82.8333,446.5 77.5,446.5C 77.5,438.167 77.5,429.833 77.5,421.5C 59.8333,421.5 42.1667,421.5 24.5,421.5C 24.5,415.167 24.5,408.833 24.5,402.5 Z"/></g>
<g><path style="opacity:0.969" fill="#185884" d="M 315.5,421.5 C 325.833,421.5 336.167,421.5 346.5,421.5C 348.126,424.246 348.793,427.246 348.5,430.5C 348.666,437.508 348.5,444.508 348,451.5C 347.809,453.708 347.309,455.708 346.5,457.5C 337.523,456.808 328.523,457.141 319.5,458.5C 318.5,458.5 317.5,458.5 316.5,458.5C 315.656,446.187 315.323,433.854 315.5,421.5 Z"/></g>
<g><path style="opacity:0.965" fill="#1d5e92" d="M 346.5,421.5 C 359.5,421.5 372.5,421.5 385.5,421.5C 387.961,432.216 390.627,442.882 393.5,453.5C 391.833,453.5 390.167,453.5 388.5,453.5C 379.619,454.356 370.952,456.023 362.5,458.5C 361.167,458.5 359.833,458.5 358.5,458.5C 355.738,448.876 352.405,439.543 348.5,430.5C 348.793,427.246 348.126,424.246 346.5,421.5 Z"/></g>
<g><path style="opacity:0.938" fill="#0b2f5d" d="M 77.5,446.5 C 82.8333,446.5 88.1667,446.5 93.5,446.5C 113.436,455.803 118.603,470.469 109,490.5C 104.873,495.798 99.7061,499.465 93.5,501.5C 88.5,501.5 83.5,501.5 78.5,501.5C 61.5482,494.939 55.0482,482.606 59,464.5C 62.4414,455.557 68.6081,449.557 77.5,446.5 Z"/></g>
<g><path style="opacity:0.938" fill="#0b2f5d" d="M 586.5,446.5 C 591.833,446.5 597.167,446.5 602.5,446.5C 619.694,454.232 625.527,467.232 620,485.5C 615.812,493.193 609.645,498.526 601.5,501.5C 596.5,501.5 591.5,501.5 586.5,501.5C 566.578,492.241 561.411,477.575 571,457.5C 574.933,452.063 580.1,448.396 586.5,446.5 Z"/></g>
<g><path style="opacity:0.955" fill="#a3bad4" d="M 388.5,453.5 C 389.989,460.099 390.489,466.765 390,473.5C 388.786,475.049 387.286,476.215 385.5,477C 375.307,478.048 365.307,480.048 355.5,483C 346.105,483.886 336.772,483.553 327.5,482C 324.553,481.888 323.22,480.388 323.5,477.5C 324.277,474.888 325.944,473.055 328.5,472C 333.284,469.887 338.284,468.554 343.5,468C 345.066,467.392 346.4,466.558 347.5,465.5C 353.192,464.486 358.192,462.152 362.5,458.5C 370.952,456.023 379.619,454.356 388.5,453.5 Z"/></g>
<g><path style="opacity:1" fill="#f6f7f9" d="M 79.5,456.5 C 90.9846,454.488 98.8179,458.821 103,469.5C 103.677,485.155 96.177,492.322 80.5,491C 68.1722,484.349 65.3389,474.849 72,462.5C 74.4784,460.361 76.9784,458.361 79.5,456.5 Z"/></g>
<g><path style="opacity:1" fill="#f7f8f9" d="M 588.5,456.5 C 606.723,455.546 613.89,463.88 610,481.5C 604.496,490.669 596.662,493.502 586.5,490C 576.573,483.655 574.073,475.155 579,464.5C 581.772,461.217 584.939,458.55 588.5,456.5 Z"/></g>
<g><path style="opacity:0.934" fill="#839eb6" d="M 346.5,457.5 C 346.575,460.206 346.908,462.873 347.5,465.5C 346.4,466.558 345.066,467.392 343.5,468C 338.284,468.554 333.284,469.887 328.5,472C 325.944,473.055 324.277,474.888 323.5,477.5C 310.529,481.154 297.529,481.321 284.5,478C 283.707,476.915 283.04,475.748 282.5,474.5C 284.024,472.142 286.024,470.309 288.5,469C 296.198,467.127 303.864,465.127 311.5,463C 314.633,462.14 317.3,460.64 319.5,458.5C 328.523,457.141 337.523,456.808 346.5,457.5 Z"/></g>
<g><path style="opacity:1" fill="#123360" d="M 82.5,463.5 C 92.4529,463.096 96.6196,467.763 95,477.5C 92.0812,483.025 87.5812,484.858 81.5,483C 73.2873,476.096 73.6207,469.596 82.5,463.5 Z"/></g>
<g><path style="opacity:1" fill="#123360" d="M 591.5,463.5 C 603.167,464.308 606.667,469.974 602,480.5C 598.319,483.36 594.152,484.193 589.5,483C 582.333,475.518 583,469.018 591.5,463.5 Z"/></g>
</svg>
